<?xml version="1.0" encoding="UTF-8"?>
<svg id="Layer_2" xmlns="http://www.w3.org/2000/svg" viewBox="0 0 572.07 73.47">
  <defs>
    <style>
      .cls-1 {
        fill: #bbdd94;
      }

      .cls-2 {
        fill: #ffdc6e;
      }

      .cls-3 {
        fill: #381c09;
      }
    </style>
  </defs>
  <g id="content">
    <g>
      <rect class="cls-2" y="68.47" width="191" height="5"/>
      <rect class="cls-2" x="227" y="68.47" width="278" height="5"/>
      <g>
        <path class="cls-3" d="M29.2,39.59c3.61-.04,5.37,1.56,5.37,3.73,0,.94-.37,2.01-1.07,3.12-1.68,2.58-3.94,5.08-6.52,7.13-.57.45-1.19.66-1.72.66-1.23,0-2.21-1.02-2.21-2.25,0-.7.33-1.44,1.15-2.09,1.68-1.31,3.28-3.03,4.3-4.55.21-.29.29-.53.29-.74,0-.33-.29-.49-.94-.49l-23.29.16c-1.44,0-2.17-1.11-2.17-2.26s.74-2.26,2.17-2.26l24.64-.16ZM15.59,49.18c0-1.35,1.19-2.05,2.38-2.05s2.38.7,2.38,2.05v1.93c0,8.73-3.85,15.21-10.82,19.43-.53.33-1.07.49-1.56.49-1.35,0-2.38-1.07-2.38-2.3,0-.78.45-1.6,1.52-2.26,5.62-3.4,8.49-8.2,8.49-15.38v-1.93Z"/>
        <path class="cls-3" d="M64.46,40.24c3.2-.08,4.84,1.31,4.84,3.53,0,.66-.16,1.39-.45,2.21-1.27,3.4-3.24,6.72-5.62,9.8,3.81,2.58,8.08,6.35,10.99,9.72.53.61.78,1.27.78,1.84,0,1.35-1.27,2.46-2.62,2.46-.66,0-1.39-.29-1.97-.98-2.54-3.07-6.31-6.81-10.09-9.64-3.98,4.3-8.73,7.87-13.37,10.17-.41.21-.82.29-1.19.29-1.39,0-2.38-1.19-2.38-2.38,0-.82.41-1.6,1.39-2.09,8.53-4.31,15.7-11.28,18.94-19.23.12-.25.16-.49.16-.66,0-.37-.33-.53-1.03-.53l-14.68.29c-1.35,0-2.05-1.11-2.05-2.21s.7-2.3,2.01-2.3l16.32-.29Z"/>
        <path class="cls-3" d="M91.93,46.84c1.15-1.11,2.34-1.64,3.57-1.64,1.11,0,2.21.41,3.32,1.27l18.12,14.06c.86.7,1.23,1.48,1.23,2.26,0,1.35-1.11,2.5-2.54,2.5-.61,0-1.31-.25-2.01-.78l-16.69-13.61c-.53-.45-.98-.66-1.39-.66-.45,0-.86.25-1.35.78l-7.42,7.46c-.61.61-1.31.9-1.97.9-1.27,0-2.34-.98-2.34-2.21,0-.57.25-1.23.82-1.89l8.65-8.45ZM105.71,43.69c0-.82.82-1.56,1.72-1.56.37,0,.78.12,1.15.45,1.11.98,2.34,2.3,3.2,3.57.29.37.37.74.37,1.11,0,.9-.78,1.64-1.64,1.64-.49,0-.98-.25-1.35-.78-.98-1.35-2.09-2.54-3.03-3.48-.29-.33-.41-.66-.41-.94ZM109.77,40.41c0-.82.78-1.52,1.72-1.52.41,0,.82.16,1.23.49,1.07.9,2.3,2.17,3.16,3.36.33.41.45.82.45,1.23,0,.9-.78,1.56-1.64,1.56-.49,0-1.03-.2-1.44-.74-.94-1.19-2.09-2.42-3.03-3.4-.33-.33-.45-.66-.45-.98Z"/>
        <path class="cls-3" d="M146.05,40.24c3.2-.08,4.84,1.31,4.84,3.53,0,.66-.16,1.39-.45,2.21-1.27,3.4-3.24,6.72-5.62,9.8,3.81,2.58,8.08,6.35,10.99,9.72.53.61.78,1.27.78,1.84,0,1.35-1.27,2.46-2.62,2.46-.66,0-1.39-.29-1.97-.98-2.54-3.07-6.31-6.81-10.09-9.64-3.98,4.3-8.73,7.87-13.37,10.17-.41.21-.82.29-1.19.29-1.39,0-2.38-1.19-2.38-2.38,0-.82.41-1.6,1.39-2.09,8.53-4.31,15.7-11.28,18.94-19.23.12-.25.16-.49.16-.66,0-.37-.33-.53-1.03-.53l-14.68.29c-1.35,0-2.05-1.11-2.05-2.21s.7-2.3,2.01-2.3l16.32-.29Z"/>
        <path class="cls-3" d="M174.96,49.79c.41-.74,1.15-1.27,2.01-1.27.37,0,.7.08,1.07.25,2.54,1.15,6.11,3.24,8.69,5.25.82.61,1.15,1.39,1.15,2.13,0,1.31-1.03,2.42-2.34,2.42-.53,0-1.15-.16-1.72-.61-2.38-1.8-5.86-3.94-7.67-4.92-.57-.33-.94-.7-1.19-1.15v17.67c0,1.44-1.19,2.13-2.42,2.13s-2.42-.7-2.42-2.13v-31.28c0-1.43,1.23-2.17,2.42-2.17s2.42.74,2.42,2.17v11.52Z"/>
        <path class="cls-3" d="M209.04,52.4c0,1.9-1.56,3.47-3.47,3.47s-3.47-1.56-3.47-3.47,1.56-3.47,3.47-3.47,3.47,1.56,3.47,3.47Z"/>
        <path class="cls-3" d="M227.26,38.77c.08-1.39,1.23-2.05,2.38-2.05,1.27,0,2.5.78,2.38,2.26-.45,6.07-.86,13.86-.86,20.17,0,5.49,1.68,6.97,4.59,6.97,3.81,0,7.38-1.56,11.15-6.23.57-.74,1.31-1.03,1.97-1.03,1.27,0,2.42.98,2.42,2.26,0,.49-.16.98-.57,1.52-4.67,5.82-9.64,8.04-14.97,8.04-6.11,0-9.35-3.03-9.35-11.56,0-6.52.41-14.31.86-20.34ZM240.46,43.36c0-.82.82-1.56,1.72-1.56.37,0,.78.12,1.15.45,1.11.98,2.34,2.3,3.2,3.57.29.37.37.74.37,1.11,0,.9-.78,1.64-1.64,1.64-.49,0-.98-.25-1.35-.78-.98-1.35-2.09-2.54-3.03-3.48-.29-.33-.41-.66-.41-.94ZM244.52,40.08c0-.82.78-1.52,1.72-1.52.41,0,.82.16,1.23.49,1.07.9,2.3,2.17,3.16,3.36.33.41.45.82.45,1.23,0,.9-.78,1.56-1.64,1.56-.49,0-1.03-.21-1.43-.74-.94-1.19-2.09-2.42-3.03-3.4-.33-.33-.45-.66-.45-.98Z"/>
        <path class="cls-3" d="M272.94,53.03c1.19-.74,2.42-1.07,3.73-1.07,3.77,0,5.82,2.25,6.11,8.65.21,4.47,1.19,5.08,2.75,5.08,1.84,0,3.4-1.6,4.84-5.33.41-1.07,1.31-1.56,2.21-1.56,1.23,0,2.46.9,2.46,2.21,0,.29-.04.61-.21.98-2.09,5.66-5.21,8.32-9.64,8.32s-6.89-2.3-7.17-9.31c-.16-4.06-.78-4.92-2.46-4.92-2.17,0-4.39,2.01-6.4,6.19-.9,1.89-2.09,4.39-2.99,6.35-.45.94-1.31,1.39-2.17,1.39-1.23,0-2.46-.86-2.46-2.17,0-.29.08-.57.21-.9,3.61-8.69,8.86-19.8,13.53-28.54.49-.86,1.27-1.23,2.09-1.23,1.31,0,2.58.9,2.58,2.13,0,.33-.08.66-.25.98l-6.85,12.67.08.04Z"/>
        <path class="cls-3" d="M305.53,59.27c-.41,5.41-1.15,8.65-2.13,11.36-.37.98-1.19,1.44-2.01,1.44-.98,0-1.97-.74-1.97-1.89,0-.29.04-.57.16-.9,1.44-3.85,2.34-8.81,2.34-21.89v-7.26c0-2.75,1.07-4.1,4.35-4.1h2.42c3.28,0,4.39,1.35,4.39,4.1v27.72c0,3.16-1.48,4.26-3.98,4.26-.57,0-1.27-.04-1.97-.12-1.27-.16-1.85-1.11-1.85-2.09,0-1.11.78-2.21,2.17-2.05.33.04.7.08.98.08.41,0,.62-.16.62-.78v-7.87h-3.53ZM309.06,49.47h-3.16c-.04,2.05-.08,4.14-.16,6.19h3.32v-6.19ZM309.06,40.94c0-.78-.21-1.03-.9-1.03h-1.31c-.74,0-.94.25-.94,1.03v4.92h3.16v-4.92ZM323.53,36.88c0-1.31,1.11-1.93,2.21-1.93s2.21.62,2.21,1.93v3.9h8.16c1.15,0,1.72,1.02,1.72,2.01s-.57,2.01-1.72,2.01h-20.09c-1.11,0-1.68-1.03-1.68-2.01s.57-2.01,1.68-2.01h7.5v-3.9ZM331.16,49.34c2.99,0,4.59,1.31,4.59,4.43v9.8c0,2.79-1.23,4.26-3.77,4.26-.53,0-1.39-.04-1.84-.12-1.15-.21-1.64-1.11-1.64-2.05,0-1.11.74-2.21,1.97-2.05.29.04.41.04.53.04.29,0,.41-.12.41-.53v-8.65c0-.94-.25-1.19-1.19-1.19h-2.3v17.88c0,1.15-1.07,1.76-2.17,1.76s-2.17-.61-2.17-1.76v-17.88h-2.05c-.94,0-1.19.25-1.19,1.19v12.01c0,1.15-1.07,1.72-2.13,1.72s-2.21-.57-2.21-1.76v-12.67c0-3.12,1.56-4.43,4.59-4.43h2.99v-2.05c0-1.19,1.11-1.76,2.17-1.76s2.17.57,2.17,1.76v2.05h3.24Z"/>
        <path class="cls-3" d="M344.28,53.12c-.12.2-.25.41-.37.61-.53.9-1.31,1.27-2.05,1.27-1.07,0-2.09-.86-2.09-2.01,0-.41.12-.86.41-1.31,2.38-3.94,4.43-9.68,5.53-15.33.21-1.07,1.19-1.6,2.17-1.6,1.31,0,2.62.9,2.3,2.58-.7,3.44-1.85,7.05-3.2,10.33.86.16,1.6.74,1.6,1.64v22.35c0,1.11-1.07,1.64-2.13,1.64s-2.17-.53-2.17-1.64v-18.53ZM356.78,48.73c3.16,0,4.14,1.27,3.85,4.47-.33,3.69-1.31,7.34-2.79,10.7,2.58,2.71,6.31,3.9,11.64,3.9,2.5,0,5.78-.16,7.75-.33,1.44-.12,2.21.94,2.21,2.05,0,.94-.62,1.93-1.8,2.01-2.21.16-5.49.29-8.12.29-5.74,0-10.25-1.23-13.57-4.31-.94,1.56-2.05,2.99-3.28,4.31-.53.57-1.11.82-1.68.82-1.07,0-1.97-.86-1.97-1.89,0-.53.21-1.11.74-1.64,1.43-1.52,2.62-3.16,3.57-4.84-1.27-2.09-2.26-4.63-2.99-7.75-.33-1.44.86-2.26,1.93-2.26.78,0,1.52.41,1.72,1.31.33,1.6.78,3.03,1.31,4.26.7-2.05,1.15-4.26,1.39-6.6.08-.66-.12-.82-.86-.82h-2.17c-1.8,0-2.91-.9-2.91-2.3,0-.53.16-1.19.57-1.85,1.19-2.05,2.25-4.35,3.08-6.31.08-.21.12-.37.12-.49,0-.29-.21-.37-.74-.37h-1.6c-1.03,0-1.52-.94-1.52-1.89s.49-1.89,1.52-1.89h2.91c2.42,0,3.73,1.23,3.73,3.16,0,.61-.12,1.27-.41,2.01-.7,1.93-1.68,4.1-2.83,6.15l.08.08h1.11ZM362.77,41.84c-.94,0-1.39-.82-1.39-1.6,0-.82.45-1.6,1.39-1.6h3.69v-2.3c0-1.07.98-1.6,1.93-1.6s1.93.53,1.93,1.6v2.3h2.25c2.79,0,3.85,1.07,3.85,3.28v1.97h1.43c.9,0,1.35.78,1.35,1.6s-.45,1.6-1.35,1.6h-1.43v2.05c0,2.21-1.07,3.28-3.85,3.28h-2.25v2.09h5.21c.9,0,1.35.82,1.35,1.64s-.45,1.64-1.35,1.64h-5.21v2.05h6.81c.9,0,1.35.82,1.35,1.64s-.45,1.64-1.35,1.64h-6.81v2.25c0,1.07-.94,1.6-1.93,1.6s-1.93-.53-1.93-1.6v-2.25h-4.84c-.9,0-1.35-.82-1.35-1.64s.45-1.64,1.35-1.64h4.84v-2.05h-3.4c-.9,0-1.35-.82-1.35-1.64s.45-1.64,1.35-1.64h3.4v-2.09h-3.4c-.94,0-1.39-.82-1.39-1.6,0-.82.45-1.6,1.39-1.6h3.4v-2.13h-5.25c-.9,0-1.35-.82-1.35-1.6,0-.82.45-1.6,1.35-1.6h5.25v-2.05h-3.69ZM370.31,43.89h2.42v-1.27c0-.61-.12-.78-.74-.78h-1.68v2.05ZM371.99,49.22c.62,0,.74-.16.74-.78v-1.35h-2.42v2.13h1.68Z"/>
        <path class="cls-3" d="M399.22,35.85c0-1.07,1.07-1.6,2.17-1.6s2.13.53,2.13,1.6v2.3h13.41c1.07,0,1.56.9,1.56,1.8s-.49,1.8-1.56,1.8h-25.67c-1.85,0-2.34.45-2.34,1.93v6.4c0,8.04-1.35,14.35-3.77,19.43-.49,1.07-1.39,1.52-2.21,1.52-1.07,0-2.01-.74-2.01-1.93,0-.33.08-.7.25-1.11,2.13-4.63,3.44-10.46,3.44-18.33v-6.72c0-3.28,1.56-4.8,5.49-4.8h9.1v-2.3ZM398.07,64.06c1.07,0,1.76.9,1.76,1.85,0,.66-.33,1.35-1.19,1.76-2.46,1.19-5.29,2.34-8.28,3.16-.21.04-.41.08-.62.08-1.19,0-1.89-.94-1.89-1.93,0-.78.45-1.56,1.52-1.85,2.58-.7,5.25-1.64,7.71-2.83.37-.16.7-.25.98-.25ZM391.22,52.66c-.9,0-1.39-.82-1.39-1.6,0-.82.49-1.6,1.39-1.6h9.59v-1.85h-7.01c-.9,0-1.39-.82-1.39-1.6,0-.82.49-1.6,1.39-1.6h7.01v-.7c0-1.15,1.03-1.68,2.05-1.68s2.05.53,2.05,1.68v.7h5.62c3.4,0,4.55,1.15,4.55,3.85v1.19h3.03c.94,0,1.39.78,1.39,1.6s-.45,1.6-1.39,1.6h-3.03v1.44c0,2.54-1.15,3.65-4.35,3.65h-5.82v.7c1.11,1.19,2.25,2.26,3.48,3.28,1.39-.86,2.75-1.8,4.18-2.95.49-.37.98-.53,1.43-.53,1.15,0,2.09.94,2.09,1.97,0,.57-.29,1.19-.98,1.68-1.11.78-2.21,1.52-3.36,2.21,1.84,1.15,3.69,2.05,5.54,2.79,1.15.45,1.64,1.27,1.64,2.09,0,1.07-.82,2.09-2.09,2.09-.33,0-.66-.04-1.03-.2-4.02-1.68-8.04-4.47-11.03-7.54l.21,3.9v1.93c0,2.75-1.6,3.73-4.63,3.73-.66,0-1.43-.04-2.13-.16-1.23-.2-1.76-1.11-1.76-2.01,0-1.07.78-2.09,2.13-1.89.49.08,1.03.12,1.39.12.57,0,.82-.12.82-.74v-10.46h-7.26c-.9,0-1.39-.82-1.39-1.6,0-.82.49-1.6,1.39-1.6h7.26v-1.89h-9.59ZM397.33,60.33c.57.45.78.94.78,1.48,0,1.02-.9,1.97-1.97,1.97-.37,0-.78-.12-1.19-.45-.78-.62-1.6-1.19-2.38-1.68-.62-.37-.86-.86-.86-1.39,0-.94.86-1.89,1.97-1.89.29,0,.57.04.9.2.9.41,1.97,1.11,2.75,1.76ZM411.11,49.47v-.9c0-.74-.25-.94-1.19-.94h-5v1.85h6.19ZM404.92,54.55h5c.94,0,1.19-.16,1.19-.9v-.98h-6.19v1.89Z"/>
        <path class="cls-3" d="M431.24,55.62c.16.08.33.21.49.29.7-.74,1.43-1.64,2.01-2.46.37-.53.86-.78,1.35-.78.9,0,1.76.74,1.76,1.64,0,.33-.12.7-.41,1.07-.57.82-1.27,1.64-2.09,2.46.62.45,1.19.94,1.6,1.35.45.49.66.98.66,1.48,0,1.03-.82,1.84-1.76,1.84-.45,0-.9-.16-1.35-.61-.66-.7-1.48-1.48-2.25-2.13v11.85c0,1.07-1.02,1.64-2.09,1.64s-2.09-.57-2.09-1.64v-13.37c-.57.53-1.15,1.03-1.72,1.48-.53.41-1.07.61-1.56.61-1.11,0-2.01-.9-2.01-1.93,0-.57.29-1.19.94-1.72,3.53-2.67,6.77-6.93,8.16-10.17.08-.21.12-.37.12-.49,0-.29-.21-.41-.74-.41h-6.23c-1.03,0-1.52-.94-1.52-1.93s.49-1.89,1.52-1.89h2.87v-5.49c0-1.07,1.07-1.6,2.09-1.6s2.09.53,2.09,1.6v5.49h.98c2.38,0,3.65,1.07,3.65,2.91,0,.66-.16,1.43-.53,2.3-.98,2.3-2.3,4.55-3.94,6.68v1.93ZM453.71,50.86c2.75,0,4.02,1.11,4.02,3.16,0,.61-.08,1.27-.33,2.05-.86,2.83-2.3,5.58-4.14,8.04,1.8,1.8,3.85,3.28,6.23,4.43.94.45,1.31,1.19,1.31,1.93,0,1.07-.9,2.13-2.09,2.13-.33,0-.7-.08-1.07-.29-2.54-1.31-4.88-3.08-6.89-5.25-2.17,2.25-4.67,4.18-7.26,5.49-.41.25-.82.33-1.19.33-1.15,0-1.97-.94-1.97-1.93,0-.66.37-1.31,1.19-1.76,2.54-1.35,4.88-3.16,6.77-5.21-.78-1.23-1.52-2.46-2.17-3.77-.86-1.8-1.56-3.69-2.05-5.66h-1.48c-.29,7.34-1.93,12.75-4.71,17.22-.53.86-1.35,1.19-2.09,1.19-1.07,0-2.01-.7-2.01-1.76,0-.41.12-.9.45-1.39,2.91-4.59,4.26-9.92,4.26-18v-6.85c0-3.03,1.23-4.39,4.63-4.39h4.14v-4.31c0-1.15,1.03-1.68,2.05-1.68s2.05.53,2.05,1.68v4.31h4.96c2.62,0,3.98,1.27,3.98,3.08,0,.49-.08,1.07-.33,1.64-.45,1.11-1.02,2.21-1.52,2.99-.49.78-1.19,1.11-1.89,1.11-1.07,0-2.05-.78-2.05-1.84,0-.29.08-.61.29-.94.25-.45.49-.86.74-1.44.08-.16.12-.33.12-.41,0-.25-.16-.33-.62-.33h-3.69v6.44h2.34ZM447.27,44.42h-3.36c-1.02,0-1.27.25-1.27,1.11v5.33h4.63v-6.44ZM447.84,54.55c.66,2.25,1.6,4.39,2.87,6.35,1.11-1.72,2.01-3.57,2.54-5.49.04-.16.08-.29.08-.41,0-.33-.25-.45-.78-.45h-4.71Z"/>
        <path class="cls-3" d="M480.35,53.85h-10.25c-1.03,0-1.56-.86-1.56-1.68,0-.86.53-1.68,1.56-1.68h10.25v-2.13h-8.57c-1.02,0-1.56-.86-1.56-1.68,0-.86.53-1.68,1.56-1.68h8.57v-.78c0-1.15,1.07-1.72,2.17-1.72s2.21.61,2.21,1.76v.74h8.49c1.07,0,1.56.82,1.56,1.68s-.49,1.68-1.56,1.68h-8.49v2.13h10.62c1.07,0,1.56.82,1.56,1.68s-.49,1.68-1.56,1.68h-10.62v2.17h15.05c1.11,0,1.64.86,1.64,1.76s-.53,1.76-1.64,1.76h-34.36c-1.07,0-1.64-.9-1.64-1.76s.57-1.76,1.64-1.76h14.92v-2.17ZM480.31,36.18c0-1.15,1.11-1.68,2.25-1.68s2.21.53,2.21,1.68v2.42h10.46c3.77,0,5.08,1.19,5.08,3.85v2.67c0,1.15-1.11,1.72-2.25,1.72s-2.25-.57-2.25-1.72v-1.97c0-.78-.33-1.11-1.35-1.11h-23.62c-1.03,0-1.35.33-1.35,1.11v2.13c0,1.11-1.11,1.68-2.25,1.68s-2.25-.57-2.25-1.68v-2.83c0-2.67,1.31-3.85,5.08-3.85h10.25v-2.42ZM474.74,72.3c-3.61,0-4.92-1.19-4.92-3.73v-3.24c0-2.54,1.31-3.73,4.92-3.73h15.99c3.57,0,4.92,1.19,4.92,3.73v3.24c-.08,3.16-2.17,3.69-4.92,3.73h-15.99ZM489.91,68.98c1.11,0,1.39-.25,1.39-1.03v-2.05c0-.74-.29-.98-1.39-.98h-14.35c-1.11,0-1.39.25-1.39.98v2.05c0,.94.57,1.03,1.39,1.03h14.35Z"/>
        <path class="cls-3" d="M516.31,42.47c0-1.3,1.04-1.94,2.09-1.94s2.09.65,2.09,1.94c0,4.03.32,7.63.83,10.55,2.2-1.08,4.64-2.05,7.09-2.81.22-.07.43-.11.65-.11,1.12,0,1.87,1.01,1.87,2.02,0,.76-.4,1.48-1.33,1.76-3.2,1.01-6.8,2.48-9.47,4.18-3.1,2.02-4.18,4-4.18,5.83,0,2.23,1.48,3.38,7.2,3.38,2.88,0,5.44-.25,7.45-.65,1.55-.29,2.41.83,2.41,1.94,0,.9-.5,1.76-1.62,2.02-2.45.5-5.22.68-8.28.68-7.56,0-11.34-2.3-11.34-7.16,0-2.95,1.37-5.87,5.87-8.93-.79-3.46-1.33-7.74-1.33-12.71Z"/>
        <path class="cls-3" d="M546.84,41.6c1.15,0,2.34.76,2.05,2.16-1.15,5-1.91,10.26-1.91,14.87,0,4,.36,7.81.79,10.69.22,1.33-.94,2.12-2.05,2.12-.94,0-1.84-.5-2.02-1.62-.5-2.99-.83-6.91-.83-11.23,0-4.82.76-10.33,1.98-15.59.22-.97,1.08-1.4,1.98-1.4ZM564.62,46.86v1.37c1.4-.14,2.74-.36,3.96-.58,1.4-.29,2.16.68,2.16,1.69,0,.83-.5,1.69-1.58,1.91-1.4.29-2.95.5-4.5.68.04,3.1.11,6.19.43,9.25,1.98.76,4.03,1.87,6.01,3.35.68.5.97,1.15.97,1.76,0,1.01-.83,1.94-1.91,1.94-.43,0-.9-.18-1.37-.54-1.19-.94-2.41-1.73-3.56-2.38-.4,2.99-2.45,5.15-6.91,5.15-4.03,0-6.55-2.02-6.55-5.26,0-2.99,2.41-5.22,7.09-5.22.76,0,1.55.07,2.38.18-.22-2.63-.29-5.26-.32-7.88-1.55.11-3.06.14-4.46.14-.72,0-1.37,0-1.98-.07-1.12-.11-1.66-1.01-1.66-1.91s.61-1.87,1.87-1.8c.54.04,1.12.07,1.76.07,1.4,0,2.88-.04,4.43-.14v-5.36c0-1.12.94-1.66,1.87-1.66s1.87.54,1.87,1.66v3.64ZM561.42,63.78c-.94-.25-1.8-.4-2.56-.4-2.52,0-3.31.79-3.31,1.84,0,1.12.97,1.69,2.77,1.69s3.06-.86,3.09-3.13Z"/>
      </g>
      <g>
        <path class="cls-1" d="M262.46,17.87l-.33-2.2h-2.85l-.33,2.2h-3.52l3.1-17.57h4.25l3.2,17.57h-3.52ZM259.74,12.75h1.95l-.97-6.42-.97,6.42Z"/>
        <path class="cls-1" d="M276.94,12.57c0,2.5-.62,5.3-5.62,5.3h-3.57V.3h3.52c4.32,0,5.25,2.57,5.25,4.8,0,1.15-.15,2.47-1.07,3.47,1.22,1.07,1.5,2.67,1.5,4ZM271.44,3.22h-.37v4.17h.37c1.37-.03,1.8-.8,1.8-2.22s-.67-1.95-1.8-1.95ZM271.44,14.95c1.45,0,2.25-.32,2.25-2.32,0-2.32-.97-2.57-2.25-2.57h-.37v4.9h.37Z"/>
        <path class="cls-1" d="M290.21,9.2c0,2.12-.3,8.97-5.77,8.97-5.02,0-5.75-6.82-5.75-9.1,0-2.7.72-9.07,5.75-9.07,5.47,0,5.77,6.97,5.77,9.2ZM286.71,9.25c0-2.02-.22-6.75-2.27-6.75-1.83,0-2.22,3.97-2.22,6.57,0,1.57.25,6.42,2.22,6.42s2.27-4.75,2.27-6.25Z"/>
        <path class="cls-1" d="M298.99.3h3.52v12.3c0,2.9-2.15,5.47-5.27,5.47s-5.27-2.57-5.27-5.47V.3h3.52v12.9c0,.97.78,1.75,1.75,1.75s1.75-.77,1.75-1.75V.3Z"/>
        <path class="cls-1" d="M307.79.3h7.02v2.92h-3.52v14.65h-3.5V3.22h-3.52V.3h3.52Z"/>
      </g>
    </g>
  </g>
</svg>