<?xml version="1.0" encoding="UTF-8"?>
<svg id="Layer_2" xmlns="http://www.w3.org/2000/svg" viewBox="0 0 317.58 121.47">
  <defs>
    <style>
      .cls-1 {
        fill: #bbdd94;
      }

      .cls-2 {
        fill: #ffdc6e;
      }

      .cls-3 {
        fill: #381c09;
      }
    </style>
  </defs>
  <g id="content">
    <g>
      <g>
        <rect class="cls-2" x="61" y="64.47" width="173" height="5"/>
        <rect class="cls-2" y="116.47" width="260" height="5"/>
        <g>
          <path class="cls-3" d="M88.74,38.5c3.26-.04,4.85,1.41,4.85,3.37,0,.85-.33,1.81-.96,2.81-1.52,2.33-3.55,4.59-5.88,6.44-.52.41-1.07.59-1.55.59-1.11,0-2-.93-2-2.04,0-.63.3-1.3,1.04-1.89,1.52-1.18,2.96-2.74,3.88-4.11.19-.26.26-.48.26-.67,0-.3-.26-.44-.85-.44l-21.02.15c-1.29,0-1.96-1-1.96-2.04s.67-2.04,1.96-2.04l22.24-.15ZM76.46,47.16c0-1.22,1.07-1.85,2.15-1.85s2.15.63,2.15,1.85v1.74c0,7.88-3.48,13.73-9.77,17.54-.48.3-.96.44-1.41.44-1.22,0-2.15-.96-2.15-2.07,0-.7.41-1.44,1.37-2.04,5.07-3.07,7.66-7.4,7.66-13.88v-1.74Z"/>
          <path class="cls-3" d="M120.56,39.09c2.89-.07,4.37,1.18,4.37,3.18,0,.59-.15,1.26-.41,2-1.15,3.07-2.92,6.07-5.07,8.84,3.44,2.33,7.29,5.74,9.92,8.77.48.56.7,1.15.7,1.67,0,1.22-1.15,2.22-2.37,2.22-.59,0-1.26-.26-1.78-.89-2.29-2.78-5.7-6.14-9.1-8.7-3.59,3.89-7.88,7.1-12.06,9.18-.37.19-.74.26-1.07.26-1.26,0-2.15-1.07-2.15-2.15,0-.74.37-1.44,1.26-1.89,7.7-3.89,14.17-10.18,17.09-17.35.11-.22.15-.44.15-.59,0-.33-.3-.48-.92-.48l-13.25.26c-1.22,0-1.85-1-1.85-2s.63-2.07,1.81-2.07l14.73-.26Z"/>
          <path class="cls-3" d="M145.35,45.05c1.04-1,2.11-1.48,3.22-1.48,1,0,2,.37,3,1.15l16.36,12.69c.78.63,1.11,1.33,1.11,2.04,0,1.22-1,2.26-2.29,2.26-.56,0-1.18-.22-1.81-.7l-15.06-12.28c-.48-.41-.89-.59-1.26-.59-.41,0-.78.22-1.22.7l-6.7,6.73c-.55.56-1.18.81-1.78.81-1.15,0-2.11-.89-2.11-2,0-.52.22-1.11.74-1.7l7.81-7.62ZM157.79,42.2c0-.74.74-1.41,1.55-1.41.33,0,.7.11,1.04.41,1,.89,2.11,2.07,2.89,3.22.26.33.33.67.33,1,0,.81-.7,1.48-1.48,1.48-.44,0-.89-.22-1.22-.7-.89-1.22-1.89-2.29-2.74-3.15-.26-.3-.37-.59-.37-.85ZM161.45,39.24c0-.74.7-1.37,1.55-1.37.37,0,.74.15,1.11.44.96.81,2.07,1.96,2.85,3.03.3.37.41.74.41,1.11,0,.81-.7,1.41-1.48,1.41-.44,0-.92-.19-1.29-.67-.85-1.07-1.89-2.18-2.74-3.07-.3-.3-.41-.59-.41-.89Z"/>
          <path class="cls-3" d="M194.19,39.09c2.89-.07,4.37,1.18,4.37,3.18,0,.59-.15,1.26-.41,2-1.15,3.07-2.92,6.07-5.07,8.84,3.44,2.33,7.29,5.74,9.92,8.77.48.56.7,1.15.7,1.67,0,1.22-1.15,2.22-2.37,2.22-.59,0-1.26-.26-1.78-.89-2.29-2.78-5.7-6.14-9.1-8.7-3.59,3.89-7.88,7.1-12.06,9.18-.37.19-.74.26-1.07.26-1.26,0-2.15-1.07-2.15-2.15,0-.74.37-1.44,1.26-1.89,7.7-3.89,14.17-10.18,17.1-17.35.11-.22.15-.44.15-.59,0-.33-.3-.48-.92-.48l-13.25.26c-1.22,0-1.85-1-1.85-2s.63-2.07,1.81-2.07l14.73-.26Z"/>
          <path class="cls-3" d="M220.28,47.71c.37-.67,1.04-1.15,1.81-1.15.33,0,.63.07.96.22,2.29,1.04,5.51,2.92,7.84,4.74.74.55,1.04,1.26,1.04,1.92,0,1.18-.92,2.18-2.11,2.18-.48,0-1.04-.15-1.55-.55-2.15-1.63-5.29-3.55-6.92-4.44-.52-.3-.85-.63-1.07-1.04v15.95c0,1.3-1.07,1.92-2.18,1.92s-2.18-.63-2.18-1.92v-28.23c0-1.3,1.11-1.96,2.18-1.96s2.18.67,2.18,1.96v10.4Z"/>
          <path class="cls-3" d="M250.62,49.92c0,1.68-1.38,3.06-3.06,3.06s-3.06-1.38-3.06-3.06,1.38-3.06,3.06-3.06,3.06,1.38,3.06,3.06Z"/>
          <path class="cls-3" d="M7.33,87.65c.07-1.26,1.11-1.85,2.15-1.85,1.15,0,2.26.7,2.15,2.04-.41,5.48-.78,12.51-.78,18.21,0,4.96,1.52,6.29,4.14,6.29,3.44,0,6.66-1.41,10.07-5.62.52-.67,1.18-.93,1.78-.93,1.15,0,2.18.89,2.18,2.04,0,.44-.15.89-.52,1.37-4.22,5.25-8.7,7.25-13.51,7.25-5.51,0-8.44-2.74-8.44-10.43,0-5.88.37-12.91.78-18.35ZM19.25,91.79c0-.74.74-1.41,1.55-1.41.33,0,.7.11,1.04.41,1,.89,2.11,2.07,2.89,3.22.26.33.33.67.33,1,0,.81-.7,1.48-1.48,1.48-.44,0-.89-.22-1.22-.7-.89-1.22-1.89-2.29-2.74-3.15-.26-.3-.37-.59-.37-.85ZM22.91,88.83c0-.74.7-1.37,1.55-1.37.37,0,.74.15,1.11.44.96.81,2.07,1.96,2.85,3.03.3.37.41.74.41,1.11,0,.81-.7,1.41-1.48,1.41-.44,0-.92-.18-1.29-.67-.85-1.07-1.89-2.18-2.74-3.07-.3-.3-.41-.59-.41-.89Z"/>
          <path class="cls-3" d="M48.55,100.53c1.07-.67,2.18-.96,3.37-.96,3.4,0,5.25,2.04,5.51,7.81.19,4.03,1.07,4.59,2.48,4.59,1.67,0,3.07-1.44,4.37-4.81.37-.96,1.18-1.41,2-1.41,1.11,0,2.22.81,2.22,2,0,.26-.04.56-.19.89-1.89,5.11-4.7,7.51-8.7,7.51s-6.22-2.07-6.48-8.4c-.15-3.66-.7-4.44-2.22-4.44-1.96,0-3.96,1.81-5.77,5.59-.81,1.7-1.89,3.96-2.7,5.74-.41.85-1.18,1.26-1.96,1.26-1.11,0-2.22-.78-2.22-1.96,0-.26.07-.52.18-.81,3.26-7.84,7.99-17.87,12.21-25.75.44-.78,1.15-1.11,1.89-1.11,1.18,0,2.33.81,2.33,1.92,0,.3-.07.59-.22.89l-6.18,11.43.07.04Z"/>
          <path class="cls-3" d="M77.97,106.15c-.37,4.88-1.04,7.81-1.92,10.25-.33.89-1.07,1.3-1.81,1.3-.89,0-1.78-.67-1.78-1.7,0-.26.04-.52.15-.81,1.29-3.48,2.11-7.96,2.11-19.76v-6.55c0-2.48.96-3.7,3.92-3.7h2.18c2.96,0,3.96,1.22,3.96,3.7v25.01c0,2.85-1.33,3.85-3.59,3.85-.52,0-1.15-.04-1.78-.11-1.15-.15-1.67-1-1.67-1.89,0-1,.7-2,1.96-1.85.3.04.63.07.89.07.37,0,.56-.15.56-.7v-7.1h-3.18ZM81.15,97.31h-2.85c-.04,1.85-.07,3.74-.15,5.59h3v-5.59ZM81.15,89.61c0-.7-.19-.93-.81-.93h-1.18c-.67,0-.85.22-.85.93v4.44h2.85v-4.44ZM94.21,85.95c0-1.18,1-1.74,2-1.74s2,.55,2,1.74v3.52h7.36c1.04,0,1.55.93,1.55,1.81s-.52,1.81-1.55,1.81h-18.13c-1,0-1.52-.93-1.52-1.81s.52-1.81,1.52-1.81h6.77v-3.52ZM101.09,97.19c2.7,0,4.14,1.18,4.14,4v8.84c0,2.52-1.11,3.85-3.4,3.85-.48,0-1.26-.04-1.67-.11-1.04-.19-1.48-1-1.48-1.85,0-1,.67-2,1.78-1.85.26.04.37.04.48.04.26,0,.37-.11.37-.48v-7.81c0-.85-.22-1.07-1.07-1.07h-2.07v16.13c0,1.04-.96,1.59-1.96,1.59s-1.96-.56-1.96-1.59v-16.13h-1.85c-.85,0-1.07.22-1.07,1.07v10.84c0,1.04-.96,1.55-1.92,1.55s-2-.52-2-1.59v-11.43c0-2.81,1.41-4,4.14-4h2.7v-1.85c0-1.07,1-1.59,1.96-1.59s1.96.52,1.96,1.59v1.85h2.92Z"/>
          <path class="cls-3" d="M112.93,100.6c-.11.19-.22.37-.33.55-.48.81-1.18,1.15-1.85,1.15-.96,0-1.89-.78-1.89-1.81,0-.37.11-.78.37-1.18,2.15-3.55,4-8.73,5-13.84.19-.96,1.07-1.44,1.96-1.44,1.18,0,2.37.81,2.07,2.33-.63,3.11-1.67,6.36-2.89,9.32.78.15,1.44.67,1.44,1.48v20.17c0,1-.96,1.48-1.92,1.48s-1.96-.48-1.96-1.48v-16.73ZM124.22,96.64c2.85,0,3.74,1.15,3.48,4.03-.3,3.33-1.18,6.62-2.52,9.66,2.33,2.44,5.7,3.52,10.51,3.52,2.26,0,5.22-.15,6.99-.3,1.29-.11,2,.85,2,1.85,0,.85-.55,1.74-1.63,1.81-2,.15-4.96.26-7.33.26-5.18,0-9.25-1.11-12.25-3.89-.85,1.41-1.85,2.7-2.96,3.89-.48.52-1,.74-1.52.74-.96,0-1.78-.78-1.78-1.7,0-.48.19-1,.67-1.48,1.29-1.37,2.37-2.85,3.22-4.37-1.15-1.89-2.04-4.18-2.7-6.99-.3-1.29.78-2.04,1.74-2.04.7,0,1.37.37,1.55,1.18.3,1.44.7,2.74,1.18,3.85.63-1.85,1.04-3.85,1.26-5.96.07-.59-.11-.74-.78-.74h-1.96c-1.63,0-2.63-.81-2.63-2.07,0-.48.15-1.07.52-1.67,1.07-1.85,2.04-3.92,2.78-5.7.07-.19.11-.33.11-.44,0-.26-.19-.33-.67-.33h-1.44c-.92,0-1.37-.85-1.37-1.7s.44-1.7,1.37-1.7h2.63c2.18,0,3.37,1.11,3.37,2.85,0,.55-.11,1.15-.37,1.81-.63,1.74-1.52,3.7-2.55,5.55l.07.07h1ZM129.62,90.42c-.85,0-1.26-.74-1.26-1.44,0-.74.41-1.44,1.26-1.44h3.33v-2.07c0-.96.89-1.44,1.74-1.44s1.74.48,1.74,1.44v2.07h2.04c2.52,0,3.48.96,3.48,2.96v1.78h1.29c.81,0,1.22.7,1.22,1.44s-.41,1.44-1.22,1.44h-1.29v1.85c0,2-.96,2.96-3.48,2.96h-2.04v1.89h4.7c.81,0,1.22.74,1.22,1.48s-.41,1.48-1.22,1.48h-4.7v1.85h6.14c.81,0,1.22.74,1.22,1.48s-.41,1.48-1.22,1.48h-6.14v2.04c0,.96-.85,1.44-1.74,1.44s-1.74-.48-1.74-1.44v-2.04h-4.37c-.81,0-1.22-.74-1.22-1.48s.41-1.48,1.22-1.48h4.37v-1.85h-3.07c-.81,0-1.22-.74-1.22-1.48s.41-1.48,1.22-1.48h3.07v-1.89h-3.07c-.85,0-1.26-.74-1.26-1.44,0-.74.41-1.44,1.26-1.44h3.07v-1.92h-4.74c-.81,0-1.22-.74-1.22-1.44,0-.74.41-1.44,1.22-1.44h4.74v-1.85h-3.33ZM136.43,92.27h2.18v-1.15c0-.56-.11-.7-.67-.7h-1.52v1.85ZM137.95,97.08c.55,0,.67-.15.67-.7v-1.22h-2.18v1.92h1.52Z"/>
          <path class="cls-3" d="M162.51,85.02c0-.96.96-1.44,1.96-1.44s1.92.48,1.92,1.44v2.07h12.1c.96,0,1.41.81,1.41,1.63s-.44,1.63-1.41,1.63h-23.16c-1.67,0-2.11.41-2.11,1.74v5.77c0,7.25-1.22,12.95-3.4,17.54-.44.96-1.26,1.37-2,1.37-.96,0-1.81-.67-1.81-1.74,0-.3.07-.63.22-1,1.92-4.18,3.11-9.44,3.11-16.54v-6.07c0-2.96,1.41-4.33,4.96-4.33h8.21v-2.07ZM161.48,110.48c.96,0,1.59.81,1.59,1.67,0,.59-.3,1.22-1.07,1.59-2.22,1.07-4.77,2.11-7.47,2.85-.18.04-.37.07-.55.07-1.07,0-1.7-.85-1.7-1.74,0-.7.41-1.41,1.37-1.67,2.33-.63,4.74-1.48,6.96-2.55.33-.15.63-.22.89-.22ZM155.3,100.19c-.81,0-1.26-.74-1.26-1.44,0-.74.44-1.44,1.26-1.44h8.66v-1.67h-6.33c-.81,0-1.26-.74-1.26-1.44,0-.74.44-1.44,1.26-1.44h6.33v-.63c0-1.04.92-1.52,1.85-1.52s1.85.48,1.85,1.52v.63h5.07c3.07,0,4.11,1.04,4.11,3.48v1.07h2.74c.85,0,1.26.7,1.26,1.44s-.41,1.44-1.26,1.44h-2.74v1.29c0,2.29-1.04,3.29-3.92,3.29h-5.25v.63c1,1.07,2.04,2.04,3.15,2.96,1.26-.78,2.48-1.63,3.77-2.66.44-.33.89-.48,1.3-.48,1.04,0,1.89.85,1.89,1.78,0,.52-.26,1.07-.89,1.52-1,.7-2,1.37-3.03,2,1.67,1.04,3.33,1.85,5,2.52,1.04.41,1.48,1.15,1.48,1.89,0,.96-.74,1.89-1.89,1.89-.3,0-.59-.04-.92-.19-3.63-1.52-7.25-4.03-9.95-6.81l.19,3.52v1.74c0,2.48-1.44,3.37-4.18,3.37-.59,0-1.29-.04-1.92-.15-1.11-.19-1.59-1-1.59-1.81,0-.96.7-1.89,1.92-1.7.44.07.93.11,1.26.11.52,0,.74-.11.74-.67v-9.44h-6.55c-.81,0-1.26-.74-1.26-1.44,0-.74.44-1.44,1.26-1.44h6.55v-1.7h-8.66ZM160.81,107.11c.52.41.7.85.7,1.33,0,.93-.81,1.78-1.78,1.78-.33,0-.7-.11-1.07-.41-.7-.56-1.44-1.07-2.15-1.52-.56-.33-.78-.78-.78-1.26,0-.85.78-1.7,1.78-1.7.26,0,.52.04.81.19.81.37,1.78,1,2.48,1.59ZM173.24,97.31v-.81c0-.67-.22-.85-1.07-.85h-4.51v1.67h5.59ZM167.66,101.89h4.51c.85,0,1.07-.15,1.07-.81v-.89h-5.59v1.7Z"/>
          <path class="cls-3" d="M191.41,102.86c.15.07.3.19.44.26.63-.67,1.29-1.48,1.81-2.22.33-.48.78-.7,1.22-.7.81,0,1.59.67,1.59,1.48,0,.3-.11.63-.37.96-.52.74-1.15,1.48-1.89,2.22.55.41,1.07.85,1.44,1.22.41.44.59.89.59,1.33,0,.93-.74,1.67-1.59,1.67-.41,0-.81-.15-1.22-.56-.59-.63-1.33-1.33-2.04-1.92v10.69c0,.96-.92,1.48-1.89,1.48s-1.89-.52-1.89-1.48v-12.06c-.52.48-1.04.93-1.55,1.33-.48.37-.96.56-1.41.56-1,0-1.81-.81-1.81-1.74,0-.52.26-1.07.85-1.55,3.18-2.41,6.11-6.25,7.36-9.18.07-.18.11-.33.11-.44,0-.26-.19-.37-.67-.37h-5.62c-.92,0-1.37-.85-1.37-1.74s.44-1.7,1.37-1.7h2.59v-4.96c0-.96.96-1.44,1.89-1.44s1.89.48,1.89,1.44v4.96h.89c2.15,0,3.29.96,3.29,2.63,0,.59-.15,1.3-.48,2.07-.89,2.07-2.07,4.11-3.55,6.03v1.74ZM211.69,98.56c2.48,0,3.63,1,3.63,2.85,0,.56-.07,1.15-.3,1.85-.78,2.55-2.07,5.03-3.74,7.25,1.63,1.63,3.48,2.96,5.62,4,.85.41,1.18,1.07,1.18,1.74,0,.96-.81,1.92-1.89,1.92-.3,0-.63-.07-.96-.26-2.29-1.18-4.4-2.78-6.22-4.74-1.96,2.04-4.22,3.77-6.55,4.96-.37.22-.74.3-1.07.3-1.04,0-1.78-.85-1.78-1.74,0-.59.33-1.18,1.07-1.59,2.29-1.22,4.4-2.85,6.1-4.7-.7-1.11-1.37-2.22-1.96-3.4-.78-1.63-1.41-3.33-1.85-5.11h-1.33c-.26,6.62-1.74,11.51-4.26,15.54-.48.78-1.22,1.07-1.89,1.07-.96,0-1.81-.63-1.81-1.59,0-.37.11-.81.41-1.26,2.63-4.14,3.85-8.95,3.85-16.24v-6.18c0-2.74,1.11-3.96,4.18-3.96h3.74v-3.89c0-1.04.92-1.52,1.85-1.52s1.85.48,1.85,1.52v3.89h4.48c2.37,0,3.59,1.15,3.59,2.78,0,.44-.07.96-.3,1.48-.41,1-.92,2-1.37,2.7-.44.7-1.07,1-1.7,1-.96,0-1.85-.7-1.85-1.67,0-.26.07-.55.26-.85.22-.41.44-.78.67-1.29.07-.15.11-.3.11-.37,0-.22-.15-.3-.56-.3h-3.33v5.81h2.11ZM205.88,92.75h-3.03c-.92,0-1.15.22-1.15,1v4.81h4.18v-5.81ZM206.4,101.89c.59,2.04,1.44,3.96,2.59,5.74,1-1.55,1.81-3.22,2.29-4.96.04-.15.07-.26.07-.37,0-.3-.22-.41-.7-.41h-4.25Z"/>
          <path class="cls-3" d="M235.74,101.27h-9.25c-.93,0-1.41-.78-1.41-1.52,0-.78.48-1.52,1.41-1.52h9.25v-1.92h-7.73c-.92,0-1.41-.78-1.41-1.52,0-.78.48-1.52,1.41-1.52h7.73v-.7c0-1.04.96-1.55,1.96-1.55s2,.56,2,1.59v.67h7.66c.96,0,1.41.74,1.41,1.52s-.44,1.52-1.41,1.52h-7.66v1.92h9.58c.96,0,1.41.74,1.41,1.52s-.44,1.52-1.41,1.52h-9.58v1.96h13.58c1,0,1.48.78,1.48,1.59s-.48,1.59-1.48,1.59h-31.01c-.96,0-1.48-.81-1.48-1.59s.52-1.59,1.48-1.59h13.47v-1.96ZM235.7,85.32c0-1.04,1-1.52,2.04-1.52s2,.48,2,1.52v2.18h9.44c3.4,0,4.59,1.07,4.59,3.48v2.41c0,1.04-1,1.55-2.04,1.55s-2.04-.52-2.04-1.55v-1.78c0-.7-.3-1-1.22-1h-21.31c-.93,0-1.22.3-1.22,1v1.92c0,1-1,1.52-2.04,1.52s-2.04-.52-2.04-1.52v-2.55c0-2.41,1.18-3.48,4.59-3.48h9.25v-2.18ZM230.67,117.92c-3.26,0-4.44-1.07-4.44-3.37v-2.92c0-2.29,1.18-3.37,4.44-3.37h14.43c3.22,0,4.44,1.07,4.44,3.37v2.92c-.07,2.85-1.96,3.33-4.44,3.37h-14.43ZM244.36,114.92c1,0,1.26-.22,1.26-.93v-1.85c0-.67-.26-.89-1.26-.89h-12.95c-1,0-1.26.22-1.26.89v1.85c0,.85.52.93,1.26.93h12.95Z"/>
          <path class="cls-3" d="M268.02,91.42c0-1.15.93-1.73,1.86-1.73s1.86.58,1.86,1.73c0,3.58.29,6.78.74,9.38,1.95-.96,4.13-1.82,6.3-2.5.19-.06.38-.1.58-.1.99,0,1.66.9,1.66,1.79,0,.67-.35,1.31-1.18,1.57-2.85.9-6.05,2.21-8.42,3.71-2.75,1.79-3.71,3.55-3.71,5.18,0,1.98,1.31,3.01,6.4,3.01,2.56,0,4.83-.22,6.62-.58,1.38-.26,2.14.74,2.14,1.73,0,.8-.45,1.57-1.44,1.79-2.18.45-4.64.61-7.36.61-6.72,0-10.08-2.05-10.08-6.37,0-2.62,1.22-5.22,5.22-7.94-.7-3.07-1.18-6.88-1.18-11.3Z"/>
          <path class="cls-3" d="M295.15,90.65c1.02,0,2.08.67,1.82,1.92-1.02,4.45-1.7,9.12-1.7,13.22,0,3.55.32,6.94.7,9.5.19,1.18-.83,1.89-1.82,1.89-.83,0-1.63-.45-1.79-1.44-.45-2.66-.74-6.14-.74-9.98,0-4.29.67-9.18,1.76-13.85.19-.86.96-1.25,1.76-1.25ZM310.96,95.32v1.22c1.25-.13,2.43-.32,3.52-.51,1.25-.26,1.92.61,1.92,1.5,0,.74-.45,1.5-1.41,1.7-1.25.26-2.62.45-4,.61.03,2.75.1,5.5.38,8.22,1.76.67,3.58,1.66,5.34,2.98.61.45.86,1.02.86,1.57,0,.9-.74,1.73-1.7,1.73-.38,0-.8-.16-1.22-.48-1.06-.83-2.14-1.54-3.17-2.11-.35,2.66-2.18,4.58-6.14,4.58-3.58,0-5.82-1.79-5.82-4.67,0-2.66,2.14-4.64,6.3-4.64.67,0,1.38.06,2.11.16-.19-2.34-.26-4.67-.29-7.01-1.38.1-2.72.13-3.97.13-.64,0-1.22,0-1.76-.06-.99-.1-1.47-.9-1.47-1.7s.54-1.66,1.66-1.6c.48.03.99.06,1.57.06,1.25,0,2.56-.03,3.94-.13v-4.77c0-.99.83-1.47,1.66-1.47s1.66.48,1.66,1.47v3.23ZM308.11,110.36c-.83-.22-1.6-.35-2.27-.35-2.24,0-2.94.7-2.94,1.63,0,.99.86,1.5,2.46,1.5s2.72-.77,2.75-2.78Z"/>
        </g>
      </g>
      <g>
        <path class="cls-1" d="M134.96,17.87l-.33-2.2h-2.85l-.33,2.2h-3.52l3.1-17.57h4.25l3.2,17.57h-3.52ZM132.24,12.75h1.95l-.97-6.42-.97,6.42Z"/>
        <path class="cls-1" d="M149.44,12.57c0,2.5-.62,5.3-5.62,5.3h-3.57V.3h3.52c4.32,0,5.25,2.57,5.25,4.8,0,1.15-.15,2.47-1.07,3.47,1.22,1.07,1.5,2.67,1.5,4ZM143.94,3.22h-.38v4.17h.38c1.37-.02,1.8-.8,1.8-2.22s-.67-1.95-1.8-1.95ZM143.94,14.95c1.45,0,2.25-.32,2.25-2.32,0-2.32-.97-2.57-2.25-2.57h-.38v4.9h.38Z"/>
        <path class="cls-1" d="M162.71,9.2c0,2.12-.3,8.97-5.77,8.97-5.02,0-5.75-6.82-5.75-9.1,0-2.7.72-9.07,5.75-9.07,5.47,0,5.77,6.97,5.77,9.2ZM159.21,9.25c0-2.02-.22-6.75-2.27-6.75-1.83,0-2.22,3.97-2.22,6.57,0,1.57.25,6.42,2.22,6.42s2.27-4.75,2.27-6.25Z"/>
        <path class="cls-1" d="M171.49.3h3.52v12.3c0,2.9-2.15,5.47-5.27,5.47s-5.27-2.57-5.27-5.47V.3h3.52v12.9c0,.97.78,1.75,1.75,1.75s1.75-.77,1.75-1.75V.3Z"/>
        <path class="cls-1" d="M180.29.3h7.02v2.92h-3.52v14.65h-3.5V3.22h-3.52V.3h3.52Z"/>
      </g>
    </g>
  </g>
</svg>