<?xml version="1.0" encoding="UTF-8"?>
<svg id="Layer_2" xmlns="http://www.w3.org/2000/svg" viewBox="0 0 334.05 154.11">
  <defs>
    <style>
      .cls-1 {
        fill: #bbdd94;
      }

      .cls-2 {
        fill: #381c09;
      }
    </style>
  </defs>
  <g id="content">
    <g>
      <g>
        <path class="cls-1" d="M127.29,9.07c0,1.57.3,6.05,2.22,6.05.9,0,1.92-.27,2.42-1.05l1.57,2.52c-1.07,1.08-2.17,1.55-4,1.55-5.02,0-5.75-6.82-5.75-9.07,0-2.7.72-9.07,5.75-9.07,1.67,0,3.02.5,4,1.5l-1.62,2.72c-.4-.52-1.05-1.35-2.45-1.35-1.83,0-2.15,3.6-2.15,6.2Z"/>
        <path class="cls-1" d="M146.78,9.2c0,2.12-.3,8.97-5.77,8.97-5.02,0-5.75-6.82-5.75-9.1,0-2.7.72-9.07,5.75-9.07,5.47,0,5.77,6.97,5.77,9.2ZM143.28,9.25c0-2.02-.22-6.75-2.27-6.75-1.82,0-2.22,3.97-2.22,6.57,0,1.57.25,6.42,2.22,6.42s2.27-4.75,2.27-6.25Z"/>
        <path class="cls-1" d="M155.56.3h3.52v17.57h-2.85l-4.22-9.07.05,9.07h-3.52V.3h2.9l4.12,9.55V.3Z"/>
        <path class="cls-1" d="M164.36.3h7.02v2.92h-3.52v14.65h-3.5V3.22h-3.52V.3h3.52Z"/>
        <path class="cls-1" d="M180.16,17.87l-.33-2.2h-2.85l-.33,2.2h-3.52l3.1-17.57h4.25l3.2,17.57h-3.52ZM177.43,12.75h1.95l-.97-6.42-.97,6.42Z"/>
        <path class="cls-1" d="M188.96,9.07c0,1.57.3,6.05,2.22,6.05.9,0,1.92-.27,2.42-1.05l1.57,2.52c-1.07,1.08-2.17,1.55-4,1.55-5.02,0-5.75-6.82-5.75-9.07,0-2.7.72-9.07,5.75-9.07,1.67,0,3.02.5,4,1.5l-1.62,2.72c-.4-.52-1.05-1.35-2.45-1.35-1.83,0-2.15,3.6-2.15,6.2Z"/>
        <path class="cls-1" d="M200.46.3h7.02v2.92h-3.52v14.65h-3.5V3.22h-3.52V.3h3.52Z"/>
      </g>
      <g>
        <path class="cls-2" d="M51.34,46.31c-.88,0-1.29-.82-1.29-1.63s.41-1.63,1.26-1.63h3.47v-6.12c0-.92.88-1.36,1.77-1.36s1.73.44,1.73,1.36v6.12h2.62c.88,0,1.29.82,1.29,1.63s-.41,1.63-1.29,1.63h-2.62v2.96c1.33,1.02,2.82,2.41,3.81,3.71.31.37.44.78.44,1.12,0,.85-.78,1.5-1.56,1.5-.44,0-.85-.2-1.19-.65-.44-.61-.95-1.26-1.5-1.84v12.48c0,.99-.88,1.5-1.73,1.5s-1.77-.51-1.77-1.5v-4.69l.1-7.07c-.68,1.8-1.56,3.54-2.48,4.96-.37.58-.88.78-1.36.78-.82,0-1.56-.68-1.56-1.53,0-.31.1-.61.31-.95,1.9-2.82,3.47-6.49,4.62-10.78h-3.06ZM68.47,66.19c-3.2,0-4.52-1.19-4.52-3.88v-21.28c0-2.69,1.33-3.88,4.52-3.88h6.66c3.2,0,4.52,1.19,4.52,3.88v21.28c-.07,3.06-1.7,3.81-4.52,3.88h-6.66ZM75.92,41.65c0-.85-.27-1.16-1.19-1.16h-5.85c-.92,0-1.19.31-1.19,1.16v3.74h8.23v-3.74ZM67.69,53.72h8.23v-5.07h-8.23v5.07ZM74.72,62.86c.92,0,1.19-.31,1.19-1.16v-4.73h-8.23v4.73c0,.88.34,1.12,1.19,1.16h5.85Z"/>
        <path class="cls-2" d="M84.72,44.98c-.88,0-1.36-.85-1.36-1.7s.48-1.7,1.36-1.7h10c.92,0,1.39.85,1.39,1.7s-.48,1.7-1.39,1.7h-10ZM88.43,66.47c-2.55,0-3.4-1.02-3.4-3.09v-4.22c0-2.07.85-3.09,3.4-3.09h3.37c2.52,0,3.37,1.02,3.37,3.09v4.22c-.03,2.35-1.09,3.06-3.37,3.09h-3.37ZM86.56,40.02c-.85,0-1.29-.82-1.29-1.6s.44-1.6,1.29-1.6h6.8c.88,0,1.33.78,1.33,1.6s-.44,1.6-1.33,1.6h-6.8ZM86.56,49.74c-.85,0-1.29-.82-1.29-1.6s.44-1.6,1.29-1.6h6.8c.88,0,1.33.78,1.33,1.6s-.44,1.6-1.33,1.6h-6.8ZM86.56,54.5c-.85,0-1.29-.82-1.29-1.6s.44-1.6,1.29-1.6h6.8c.88,0,1.33.78,1.33,1.6s-.44,1.6-1.33,1.6h-6.8ZM91.08,63.41c.54,0,.71-.17.71-.75v-2.75c0-.58-.17-.78-.71-.78h-1.97c-.54,0-.71.2-.71.78v2.75c0,.54.17.75.71.75h1.97ZM97.91,66.64c-.24.1-.48.17-.68.17-.92,0-1.67-.85-1.67-1.73,0-.51.31-1.09,1.02-1.43,4.86-2.38,6.87-6.12,7-12.61,0-.92.85-1.39,1.73-1.39s1.8.51,1.8,1.46c-.03,1.6-.17,3.09-.48,4.49.17.37.34.75.54,1.09,1.36-1.02,2.52-2.11,3.47-3.3.37-.51.88-.71,1.36-.71.92,0,1.77.71,1.77,1.6,0,.37-.17.78-.54,1.19-1.22,1.36-2.65,2.58-4.32,3.67,1.39,1.6,3.13,2.86,5,3.77.82.41,1.16,1.05,1.16,1.67,0,.95-.78,1.83-1.8,1.83-.27,0-.61-.07-.92-.24-2.96-1.56-5.41-3.77-7.07-6.53-1.53,3.09-4.01,5.41-7.38,7ZM98.59,51.44c-.27.14-.54.2-.78.2-.92,0-1.6-.78-1.6-1.63,0-.54.31-1.09,1.02-1.46,4.56-2.28,6.53-5.3,6.73-11.18.03-1.02.88-1.53,1.73-1.53.92,0,1.8.54,1.77,1.6-.03,1.53-.24,2.92-.58,4.22.2.37.41.71.65,1.05,1.22-1.12,2.31-2.28,3.16-3.5.37-.58.92-.82,1.46-.82.85,0,1.67.65,1.67,1.5,0,.37-.14.75-.48,1.16-1.09,1.43-2.38,2.72-3.91,3.91,1.19,1.05,2.55,1.94,4.21,2.72.85.41,1.19,1.02,1.19,1.63,0,.88-.78,1.73-1.8,1.73-.31,0-.61-.07-.95-.24-2.96-1.56-5-3.2-6.63-5.58-1.5,2.69-3.81,4.73-6.87,6.22ZM100.02,52.87c.85,0,1.7.61,1.7,1.53,0,.14-.03.27-.07.41-.34,1.29-.95,2.48-1.56,3.54-.44.68-1.02.95-1.6.95-.88,0-1.67-.65-1.67-1.56,0-.31.1-.65.31-.99.51-.85.99-1.73,1.36-2.72.27-.82.88-1.16,1.53-1.16ZM100.5,38.69c.85,0,1.67.58,1.67,1.43,0,.17-.03.31-.07.48-.37,1.22-.88,2.31-1.39,3.16-.44.75-1.09,1.05-1.7,1.05-.82,0-1.56-.58-1.56-1.39,0-.31.1-.65.31-.99.51-.85.88-1.63,1.26-2.65.24-.75.88-1.09,1.5-1.09Z"/>
        <path class="cls-2" d="M123.42,55.69c-.85,1.9-1.9,3.71-2.92,4.93-.48.58-1.02.82-1.53.82-.85,0-1.56-.65-1.56-1.5,0-.34.13-.75.44-1.12,1.9-2.35,3.5-5.44,4.73-8.77h-3.5c-.85,0-1.29-.82-1.29-1.6s.44-1.6,1.26-1.6h4.25v-10.17c0-.92.88-1.36,1.77-1.36s1.77.44,1.77,1.36v10.17h3.26c.85,0,1.29.78,1.29,1.6s-.44,1.6-1.29,1.6h-3.26v1.43c1.77,1.09,3.47,2.48,4.15,3.26.41.48.58.92.58,1.36,0,.85-.71,1.53-1.53,1.53-.44,0-.92-.2-1.33-.65-.54-.61-1.19-1.22-1.87-1.8v10.57c0,1.02-.88,1.53-1.77,1.53s-1.77-.51-1.77-1.53v-3.47l.14-6.6ZM122.74,43.69c.2,1.09-.68,1.8-1.53,1.8-.61,0-1.22-.34-1.39-1.12-.2-.85-.58-2.14-.92-2.92-.07-.2-.1-.37-.1-.54,0-.75.71-1.19,1.46-1.19.54,0,1.09.24,1.36.82.44.95.92,2.14,1.12,3.16ZM129.81,39.47c.85,0,1.73.65,1.46,1.7-.27,1.12-.78,2.55-1.29,3.57-.27.51-.78.75-1.26.75-.75,0-1.46-.48-1.46-1.19,0-.17.03-.34.14-.54.41-.92.82-2.11,1.12-3.33.17-.65.71-.95,1.29-.95ZM147.62,53.04c1.16-.27,1.9.78,1.9,1.77,0,.68-.37,1.36-1.19,1.53l-3.09.71v8.46c0,1.05-.92,1.56-1.84,1.56s-1.87-.51-1.87-1.56v-7.65l-7.89,1.8c-1.16.27-1.9-.82-1.9-1.8,0-.68.34-1.36,1.16-1.53l8.63-1.94v-17.34c0-1.05.92-1.56,1.87-1.56s1.84.51,1.84,1.56v16.52l2.38-.54ZM138.65,49.64c.37.41.54.85.54,1.26,0,.95-.85,1.77-1.77,1.77-.44,0-.88-.17-1.29-.58-.78-.75-1.84-1.7-2.65-2.31-.48-.37-.68-.82-.68-1.26,0-.88.85-1.7,1.83-1.7.34,0,.71.1,1.09.37,1.02.71,2.01,1.5,2.92,2.45ZM139.8,42.5c.37.41.54.85.54,1.26,0,.95-.85,1.73-1.77,1.73-.44,0-.92-.17-1.33-.58-.82-.78-1.73-1.6-2.48-2.24-.44-.37-.65-.85-.65-1.26,0-.88.82-1.7,1.8-1.7.34,0,.71.1,1.09.37.95.68,2.01,1.53,2.79,2.41Z"/>
        <path class="cls-2" d="M157.28,41.81c.93,0,1.89.61,1.65,1.74-.93,4.03-1.54,8.27-1.54,11.98,0,3.22.29,6.29.64,8.61.17,1.07-.75,1.71-1.65,1.71-.75,0-1.48-.41-1.62-1.31-.41-2.41-.67-5.57-.67-9.05,0-3.89.61-8.33,1.59-12.56.17-.78.87-1.13,1.6-1.13ZM171.61,46.04v1.1c1.13-.12,2.2-.29,3.19-.46,1.13-.23,1.74.55,1.74,1.36,0,.67-.41,1.36-1.28,1.54-1.13.23-2.38.41-3.63.55.03,2.49.09,4.99.35,7.45,1.6.61,3.25,1.51,4.84,2.7.55.41.78.93.78,1.42,0,.81-.67,1.57-1.54,1.57-.35,0-.73-.14-1.1-.43-.96-.75-1.94-1.39-2.87-1.92-.32,2.41-1.97,4.15-5.57,4.15-3.25,0-5.28-1.62-5.28-4.24,0-2.41,1.94-4.21,5.71-4.21.61,0,1.25.06,1.92.15-.17-2.12-.23-4.24-.26-6.35-1.25.09-2.46.12-3.6.12-.58,0-1.1,0-1.6-.06-.9-.09-1.33-.81-1.33-1.54s.49-1.51,1.51-1.45c.43.03.9.06,1.42.06,1.13,0,2.32-.03,3.57-.12v-4.32c0-.9.75-1.33,1.51-1.33s1.51.44,1.51,1.33v2.93ZM169.03,59.68c-.75-.2-1.45-.32-2.06-.32-2.03,0-2.67.64-2.67,1.48,0,.9.78,1.36,2.23,1.36s2.46-.7,2.49-2.52Z"/>
        <path class="cls-2" d="M186.58,49.94h-4.62c-.88,0-1.36-.82-1.36-1.6s.48-1.6,1.36-1.6h4.62v-2.58c-.31.31-.58.58-.88.85-.48.41-.95.58-1.43.58-.99,0-1.84-.78-1.84-1.67,0-.41.17-.85.58-1.22,1.84-1.67,3.74-4.11,4.9-6.39.34-.61.92-.85,1.5-.85.99,0,1.94.65,1.94,1.6,0,.24-.03.48-.17.75-.24.48-.54.95-.85,1.46h18.8c.92,0,1.36.78,1.36,1.56s-.44,1.56-1.36,1.56h-1.87v4.35h3.77c.92,0,1.36.78,1.36,1.6s-.44,1.6-1.36,1.6h-3.77v4.56h2.45c.92,0,1.36.78,1.36,1.56s-.44,1.56-1.36,1.56h-26.38c-.88,0-1.36-.78-1.36-1.56s.48-1.56,1.36-1.56h3.26v-4.56ZM186.31,58.82c.99,0,1.94.71,1.94,1.73,0,.24-.03.51-.17.78-.71,1.56-1.6,3.16-2.58,4.49-.51.68-1.12.95-1.73.95-1.02,0-1.94-.82-1.94-1.77,0-.34.1-.71.37-1.05.95-1.26,1.87-2.79,2.48-4.08.34-.75.99-1.05,1.63-1.05ZM192.3,46.75v-4.35h-2.31v4.35h2.31ZM192.3,54.5v-4.56h-2.31v4.56h2.31ZM195.42,64.15c.24,1.29-.78,2.04-1.83,2.04-.78,0-1.6-.48-1.8-1.46-.24-1.09-.58-2.52-.92-3.57-.07-.2-.1-.37-.1-.54,0-.99.88-1.6,1.8-1.6.71,0,1.5.41,1.8,1.33.37,1.02.82,2.55,1.05,3.81ZM195.63,46.75h2.41v-4.35h-2.41v4.35ZM195.63,54.5h2.41v-4.56h-2.41v4.56ZM202.8,63.58c.07.24.1.48.1.68,0,1.05-.88,1.67-1.84,1.67-.71,0-1.46-.41-1.77-1.26-.41-1.16-.99-2.55-1.5-3.64-.14-.27-.17-.51-.17-.75,0-.88.82-1.46,1.73-1.46.65,0,1.36.34,1.77,1.05.58,1.05,1.26,2.52,1.67,3.71ZM201.37,46.75h2.48v-4.35h-2.48v4.35ZM201.37,54.5h2.48v-4.56h-2.48v4.56ZM211.1,63.17c.2.37.31.71.31,1.05,0,1.02-.92,1.7-1.9,1.7-.65,0-1.36-.31-1.8-1.05-.71-1.19-1.63-2.58-2.52-3.74-.27-.37-.41-.71-.41-1.05,0-.92.92-1.6,1.9-1.6.58,0,1.16.2,1.6.75,1.02,1.22,2.14,2.79,2.82,3.94Z"/>
        <path class="cls-2" d="M220.42,55.69c-.85,1.9-1.9,3.71-2.92,4.93-.48.58-1.02.82-1.53.82-.85,0-1.56-.65-1.56-1.5,0-.34.14-.75.44-1.12,1.9-2.35,3.5-5.44,4.73-8.77h-3.5c-.85,0-1.29-.82-1.29-1.6s.44-1.6,1.26-1.6h4.25v-10.17c0-.92.88-1.36,1.77-1.36s1.77.44,1.77,1.36v10.17h3.26c.85,0,1.29.78,1.29,1.6s-.44,1.6-1.29,1.6h-3.26v1.43c1.77,1.09,3.47,2.48,4.15,3.26.41.48.58.92.58,1.36,0,.85-.71,1.53-1.53,1.53-.44,0-.92-.2-1.33-.65-.54-.61-1.19-1.22-1.87-1.8v10.57c0,1.02-.88,1.53-1.77,1.53s-1.77-.51-1.77-1.53v-3.47l.14-6.6ZM219.74,43.69c.2,1.09-.68,1.8-1.53,1.8-.61,0-1.22-.34-1.39-1.12-.2-.85-.58-2.14-.92-2.92-.07-.2-.1-.37-.1-.54,0-.75.71-1.19,1.46-1.19.54,0,1.09.24,1.36.82.44.95.92,2.14,1.12,3.16ZM226.81,39.47c.85,0,1.73.65,1.46,1.7-.27,1.12-.78,2.55-1.29,3.57-.27.51-.78.75-1.26.75-.75,0-1.46-.48-1.46-1.19,0-.17.03-.34.14-.54.41-.92.82-2.11,1.12-3.33.17-.65.71-.95,1.29-.95ZM244.62,53.04c1.16-.27,1.9.78,1.9,1.77,0,.68-.37,1.36-1.19,1.53l-3.09.71v8.46c0,1.05-.92,1.56-1.84,1.56s-1.87-.51-1.87-1.56v-7.65l-7.89,1.8c-1.16.27-1.9-.82-1.9-1.8,0-.68.34-1.36,1.16-1.53l8.63-1.94v-17.34c0-1.05.92-1.56,1.87-1.56s1.84.51,1.84,1.56v16.52l2.38-.54ZM235.65,49.64c.37.41.54.85.54,1.26,0,.95-.85,1.77-1.77,1.77-.44,0-.88-.17-1.29-.58-.78-.75-1.84-1.7-2.65-2.31-.48-.37-.68-.82-.68-1.26,0-.88.85-1.7,1.84-1.7.34,0,.71.1,1.09.37,1.02.71,2.01,1.5,2.92,2.45ZM236.8,42.5c.37.41.54.85.54,1.26,0,.95-.85,1.73-1.77,1.73-.44,0-.92-.17-1.33-.58-.82-.78-1.73-1.6-2.48-2.24-.44-.37-.65-.85-.65-1.26,0-.88.82-1.7,1.8-1.7.34,0,.71.1,1.09.37.95.68,2.01,1.53,2.79,2.41Z"/>
        <path class="cls-2" d="M263.31,64.65c-.22,1.69-1.68,2.78-3.38,2.56-1.65-.22-2.78-1.64-2.56-3.34.22-1.65,1.69-2.82,3.34-2.6,1.69.22,2.81,1.73,2.6,3.38ZM260.94,38.22c.22-1.69,1.57-2.51,3.18-2.3,1.57.21,2.62,1.38,2.4,3.04l-.06.43c-1.22,5.68-2.25,11.34-3.36,18-.17,1.02-1,1.55-2.07,1.41-1.06-.14-1.65-.86-1.55-1.88.64-6.72,1.11-12.45,1.39-18.26l.06-.43Z"/>
        <path class="cls-2" d="M115.55,93.93c1.84-.48,3.74-.68,5.81-.68,5.44,0,8.87,2.52,8.87,6.77s-2.96,7.17-7.92,7.89c-1.39.2-2.18-.78-2.18-1.8,0-.78.48-1.56,1.56-1.77,3.33-.58,4.66-2.07,4.66-4.28,0-1.87-1.73-3.47-4.96-3.47-2.11,0-4.05.34-5.85.88v6.05c0,3.54-1.53,4.83-4.69,4.83s-6.36-2.35-6.36-5.3c0-2.48,1.43-5.2,7.38-7.96v-5.71c-1.7.17-3.33.31-4.69.31-1.09.03-1.67-.85-1.67-1.73s.54-1.77,1.67-1.77c1.36-.03,2.99-.14,4.69-.34v-5.17c0-1.12.92-1.67,1.84-1.67s1.84.54,1.84,1.67v4.66c1.16-.2,2.28-.41,3.23-.65.2-.07.41-.07.61-.07,1.12,0,1.8.85,1.8,1.73,0,.71-.44,1.43-1.43,1.67-1.26.31-2.69.61-4.21.85v5.07ZM111.88,98.86c-2.96,1.67-3.57,2.79-3.57,4.11,0,1.09,1.22,1.77,2.48,1.77.99-.03,1.09-.65,1.09-1.5v-4.39ZM131.59,87.17c.58.51.78,1.09.78,1.6,0,1.05-.92,1.94-1.97,1.94-.44,0-.95-.17-1.39-.58-1.16-1.02-2.82-2.24-4.11-2.96-.68-.37-.95-.95-.95-1.53,0-.99.85-2.01,1.94-2.01.31,0,.61.07.92.24,1.56.82,3.47,2.11,4.79,3.3Z"/>
        <path class="cls-2" d="M164.27,81.66c.85,0,1.26.78,1.26,1.56s-.41,1.56-1.26,1.56h-20.4c-1.22,1.73-2.58,3.4-3.88,4.62-.48.44-.99.61-1.46.61-.95,0-1.77-.75-1.77-1.67,0-.41.2-.88.65-1.33,2.07-1.97,4.28-4.93,5.68-7.68.37-.71,1.05-1.02,1.73-1.02.92,0,1.8.58,1.8,1.46,0,.24-.03.51-.2.82-.17.34-.37.71-.58,1.05h18.43ZM155.6,104.03c.61.44.88,1.05.88,1.63,0,.99-.78,1.87-1.8,1.87-.37,0-.82-.14-1.22-.44-1.46-1.12-3.03-2.21-4.62-3.23-2.58,2.21-5.51,4.15-8.53,5.58-.34.17-.65.24-.95.24-.99,0-1.73-.85-1.73-1.73,0-.65.38-1.29,1.22-1.7,2.45-1.16,4.76-2.65,6.8-4.35-1.29-.75-2.58-1.46-3.74-2.01-.71-.34-1.02-.92-1.02-1.46,0-.85.71-1.7,1.77-1.7.31,0,.61.07.95.2,1.5.65,3.13,1.46,4.79,2.41,1.05-1.12,2.01-2.28,2.82-3.43.41-.58.99-.82,1.53-.82.95,0,1.84.71,1.84,1.7,0,.31-.1.68-.34,1.05-.82,1.19-1.7,2.31-2.72,3.4,1.39.88,2.79,1.84,4.08,2.79ZM158.32,90.81c3.13,0,4.21,1.09,4.28,3.64.1,3.6.65,7.41,1.36,9.59.54,1.67.82,1.9,1.05,1.9.27,0,.51-.37.61-1.97.07-.88.75-1.29,1.46-1.29.85,0,1.7.54,1.63,1.53-.31,4.05-1.7,5.61-3.6,5.61-2.04,0-3.47-1.12-4.59-4.56-.85-2.62-1.53-6.56-1.56-10.13,0-.85-.27-1.12-1.5-1.12h-17.64c-.85,0-1.26-.82-1.26-1.6s.41-1.6,1.26-1.6h18.49ZM145.06,89.28c-.82,0-1.26-.75-1.26-1.5s.44-1.5,1.26-1.5h15.16c.85,0,1.26.75,1.26,1.5s-.41,1.5-1.26,1.5h-15.16Z"/>
        <path class="cls-2" d="M174.71,99.82c-2.35,0-3.33-.99-3.33-3.2v-6.05c0-2.21.99-3.2,3.33-3.2h1.26v-1.7h-4.73c-.85,0-1.29-.78-1.29-1.53s.44-1.53,1.29-1.53h4.73v-2.75c0-.88.85-1.33,1.7-1.33s1.7.44,1.7,1.33v2.75h3.91c.88,0,1.33.75,1.33,1.53s-.44,1.53-1.33,1.53h-3.91v1.7h1.33c2.35,0,3.33.99,3.33,3.2v6.05c-.03,2.31-1.05,3.16-3.33,3.2h-1.33v1.77h4.52c.88,0,1.33.78,1.33,1.56s-.44,1.56-1.33,1.56h-4.52v4.49c0,.85-.85,1.29-1.7,1.29s-1.7-.44-1.7-1.29v-4.49h-4.93c-.85,0-1.29-.78-1.29-1.56s.44-1.56,1.29-1.56h4.93v-1.77h-1.26ZM174.91,90.3c-.44,0-.54.14-.54.61v1.29h1.84v-1.9h-1.29ZM174.37,94.92v1.33c0,.44.07.65.54.65h1.29v-1.97h-1.84ZM179.09,92.2h1.9v-1.29c0-.48-.1-.61-.51-.61h-1.39v1.9ZM179.09,96.89h1.39c.41,0,.51-.14.51-.65v-1.33h-1.9v1.97ZM191.3,102.03h-3.91c-.92,0-1.36-.82-1.36-1.6s.44-1.6,1.36-1.6h3.91v-2.65c0-.99.92-1.5,1.8-1.5s1.8.51,1.8,1.5v2.65h4.15c.92,0,1.39.82,1.39,1.6s-.48,1.6-1.39,1.6h-4.15v3.84h5.64c.92,0,1.39.82,1.39,1.63s-.48,1.63-1.39,1.63h-15.5c-.92,0-1.36-.82-1.36-1.63s.44-1.63,1.36-1.63h6.25v-3.84ZM196.09,80.85c2.52,0,3.77,1.05,3.77,2.58,0,.65-.24,1.39-.71,2.21-.82,1.36-1.9,2.65-3.16,3.91,1.43.99,3.06,1.77,4.83,2.38.95.34,1.39,1.02,1.39,1.73,0,.85-.68,1.7-1.73,1.7-.27,0-.58-.07-.88-.17-2.28-.85-4.35-2.01-6.15-3.43-1.97,1.53-4.15,2.82-6.25,3.71-.31.14-.58.17-.85.17-.99,0-1.63-.82-1.63-1.63,0-.58.34-1.16,1.05-1.46,1.9-.78,3.74-1.8,5.34-2.99-1.46-1.67-2.69-3.54-3.54-5.58h-1.05c-.88,0-1.36-.78-1.36-1.56s.48-1.56,1.36-1.56h9.59ZM190.99,83.97c.68,1.29,1.56,2.45,2.55,3.5.95-.92,1.73-1.9,2.31-2.86.1-.14.14-.27.14-.37,0-.17-.17-.27-.51-.27h-4.49Z"/>
        <path class="cls-2" d="M209.76,85.92c.93,0,1.86.61,1.65,1.8-.99,4.76-1.33,8.7-1.33,12.82,0,2.12.26,4.87.52,6.82.15,1.13-.75,1.77-1.65,1.77-.78,0-1.57-.43-1.68-1.42-.26-1.86-.49-4.73-.49-7.17,0-4.32.35-8.24,1.36-13.4.17-.84.9-1.22,1.62-1.22ZM222.93,103.76c1.31,0,2.9-.15,4.38-.44,1.19-.23,1.89.7,1.89,1.6,0,.67-.38,1.36-1.28,1.54-1.71.35-3.42.49-5.02.49-5.37,0-7.6-1.62-7.92-5.13-.09-1.13.81-1.77,1.68-1.77.7,0,1.36.41,1.48,1.25.26,1.8,1.16,2.47,4.79,2.47ZM227.51,90.01c0,.72-.46,1.45-1.48,1.59-2.55.35-5.42.58-8.18.64-1.13.03-1.68-.75-1.68-1.57,0-.75.52-1.54,1.57-1.57,2.7-.06,5.45-.29,7.98-.64,1.16-.12,1.8.7,1.8,1.54Z"/>
        <path class="cls-2" d="M11.05,137.82c1.84-.48,3.74-.68,5.81-.68,5.44,0,8.87,2.52,8.87,6.77s-2.96,7.17-7.92,7.89c-1.39.2-2.18-.78-2.18-1.8,0-.78.48-1.56,1.56-1.77,3.33-.58,4.66-2.07,4.66-4.28,0-1.87-1.73-3.47-4.96-3.47-2.11,0-4.05.34-5.85.88v6.05c0,3.54-1.53,4.83-4.69,4.83s-6.36-2.35-6.36-5.3c0-2.48,1.43-5.2,7.38-7.96v-5.71c-1.7.17-3.33.31-4.69.31-1.09.03-1.67-.85-1.67-1.73s.54-1.77,1.67-1.77c1.36-.03,2.99-.14,4.69-.34v-5.17c0-1.12.92-1.67,1.84-1.67s1.84.54,1.84,1.67v4.66c1.16-.2,2.28-.41,3.23-.65.2-.07.41-.07.61-.07,1.12,0,1.8.85,1.8,1.73,0,.71-.44,1.43-1.43,1.67-1.26.31-2.69.61-4.21.85v5.07ZM7.38,142.75c-2.96,1.67-3.57,2.79-3.57,4.11,0,1.09,1.22,1.77,2.48,1.77.99-.03,1.09-.65,1.09-1.5v-4.39ZM27.09,131.06c.58.51.78,1.09.78,1.6,0,1.05-.92,1.94-1.97,1.94-.44,0-.95-.17-1.39-.58-1.16-1.02-2.82-2.24-4.11-2.96-.68-.37-.95-.95-.95-1.53,0-.99.85-2.01,1.94-2.01.31,0,.61.07.92.24,1.56.82,3.47,2.11,4.79,3.3Z"/>
        <path class="cls-2" d="M36.99,135.88v16.79c0,.95-.92,1.43-1.87,1.43s-1.87-.48-1.87-1.43v-25.09c0-2.48.92-3.77,4.52-3.77h3.54c3.64,0,4.52,1.16,4.52,3.64v4.86c0,1.05-.14,2.21-1.09,2.86-.95.68-2.31.68-3.43.71h-4.32ZM42.19,127.56c0-.68-.24-.85-1.12-.85h-2.99c-.85,0-1.09.17-1.09.85v.99h5.2v-.99ZM41.07,133.06c.88,0,1.12-.17,1.12-.82v-1.02h-5.2v1.83h4.08ZM44.67,148.94c-2.75,0-3.94-1.09-3.94-3.4v-3.33c0-2.31,1.19-3.4,3.94-3.4h5.47c2.75,0,3.94,1.09,3.94,3.4v3.33c-.07,2.65-1.53,3.37-3.94,3.4h-5.47ZM49.57,145.95c.78,0,.99-.24.99-.85v-2.45c0-.61-.21-.85-.99-.85h-4.32c-.78,0-.99.24-.99.85v2.45c0,.68.34.85.99.85h4.32ZM53.38,135.88c-3.64,0-4.52-1.05-4.52-3.57v-4.86c0-2.48.88-3.64,4.52-3.64h3.84c3.6,0,4.52,1.29,4.52,3.77v21.76c0,3.23-1.43,4.45-4.32,4.45-.92,0-1.73-.03-2.52-.17-1.05-.17-1.53-.99-1.53-1.84,0-1.02.71-2.04,2.07-1.84.54.07.92.14,1.46.14.78,0,1.09-.27,1.09-1.09v-13.12h-4.62ZM58,127.56c0-.68-.24-.85-1.09-.85h-3.3c-.88,0-1.12.17-1.12.85v.99h5.51v-.99ZM58,131.23h-5.51v1.02c0,.65.24.82,1.12.82h4.39v-1.83Z"/>
        <path class="cls-2" d="M70.28,126.84c1.05,0,2.07.65,2.01,1.9-.07,1.05-.14,1.87-.14,3.09,0,11.9,2.41,15.03,3.84,15.03.82,0,1.53-.54,2.21-3.09.24-1.02.99-1.46,1.73-1.46.99,0,1.94.71,1.94,1.84,0,.2,0,.37-.07.58-1.26,4.56-3.43,6.22-5.71,6.22-4.93,0-7.92-6.09-7.92-19,0-1.56.07-2.58.14-3.47.1-1.09,1.05-1.63,1.97-1.63ZM95.91,141.26c.07.27.14.51.14.71,0,1.12-.95,1.8-1.9,1.8-.71,0-1.46-.37-1.8-1.29-1.22-3.13-3.43-6.7-5.88-9.25-.41-.41-.58-.85-.58-1.26,0-.95.92-1.73,1.94-1.73.48,0,1.02.2,1.5.65,2.86,2.65,5.44,6.9,6.6,10.37Z"/>
        <path class="cls-2" d="M130.35,134.35c.85.44,1.22,1.16,1.22,1.84,0,.95-.75,1.87-1.84,1.87-.37,0-.78-.1-1.22-.34-4.62-2.48-9.59-6.32-13.19-10.57-3.54,4.28-8.29,8.33-13.16,11.15-.34.2-.68.27-.99.27-.99,0-1.77-.85-1.77-1.8,0-.61.31-1.22,1.05-1.67,5.24-3.06,9.93-7.28,13.36-12.03.44-.61,1.09-.85,1.7-.85.99,0,1.9.65,1.9,1.6,0,.2-.03.37-.13.58,3.33,3.98,8.26,7.58,13.05,9.96ZM109.58,153.36c-3.3,0-4.56-1.19-4.56-3.64v-4.86c0-2.45,1.26-3.64,4.56-3.64h11.97c3.3,0,4.59,1.19,4.59,3.64v4.86c-.07,2.99-1.94,3.57-4.59,3.64h-11.97ZM109.85,137.65c-.92,0-1.39-.82-1.39-1.6s.48-1.6,1.39-1.6h11.18c.95,0,1.39.78,1.39,1.6s-.44,1.6-1.39,1.6h-11.18ZM120.83,150.33c1.22,0,1.5-.31,1.5-1.19v-3.77c0-.88-.27-1.16-1.5-1.16h-10.54c-1.22,0-1.46.27-1.46,1.16v3.77c0,1.05.51,1.16,1.46,1.19h10.54Z"/>
        <path class="cls-2" d="M145.18,135.27c3.26-2.69,6.7-4.04,9.79-4.04,5.07,0,8.53,3.5,8.53,8.19,0,5.81-3.67,9.76-9.59,11.32-.2.03-.37.07-.54.07-1.19,0-1.9-.95-1.9-1.87,0-.78.48-1.56,1.56-1.87,4.39-1.26,6.49-3.54,6.49-7.62,0-2.89-1.8-4.73-4.56-4.73-3.03,0-6.53,1.63-9.86,4.86l-.04,11.73c0,1.05-.92,1.6-1.83,1.6s-1.8-.54-1.8-1.6l.1-7.75-2.96,3.67c-.41.51-.88.71-1.36.71-.95,0-1.84-.82-1.84-1.77,0-.37.14-.75.41-1.09,1.67-2.04,3.77-4.96,5.81-8.23l.07-2.35-3.84.71c-1.22.24-1.94-.78-1.94-1.77,0-.75.44-1.53,1.33-1.67l4.52-.75.07-5.68c.04-1.05.95-1.6,1.84-1.6s1.84.54,1.8,1.6l-.1,5.27c.82.07,1.12.61,1.12,1.09,0,.61-.31,1.16-1.22,2.28l-.07,1.26Z"/>
        <path class="cls-2" d="M191.69,131.43c1.94-.1,3.91-.2,5.85-.31,1.29-.07,1.97.88,1.97,1.84,0,.85-.58,1.73-1.73,1.8-2.04.1-4.08.24-6.12.34-.03,2.11-.17,3.57-.37,4.66-.58,3.2-1.94,4.28-4.76,4.28-.88,0-1.67-.1-2.35-.24-.95-.2-1.43-1.02-1.43-1.8,0-1.02.71-2.01,2.04-1.8.41.1.88.17,1.53.17.78,0,1.12-.31,1.29-1.19.17-.92.27-2.04.31-3.84-3.03.2-6.05.41-9.08.65v.54c0,3.33.07,5.64.2,8.06.17,2.38,1.5,3.47,4.45,3.47,3.33,0,6.15-.27,8.74-.82.17-.03.34-.07.51-.07,1.16,0,1.84.92,1.84,1.87,0,.82-.54,1.67-1.73,1.9-2.79.58-5.64.82-9.38.82-4.96,0-7.96-1.67-8.23-6.73-.14-2.41-.2-4.93-.2-8.4v-.34c-1.84.14-3.67.31-5.51.48-1.29.14-1.94-.82-1.94-1.8,0-.92.58-1.84,1.73-1.94,1.9-.17,3.81-.31,5.71-.48v-5.41c0-1.09.95-1.63,1.9-1.63s1.9.54,1.9,1.63v5.13c3.03-.24,6.08-.41,9.11-.61v-5.85c0-1.16.95-1.7,1.87-1.7s1.87.54,1.87,1.7v5.61Z"/>
        <path class="cls-2" d="M220.11,123.44c1.02,0,2.04.78,2.04,1.9,0,.37-.14.78-.41,1.22-2.07,3.06-5.07,6.8-7.72,9.59-.51.61-.71.95-.71,1.5,0,.58.27.99.82,1.6,3.03,3.2,6.08,7,8.63,10.57.34.51.51.99.51,1.39,0,1.16-1.05,1.97-2.14,1.97-.71,0-1.43-.34-1.9-1.12-2.21-3.4-5.34-7.55-8.06-10.61-1.26-1.36-1.8-2.55-1.8-3.77,0-1.12.37-2.28,1.6-3.54,2.62-2.65,5.44-6.53,7.55-9.79.41-.65,1.02-.92,1.6-.92Z"/>
        <path class="cls-2" d="M239.12,134.59c-1.22.1-1.87-.82-1.87-1.77s.58-1.8,1.73-1.87c1.36-.07,2.99-.27,4.83-.58.31-1.87.44-3.37.65-5.24.1-1.05.99-1.56,1.87-1.56,1.02,0,2.04.68,1.9,1.9-.17,1.63-.34,2.86-.54,4.15.95-.2,1.94-.44,2.92-.68.17-.03.34-.07.51-.07,1.05,0,1.7.88,1.7,1.8,0,.71-.41,1.43-1.33,1.67-1.56.44-3.06.82-4.42,1.12-1.22,6.66-2.86,12.95-4.76,17.88-.41,1.02-1.26,1.5-2.07,1.5-.95,0-1.87-.68-1.87-1.73,0-.31.07-.61.2-.95,1.87-4.62,3.37-10.03,4.55-15.98-1.46.2-2.82.34-4.01.41ZM251.87,144.04c.78,0,1.53.44,1.63,1.43.24,2.18,1.46,2.79,5.17,2.79,1.73,0,3.23-.14,4.59-.34,1.36-.2,2.14.85,2.14,1.87,0,.82-.51,1.63-1.56,1.8-1.46.24-3.16.37-5.1.37-5.85,0-8.53-1.8-8.77-5.98-.07-1.26.92-1.94,1.9-1.94ZM262.1,133.81c1.22,0,1.84.92,1.84,1.84s-.58,1.73-1.73,1.73c-2.72,0-5.88.41-8.29.88-1.29.27-2.11-.71-2.11-1.73,0-.78.48-1.56,1.56-1.8,2.65-.54,6.02-.92,8.74-.92ZM256.56,127.01c0-.68.68-1.29,1.43-1.29.31,0,.65.1.95.37.92.82,1.94,1.9,2.65,2.96.24.31.31.61.31.92,0,.75-.65,1.36-1.36,1.36-.41,0-.82-.2-1.12-.65-.82-1.12-1.73-2.11-2.52-2.89-.24-.27-.34-.54-.34-.78ZM259.93,124.29c0-.68.65-1.26,1.43-1.26.34,0,.68.14,1.02.41.88.75,1.9,1.8,2.62,2.79.27.34.37.68.37,1.02,0,.75-.65,1.29-1.36,1.29-.41,0-.85-.17-1.19-.61-.78-.99-1.73-2.01-2.52-2.82-.27-.27-.37-.54-.37-.82Z"/>
        <path class="cls-2" d="M289.44,139.96c-1.56-1.77-2.75-3.67-3.94-5.95-3.54.65-7.28,1.09-10.5,1.26-1.22.07-1.87-.92-1.87-1.87,0-.82.51-1.67,1.63-1.7,2.86-.14,6.12-.51,9.25-1.02-.68-1.77-1.29-3.54-1.77-5.27-.03-.14-.07-.27-.07-.41,0-1.02,1.02-1.67,2.01-1.67.75,0,1.5.37,1.73,1.29.44,1.73.99,3.6,1.7,5.37,2.58-.54,4.96-1.19,6.83-1.84.24-.1.51-.14.71-.14,1.09,0,1.84.92,1.84,1.84,0,.68-.41,1.36-1.39,1.7-1.8.61-4.05,1.22-6.46,1.73,1.26,2.38,3.03,4.9,5.58,7.65.41.44.58.95.58,1.43,0,1.02-.78,1.94-1.87,1.94-.2,0-.44-.07-.68-.14-2.62-.92-5.13-1.29-7.85-1.29-4.11,0-5.51,1.26-5.51,3.13s1.53,3.23,6.6,3.23c1.39,0,2.48-.07,3.57-.17,1.33-.14,2.04.85,2.04,1.84,0,.82-.51,1.63-1.67,1.77-1.12.14-2.38.2-3.88.2-6.93,0-10.61-2.62-10.61-6.9,0-3.67,2.82-6.39,9.42-6.39,1.84,0,3.2.17,4.56.44l.03-.07Z"/>
        <path class="cls-2" d="M308.28,126.84c1.05,0,2.07.65,2.01,1.9-.07,1.05-.14,1.87-.14,3.09,0,11.9,2.41,15.03,3.84,15.03.82,0,1.53-.54,2.21-3.09.24-1.02.99-1.46,1.73-1.46.99,0,1.94.71,1.94,1.84,0,.2,0,.37-.07.58-1.26,4.56-3.43,6.22-5.71,6.22-4.93,0-7.92-6.09-7.92-19,0-1.56.07-2.58.14-3.47.1-1.09,1.05-1.63,1.97-1.63ZM333.91,141.26c.07.27.14.51.14.71,0,1.12-.95,1.8-1.9,1.8-.71,0-1.46-.37-1.8-1.29-1.22-3.13-3.43-6.7-5.88-9.25-.41-.41-.58-.85-.58-1.26,0-.95.92-1.73,1.94-1.73.48,0,1.02.2,1.5.65,2.86,2.65,5.44,6.9,6.6,10.37Z"/>
      </g>
    </g>
  </g>
</svg>