<?xml version="1.0" encoding="UTF-8"?>
<svg id="Layer_2" xmlns="http://www.w3.org/2000/svg" viewBox="0 0 561.83 129.13">
  <defs>
    <style>
      .cls-1 {
        fill: #bbdd94;
      }

      .cls-2 {
        fill: #381c09;
      }
    </style>
  </defs>
  <g id="content">
    <g>
      <g>
        <path class="cls-1" d="M241.06,9.07c0,1.57.3,6.05,2.22,6.05.9,0,1.92-.27,2.42-1.05l1.57,2.52c-1.07,1.08-2.17,1.55-4,1.55-5.02,0-5.75-6.82-5.75-9.07,0-2.7.72-9.07,5.75-9.07,1.67,0,3.02.5,4,1.5l-1.62,2.72c-.4-.52-1.05-1.35-2.45-1.35-1.82,0-2.15,3.6-2.15,6.2Z"/>
        <path class="cls-1" d="M260.56,9.2c0,2.12-.3,8.97-5.77,8.97-5.02,0-5.75-6.82-5.75-9.1,0-2.7.72-9.07,5.75-9.07,5.47,0,5.77,6.97,5.77,9.2ZM257.06,9.25c0-2.02-.23-6.75-2.27-6.75-1.82,0-2.22,3.97-2.22,6.57,0,1.57.25,6.42,2.22,6.42s2.27-4.75,2.27-6.25Z"/>
        <path class="cls-1" d="M269.34.3h3.52v17.57h-2.85l-4.22-9.07.05,9.07h-3.52V.3h2.9l4.12,9.55V.3Z"/>
        <path class="cls-1" d="M278.14.3h7.02v2.92h-3.52v14.65h-3.5V3.22h-3.52V.3h3.52Z"/>
        <path class="cls-1" d="M293.94,17.87l-.33-2.2h-2.85l-.33,2.2h-3.52l3.1-17.57h4.25l3.2,17.57h-3.52ZM291.21,12.75h1.95l-.97-6.42-.98,6.42Z"/>
        <path class="cls-1" d="M302.74,9.07c0,1.57.3,6.05,2.22,6.05.9,0,1.92-.27,2.42-1.05l1.57,2.52c-1.07,1.08-2.17,1.55-4,1.55-5.02,0-5.75-6.82-5.75-9.07,0-2.7.72-9.07,5.75-9.07,1.67,0,3.02.5,4,1.5l-1.62,2.72c-.4-.52-1.05-1.35-2.45-1.35-1.82,0-2.15,3.6-2.15,6.2Z"/>
        <path class="cls-1" d="M314.24.3h7.02v2.92h-3.52v14.65h-3.5V3.22h-3.52V.3h3.52Z"/>
      </g>
      <g>
        <path class="cls-2" d="M140.89,48.77c-1.07,0-1.56-.98-1.56-1.97s.49-1.97,1.52-1.97h4.18v-7.38c0-1.11,1.07-1.64,2.13-1.64s2.09.53,2.09,1.64v7.38h3.16c1.07,0,1.56.98,1.56,1.97s-.49,1.97-1.56,1.97h-3.16v3.57c1.6,1.23,3.4,2.91,4.59,4.47.37.45.53.94.53,1.35,0,1.02-.94,1.8-1.89,1.8-.53,0-1.03-.25-1.44-.78-.53-.74-1.15-1.52-1.8-2.21v15.05c0,1.19-1.07,1.8-2.09,1.8s-2.13-.62-2.13-1.8v-5.66l.12-8.53c-.82,2.17-1.89,4.26-2.99,5.99-.45.7-1.07.94-1.64.94-.98,0-1.89-.82-1.89-1.84,0-.37.12-.74.37-1.15,2.3-3.4,4.18-7.83,5.58-13h-3.69ZM161.55,72.75c-3.85,0-5.45-1.43-5.45-4.67v-25.67c0-3.24,1.6-4.67,5.45-4.67h8.04c3.85,0,5.45,1.44,5.45,4.67v25.67c-.08,3.69-2.05,4.59-5.45,4.67h-8.04ZM170.53,43.15c0-1.02-.33-1.39-1.44-1.39h-7.05c-1.11,0-1.44.37-1.44,1.39v4.51h9.92v-4.51ZM160.61,57.71h9.92v-6.11h-9.92v6.11ZM169.1,68.74c1.11,0,1.44-.37,1.44-1.39v-5.7h-9.92v5.7c0,1.07.41,1.35,1.44,1.39h7.05Z"/>
        <path class="cls-2" d="M181.15,47.17c-1.07,0-1.64-1.03-1.64-2.05s.57-2.05,1.64-2.05h12.05c1.11,0,1.68,1.03,1.68,2.05s-.57,2.05-1.68,2.05h-12.05ZM185.62,73.08c-3.08,0-4.1-1.23-4.1-3.73v-5.08c0-2.5,1.02-3.73,4.1-3.73h4.06c3.03,0,4.06,1.23,4.06,3.73v5.08c-.04,2.83-1.31,3.69-4.06,3.73h-4.06ZM183.37,41.18c-1.02,0-1.56-.98-1.56-1.93s.53-1.93,1.56-1.93h8.2c1.07,0,1.6.94,1.6,1.93s-.53,1.93-1.6,1.93h-8.2ZM183.37,52.91c-1.02,0-1.56-.98-1.56-1.93s.53-1.93,1.56-1.93h8.2c1.07,0,1.6.94,1.6,1.93s-.53,1.93-1.6,1.93h-8.2ZM183.37,58.65c-1.02,0-1.56-.98-1.56-1.93s.53-1.93,1.56-1.93h8.2c1.07,0,1.6.94,1.6,1.93s-.53,1.93-1.6,1.93h-8.2ZM188.82,69.39c.66,0,.86-.21.86-.9v-3.32c0-.7-.2-.94-.86-.94h-2.38c-.66,0-.86.25-.86.94v3.32c0,.66.2.9.86.9h2.38ZM197.06,73.29c-.29.12-.57.21-.82.21-1.11,0-2.01-1.03-2.01-2.09,0-.62.37-1.31,1.23-1.72,5.86-2.87,8.28-7.38,8.45-15.21,0-1.11,1.02-1.68,2.09-1.68s2.17.61,2.17,1.76c-.04,1.93-.2,3.73-.57,5.41.21.45.41.9.66,1.31,1.64-1.23,3.03-2.54,4.18-3.98.45-.62,1.07-.86,1.64-.86,1.11,0,2.13.86,2.13,1.93,0,.45-.21.94-.66,1.43-1.48,1.64-3.2,3.12-5.21,4.43,1.68,1.93,3.77,3.44,6.03,4.55.98.49,1.39,1.27,1.39,2.01,0,1.15-.94,2.21-2.17,2.21-.33,0-.74-.08-1.11-.29-3.57-1.89-6.52-4.55-8.53-7.87-1.84,3.73-4.84,6.52-8.9,8.45ZM197.88,54.96c-.33.16-.66.25-.94.25-1.11,0-1.93-.94-1.93-1.97,0-.66.37-1.31,1.23-1.76,5.49-2.75,7.87-6.4,8.12-13.49.04-1.23,1.07-1.84,2.09-1.84,1.11,0,2.17.66,2.13,1.93-.04,1.85-.29,3.53-.7,5.08.25.45.49.86.78,1.27,1.48-1.35,2.79-2.75,3.81-4.22.45-.7,1.11-.98,1.76-.98,1.02,0,2.01.78,2.01,1.8,0,.45-.16.9-.57,1.39-1.31,1.72-2.87,3.28-4.72,4.71,1.44,1.27,3.08,2.34,5.08,3.28,1.03.49,1.44,1.23,1.44,1.97,0,1.07-.94,2.09-2.17,2.09-.37,0-.74-.08-1.15-.29-3.57-1.89-6.03-3.85-8-6.72-1.8,3.24-4.59,5.7-8.28,7.5ZM199.6,56.68c1.02,0,2.05.74,2.05,1.85,0,.16-.04.33-.08.49-.41,1.56-1.15,2.99-1.89,4.26-.53.82-1.23,1.15-1.93,1.15-1.07,0-2.01-.78-2.01-1.89,0-.37.12-.78.37-1.19.61-1.02,1.19-2.09,1.64-3.28.33-.98,1.07-1.39,1.85-1.39ZM200.18,39.58c1.03,0,2.01.7,2.01,1.72,0,.21-.04.37-.08.57-.45,1.48-1.07,2.79-1.68,3.81-.53.9-1.31,1.27-2.05,1.27-.98,0-1.89-.7-1.89-1.68,0-.37.12-.78.37-1.19.62-1.03,1.07-1.97,1.52-3.2.29-.9,1.07-1.31,1.8-1.31Z"/>
        <path class="cls-2" d="M227.81,60.08c-1.03,2.3-2.3,4.47-3.53,5.95-.57.7-1.23.98-1.84.98-1.02,0-1.89-.78-1.89-1.8,0-.41.16-.9.53-1.35,2.3-2.83,4.22-6.56,5.7-10.58h-4.22c-1.03,0-1.56-.98-1.56-1.93s.53-1.93,1.52-1.93h5.12v-12.26c0-1.11,1.07-1.64,2.13-1.64s2.13.53,2.13,1.64v12.26h3.94c1.02,0,1.56.94,1.56,1.93s-.53,1.93-1.56,1.93h-3.94v1.72c2.13,1.31,4.18,2.99,5,3.94.49.57.7,1.11.7,1.64,0,1.02-.86,1.84-1.84,1.84-.53,0-1.11-.25-1.6-.78-.66-.74-1.44-1.48-2.25-2.17v12.75c0,1.23-1.07,1.85-2.13,1.85s-2.13-.62-2.13-1.85v-4.18l.16-7.95ZM226.99,45.61c.25,1.31-.82,2.17-1.84,2.17-.74,0-1.48-.41-1.68-1.35-.25-1.02-.7-2.58-1.11-3.53-.08-.25-.12-.45-.12-.66,0-.9.86-1.44,1.76-1.44.66,0,1.31.29,1.64.98.53,1.15,1.11,2.58,1.35,3.81ZM235.52,40.53c1.02,0,2.09.78,1.76,2.05-.33,1.35-.94,3.07-1.56,4.3-.33.62-.94.9-1.52.9-.9,0-1.76-.57-1.76-1.44,0-.21.04-.41.16-.66.49-1.11.98-2.54,1.35-4.02.21-.78.86-1.15,1.56-1.15ZM257,56.89c1.39-.33,2.3.94,2.3,2.13,0,.82-.45,1.64-1.44,1.85l-3.73.86v10.21c0,1.27-1.11,1.89-2.21,1.89s-2.25-.62-2.25-1.89v-9.22l-9.51,2.17c-1.39.33-2.3-.98-2.3-2.17,0-.82.41-1.64,1.39-1.84l10.41-2.34v-20.91c0-1.27,1.11-1.89,2.25-1.89s2.21.62,2.21,1.89v19.93l2.87-.66ZM246.18,52.79c.45.49.66,1.02.66,1.52,0,1.15-1.02,2.13-2.13,2.13-.53,0-1.07-.21-1.56-.7-.94-.9-2.21-2.05-3.2-2.79-.57-.45-.82-.98-.82-1.52,0-1.07,1.02-2.05,2.21-2.05.41,0,.86.12,1.31.45,1.23.86,2.42,1.8,3.53,2.95ZM247.57,44.18c.45.49.66,1.03.66,1.52,0,1.15-1.02,2.09-2.13,2.09-.53,0-1.11-.21-1.6-.7-.98-.94-2.09-1.93-2.99-2.71-.53-.45-.78-1.03-.78-1.52,0-1.07.98-2.05,2.17-2.05.41,0,.86.12,1.31.45,1.15.82,2.42,1.84,3.36,2.91Z"/>
        <path class="cls-2" d="M268.88,42.42c1.15,0,2.34.76,2.05,2.16-1.15,5-1.91,10.26-1.91,14.87,0,4,.36,7.81.79,10.69.22,1.33-.94,2.12-2.05,2.12-.94,0-1.84-.5-2.02-1.62-.5-2.99-.83-6.91-.83-11.23,0-4.82.76-10.33,1.98-15.59.22-.97,1.08-1.4,1.98-1.4ZM286.66,47.68v1.37c1.4-.14,2.74-.36,3.96-.58,1.4-.29,2.16.68,2.16,1.69,0,.83-.5,1.69-1.58,1.91-1.4.29-2.95.5-4.5.68.04,3.1.11,6.19.43,9.25,1.98.76,4.03,1.87,6.01,3.35.68.5.97,1.15.97,1.76,0,1.01-.83,1.94-1.91,1.94-.43,0-.9-.18-1.37-.54-1.19-.94-2.41-1.73-3.56-2.38-.4,2.99-2.45,5.15-6.91,5.15-4.03,0-6.55-2.02-6.55-5.26,0-2.99,2.41-5.22,7.09-5.22.76,0,1.55.07,2.38.18-.22-2.63-.29-5.25-.32-7.88-1.55.11-3.06.14-4.46.14-.72,0-1.37,0-1.98-.07-1.12-.11-1.66-1.01-1.66-1.91s.61-1.87,1.87-1.8c.54.04,1.12.07,1.76.07,1.4,0,2.88-.04,4.43-.14v-5.36c0-1.12.94-1.66,1.87-1.66s1.87.54,1.87,1.66v3.64ZM283.46,64.59c-.94-.25-1.8-.4-2.56-.4-2.52,0-3.31.79-3.31,1.83,0,1.12.97,1.69,2.77,1.69s3.06-.86,3.1-3.13Z"/>
        <path class="cls-2" d="M305.02,53.16h-5.58c-1.07,0-1.64-.98-1.64-1.93s.57-1.93,1.64-1.93h5.58v-3.12c-.37.37-.7.7-1.07,1.03-.57.49-1.15.7-1.72.7-1.19,0-2.21-.94-2.21-2.01,0-.49.21-1.02.7-1.48,2.21-2.01,4.51-4.96,5.9-7.71.41-.74,1.11-1.03,1.8-1.03,1.19,0,2.34.78,2.34,1.93,0,.29-.04.57-.21.9-.29.57-.66,1.15-1.03,1.76h22.67c1.11,0,1.64.94,1.64,1.89s-.53,1.89-1.64,1.89h-2.25v5.25h4.55c1.11,0,1.64.94,1.64,1.93s-.53,1.93-1.64,1.93h-4.55v5.49h2.95c1.11,0,1.64.94,1.64,1.89s-.53,1.89-1.64,1.89h-31.82c-1.07,0-1.64-.94-1.64-1.89s.57-1.89,1.64-1.89h3.94v-5.49ZM304.69,63.86c1.19,0,2.34.86,2.34,2.09,0,.29-.04.62-.21.94-.86,1.89-1.93,3.81-3.12,5.41-.61.82-1.35,1.15-2.09,1.15-1.23,0-2.34-.98-2.34-2.13,0-.41.12-.86.45-1.27,1.15-1.52,2.25-3.36,2.99-4.92.41-.9,1.19-1.27,1.97-1.27ZM311.9,49.3v-5.25h-2.79v5.25h2.79ZM311.9,58.65v-5.49h-2.79v5.49h2.79ZM315.68,70.29c.29,1.56-.94,2.46-2.21,2.46-.94,0-1.93-.57-2.17-1.76-.29-1.31-.7-3.03-1.11-4.31-.08-.25-.12-.45-.12-.66,0-1.19,1.07-1.93,2.17-1.93.86,0,1.8.49,2.17,1.6.45,1.23.98,3.08,1.27,4.59ZM315.92,49.3h2.91v-5.25h-2.91v5.25ZM315.92,58.65h2.91v-5.49h-2.91v5.49ZM324.57,69.6c.08.29.12.57.12.82,0,1.27-1.07,2.01-2.21,2.01-.86,0-1.76-.49-2.13-1.52-.49-1.39-1.19-3.08-1.8-4.39-.16-.33-.21-.62-.21-.9,0-1.07.98-1.76,2.09-1.76.78,0,1.64.41,2.13,1.27.7,1.27,1.52,3.03,2.01,4.47ZM322.85,49.3h2.99v-5.25h-2.99v5.25ZM322.85,58.65h2.99v-5.49h-2.99v5.49ZM334.58,69.1c.25.45.37.86.37,1.27,0,1.23-1.11,2.05-2.3,2.05-.78,0-1.64-.37-2.17-1.27-.86-1.44-1.97-3.12-3.03-4.51-.33-.45-.49-.86-.49-1.27,0-1.11,1.11-1.93,2.3-1.93.7,0,1.39.25,1.93.9,1.23,1.48,2.58,3.36,3.4,4.76Z"/>
        <path class="cls-2" d="M345.81,60.08c-1.03,2.3-2.3,4.47-3.53,5.95-.57.7-1.23.98-1.84.98-1.03,0-1.89-.78-1.89-1.8,0-.41.16-.9.53-1.35,2.3-2.83,4.22-6.56,5.7-10.58h-4.22c-1.03,0-1.56-.98-1.56-1.93s.53-1.93,1.52-1.93h5.12v-12.26c0-1.11,1.07-1.64,2.13-1.64s2.13.53,2.13,1.64v12.26h3.94c1.02,0,1.56.94,1.56,1.93s-.53,1.93-1.56,1.93h-3.94v1.72c2.13,1.31,4.18,2.99,5,3.94.49.57.7,1.11.7,1.64,0,1.02-.86,1.84-1.84,1.84-.53,0-1.11-.25-1.6-.78-.66-.74-1.43-1.48-2.25-2.17v12.75c0,1.23-1.07,1.85-2.13,1.85s-2.13-.62-2.13-1.85v-4.18l.16-7.95ZM344.99,45.61c.25,1.31-.82,2.17-1.84,2.17-.74,0-1.48-.41-1.68-1.35-.25-1.02-.7-2.58-1.11-3.53-.08-.25-.12-.45-.12-.66,0-.9.86-1.44,1.76-1.44.66,0,1.31.29,1.64.98.53,1.15,1.11,2.58,1.35,3.81ZM353.52,40.53c1.03,0,2.09.78,1.76,2.05-.33,1.35-.94,3.07-1.56,4.3-.33.62-.94.9-1.52.9-.9,0-1.76-.57-1.76-1.44,0-.21.04-.41.16-.66.49-1.11.98-2.54,1.35-4.02.21-.78.86-1.15,1.56-1.15ZM375,56.89c1.39-.33,2.3.94,2.3,2.13,0,.82-.45,1.64-1.44,1.85l-3.73.86v10.21c0,1.27-1.11,1.89-2.21,1.89s-2.25-.62-2.25-1.89v-9.22l-9.51,2.17c-1.39.33-2.3-.98-2.3-2.17,0-.82.41-1.64,1.39-1.84l10.42-2.34v-20.91c0-1.27,1.11-1.89,2.25-1.89s2.21.62,2.21,1.89v19.93l2.87-.66ZM364.18,52.79c.45.49.66,1.02.66,1.52,0,1.15-1.03,2.13-2.13,2.13-.53,0-1.07-.21-1.56-.7-.94-.9-2.21-2.05-3.2-2.79-.57-.45-.82-.98-.82-1.52,0-1.07,1.02-2.05,2.21-2.05.41,0,.86.12,1.31.45,1.23.86,2.42,1.8,3.53,2.95ZM365.57,44.18c.45.49.66,1.03.66,1.52,0,1.15-1.03,2.09-2.13,2.09-.53,0-1.11-.21-1.6-.7-.98-.94-2.09-1.93-2.99-2.71-.53-.45-.78-1.03-.78-1.52,0-1.07.98-2.05,2.17-2.05.41,0,.86.12,1.31.45,1.15.82,2.42,1.84,3.36,2.91Z"/>
        <path class="cls-2" d="M397.54,70.19c-.27,2.04-2.03,3.35-4.07,3.08-1.99-.26-3.36-1.98-3.09-4.02.26-1.99,2.04-3.4,4.03-3.14,2.04.27,3.39,2.08,3.13,4.08ZM394.67,38.31c.27-2.04,1.89-3.03,3.84-2.78,1.9.25,3.16,1.67,2.9,3.66l-.07.52c-1.48,6.85-2.71,13.68-4.05,21.71-.21,1.23-1.21,1.87-2.49,1.7s-1.99-1.03-1.87-2.27c.77-8.1,1.34-15.02,1.68-22.02l.07-.52Z"/>
        <path class="cls-2" d="M13.33,109.17c2.21-.57,4.51-.82,7.01-.82,6.56,0,10.7,3.03,10.7,8.16s-3.57,8.65-9.55,9.51c-1.68.25-2.62-.94-2.62-2.17,0-.94.57-1.89,1.89-2.13,4.02-.7,5.62-2.5,5.62-5.17,0-2.25-2.09-4.18-5.99-4.18-2.54,0-4.88.41-7.05,1.07v7.3c0,4.26-1.85,5.82-5.66,5.82s-7.67-2.83-7.67-6.4c0-2.99,1.72-6.27,8.9-9.59v-6.89c-2.05.21-4.02.37-5.66.37-1.31.04-2.01-1.03-2.01-2.09s.66-2.13,2.01-2.13c1.64-.04,3.61-.16,5.66-.41v-6.23c0-1.35,1.11-2.01,2.21-2.01s2.21.66,2.21,2.01v5.62c1.39-.25,2.75-.49,3.9-.78.25-.08.49-.08.74-.08,1.35,0,2.17,1.03,2.17,2.09,0,.86-.53,1.72-1.72,2.01-1.52.37-3.24.74-5.08,1.03v6.11ZM8.9,115.11c-3.57,2.01-4.31,3.36-4.31,4.96,0,1.31,1.48,2.13,2.99,2.13,1.19-.04,1.31-.78,1.31-1.8v-5.29ZM32.68,101.01c.7.62.94,1.31.94,1.93,0,1.27-1.11,2.34-2.38,2.34-.53,0-1.15-.21-1.68-.7-1.39-1.23-3.4-2.71-4.96-3.57-.82-.45-1.15-1.15-1.15-1.84,0-1.19,1.02-2.42,2.34-2.42.37,0,.74.08,1.11.29,1.89.98,4.18,2.54,5.78,3.98Z"/>
        <path class="cls-2" d="M72.08,94.37c1.02,0,1.52.94,1.52,1.89s-.49,1.89-1.52,1.89h-24.6c-1.48,2.09-3.12,4.1-4.67,5.58-.57.53-1.19.74-1.76.74-1.15,0-2.13-.9-2.13-2.01,0-.49.25-1.07.78-1.6,2.5-2.38,5.17-5.95,6.85-9.27.45-.86,1.27-1.23,2.09-1.23,1.11,0,2.17.7,2.17,1.76,0,.29-.04.62-.25.98-.21.41-.45.86-.7,1.27h22.22ZM61.62,121.34c.74.53,1.07,1.27,1.07,1.97,0,1.19-.94,2.25-2.17,2.25-.45,0-.98-.16-1.48-.53-1.76-1.35-3.65-2.67-5.58-3.9-3.12,2.67-6.64,5-10.29,6.72-.41.21-.78.29-1.15.29-1.19,0-2.09-1.03-2.09-2.09,0-.78.45-1.56,1.48-2.05,2.95-1.39,5.74-3.2,8.2-5.25-1.56-.9-3.12-1.76-4.51-2.42-.86-.41-1.23-1.11-1.23-1.76,0-1.03.86-2.05,2.13-2.05.37,0,.74.08,1.15.25,1.8.78,3.77,1.76,5.78,2.91,1.27-1.35,2.42-2.75,3.4-4.14.49-.7,1.19-.98,1.85-.98,1.15,0,2.21.86,2.21,2.05,0,.37-.12.82-.41,1.27-.98,1.43-2.05,2.79-3.28,4.1,1.68,1.07,3.36,2.21,4.92,3.36ZM64.9,105.4c3.77,0,5.08,1.31,5.17,4.39.12,4.35.78,8.94,1.64,11.56.66,2.01.98,2.3,1.27,2.3.33,0,.62-.45.74-2.38.08-1.07.9-1.56,1.76-1.56,1.03,0,2.05.66,1.97,1.84-.37,4.88-2.05,6.76-4.35,6.76-2.46,0-4.18-1.35-5.53-5.49-1.03-3.16-1.85-7.91-1.89-12.22,0-1.02-.33-1.35-1.8-1.35h-21.28c-1.03,0-1.52-.98-1.52-1.93s.49-1.93,1.52-1.93h22.3ZM48.91,103.55c-.98,0-1.52-.9-1.52-1.8s.53-1.8,1.52-1.8h18.29c1.02,0,1.52.9,1.52,1.8s-.49,1.8-1.52,1.8h-18.29Z"/>
        <path class="cls-2" d="M84.67,116.26c-2.83,0-4.02-1.19-4.02-3.85v-7.3c0-2.67,1.19-3.85,4.02-3.85h1.52v-2.05h-5.7c-1.02,0-1.56-.94-1.56-1.85s.53-1.84,1.56-1.84h5.7v-3.32c0-1.07,1.02-1.6,2.05-1.6s2.05.53,2.05,1.6v3.32h4.72c1.07,0,1.6.9,1.6,1.84s-.53,1.85-1.6,1.85h-4.72v2.05h1.6c2.83,0,4.02,1.19,4.02,3.85v7.3c-.04,2.79-1.27,3.81-4.02,3.85h-1.6v2.13h5.45c1.07,0,1.6.94,1.6,1.89s-.53,1.89-1.6,1.89h-5.45v5.41c0,1.02-1.02,1.56-2.05,1.56s-2.05-.53-2.05-1.56v-5.41h-5.95c-1.02,0-1.56-.94-1.56-1.89s.53-1.89,1.56-1.89h5.95v-2.13h-1.52ZM84.91,104.78c-.53,0-.66.16-.66.74v1.56h2.21v-2.3h-1.56ZM84.25,110.36v1.6c0,.53.08.78.66.78h1.56v-2.38h-2.21ZM89.95,107.08h2.3v-1.56c0-.57-.12-.74-.62-.74h-1.68v2.3ZM89.95,112.73h1.68c.49,0,.62-.16.62-.78v-1.6h-2.3v2.38ZM104.67,118.93h-4.72c-1.11,0-1.64-.98-1.64-1.93s.53-1.93,1.64-1.93h4.72v-3.2c0-1.19,1.11-1.8,2.17-1.8s2.17.62,2.17,1.8v3.2h5c1.11,0,1.68.98,1.68,1.93s-.57,1.93-1.68,1.93h-5v4.63h6.81c1.11,0,1.68.98,1.68,1.97s-.57,1.97-1.68,1.97h-18.7c-1.11,0-1.64-.98-1.64-1.97s.53-1.97,1.64-1.97h7.54v-4.63ZM110.45,93.38c3.03,0,4.55,1.27,4.55,3.12,0,.78-.29,1.68-.86,2.67-.98,1.64-2.3,3.2-3.81,4.71,1.72,1.19,3.69,2.13,5.82,2.87,1.15.41,1.68,1.23,1.68,2.09,0,1.02-.82,2.05-2.09,2.05-.33,0-.7-.08-1.07-.21-2.75-1.02-5.25-2.42-7.42-4.14-2.38,1.84-5,3.4-7.54,4.47-.37.16-.7.21-1.02.21-1.19,0-1.97-.98-1.97-1.97,0-.7.41-1.39,1.27-1.76,2.3-.94,4.51-2.17,6.44-3.61-1.76-2.01-3.24-4.26-4.26-6.72h-1.27c-1.07,0-1.64-.94-1.64-1.89s.57-1.89,1.64-1.89h11.56ZM104.3,97.15c.82,1.56,1.89,2.95,3.07,4.22,1.15-1.11,2.09-2.3,2.79-3.44.12-.16.16-.33.16-.45,0-.21-.21-.33-.61-.33h-5.41Z"/>
        <path class="cls-2" d="M127.16,98.61c1.15,0,2.3.76,2.05,2.23-1.22,5.9-1.66,10.8-1.66,15.91,0,2.63.32,6.05.65,8.46.18,1.4-.94,2.2-2.05,2.2-.97,0-1.94-.54-2.09-1.76-.32-2.3-.61-5.87-.61-8.89,0-5.36.43-10.22,1.69-16.63.22-1.04,1.12-1.51,2.02-1.51ZM143.51,120.74c1.62,0,3.6-.18,5.44-.54,1.48-.29,2.34.86,2.34,1.98,0,.83-.47,1.69-1.58,1.91-2.12.43-4.25.61-6.23.61-6.66,0-9.43-2.02-9.83-6.37-.11-1.4,1.01-2.2,2.09-2.2.86,0,1.69.5,1.84,1.55.32,2.23,1.44,3.06,5.94,3.06ZM149.19,103.68c0,.9-.58,1.8-1.84,1.98-3.17.43-6.73.72-10.15.79-1.4.04-2.09-.94-2.09-1.94,0-.94.65-1.91,1.94-1.94,3.35-.07,6.77-.36,9.9-.79,1.44-.14,2.23.86,2.23,1.91Z"/>
        <path class="cls-2" d="M172.33,109.17c2.21-.57,4.51-.82,7.01-.82,6.56,0,10.7,3.03,10.7,8.16s-3.57,8.65-9.55,9.51c-1.68.25-2.62-.94-2.62-2.17,0-.94.57-1.89,1.89-2.13,4.02-.7,5.62-2.5,5.62-5.17,0-2.25-2.09-4.18-5.99-4.18-2.54,0-4.88.41-7.05,1.07v7.3c0,4.26-1.85,5.82-5.66,5.82s-7.67-2.83-7.67-6.4c0-2.99,1.72-6.27,8.9-9.59v-6.89c-2.05.21-4.02.37-5.66.37-1.31.04-2.01-1.03-2.01-2.09s.66-2.13,2.01-2.13c1.64-.04,3.61-.16,5.66-.41v-6.23c0-1.35,1.11-2.01,2.21-2.01s2.21.66,2.21,2.01v5.62c1.39-.25,2.75-.49,3.9-.78.25-.08.49-.08.74-.08,1.35,0,2.17,1.03,2.17,2.09,0,.86-.53,1.72-1.72,2.01-1.52.37-3.24.74-5.08,1.03v6.11ZM167.9,115.11c-3.57,2.01-4.31,3.36-4.31,4.96,0,1.31,1.48,2.13,2.99,2.13,1.19-.04,1.31-.78,1.31-1.8v-5.29ZM191.68,101.01c.7.62.94,1.31.94,1.93,0,1.27-1.11,2.34-2.38,2.34-.53,0-1.15-.21-1.68-.7-1.39-1.23-3.4-2.71-4.96-3.57-.82-.45-1.15-1.15-1.15-1.84,0-1.19,1.02-2.42,2.34-2.42.37,0,.74.08,1.11.29,1.89.98,4.18,2.54,5.78,3.98Z"/>
        <path class="cls-2" d="M203.61,106.83v20.25c0,1.15-1.11,1.72-2.25,1.72s-2.26-.57-2.26-1.72v-30.26c0-2.99,1.11-4.55,5.45-4.55h4.26c4.39,0,5.45,1.39,5.45,4.39v5.86c0,1.27-.16,2.67-1.31,3.44-1.15.82-2.79.82-4.14.86h-5.21ZM209.88,96.79c0-.82-.29-1.02-1.35-1.02h-3.61c-1.02,0-1.31.21-1.31,1.02v1.19h6.27v-1.19ZM208.53,103.43c1.07,0,1.35-.21,1.35-.98v-1.23h-6.27v2.21h4.92ZM212.87,122.58c-3.32,0-4.76-1.31-4.76-4.1v-4.02c0-2.79,1.44-4.1,4.76-4.1h6.6c3.32,0,4.76,1.31,4.76,4.1v4.02c-.08,3.2-1.84,4.06-4.76,4.1h-6.6ZM218.78,118.97c.94,0,1.19-.29,1.19-1.03v-2.95c0-.74-.25-1.02-1.19-1.02h-5.21c-.94,0-1.19.29-1.19,1.02v2.95c0,.82.41,1.03,1.19,1.03h5.21ZM223.37,106.83c-4.39,0-5.45-1.27-5.45-4.31v-5.86c0-2.99,1.07-4.39,5.45-4.39h4.63c4.35,0,5.45,1.56,5.45,4.55v26.24c0,3.9-1.72,5.37-5.21,5.37-1.11,0-2.09-.04-3.03-.21-1.27-.2-1.85-1.19-1.85-2.21,0-1.23.86-2.46,2.5-2.21.66.08,1.11.16,1.76.16.94,0,1.31-.33,1.31-1.31v-15.83h-5.58ZM228.95,96.79c0-.82-.29-1.02-1.31-1.02h-3.98c-1.07,0-1.35.21-1.35,1.02v1.19h6.64v-1.19ZM228.95,101.21h-6.64v1.23c0,.78.29.98,1.35.98h5.29v-2.21Z"/>
        <path class="cls-2" d="M243.75,95.92c1.27,0,2.5.78,2.42,2.3-.08,1.27-.16,2.25-.16,3.73,0,14.35,2.91,18.12,4.63,18.12.98,0,1.85-.66,2.67-3.73.29-1.23,1.19-1.76,2.09-1.76,1.19,0,2.34.86,2.34,2.21,0,.25,0,.45-.08.7-1.52,5.49-4.14,7.5-6.89,7.5-5.94,0-9.55-7.34-9.55-22.92,0-1.89.08-3.12.16-4.18.12-1.31,1.27-1.97,2.38-1.97ZM274.66,113.31c.08.33.16.62.16.86,0,1.35-1.15,2.17-2.3,2.17-.86,0-1.76-.45-2.17-1.56-1.48-3.77-4.14-8.08-7.09-11.15-.49-.49-.7-1.03-.7-1.52,0-1.15,1.11-2.09,2.34-2.09.57,0,1.23.25,1.8.78,3.44,3.2,6.56,8.32,7.95,12.5Z"/>
        <path class="cls-2" d="M316.19,104.99c1.03.53,1.48,1.39,1.48,2.21,0,1.15-.9,2.25-2.21,2.25-.45,0-.94-.12-1.48-.41-5.58-2.99-11.56-7.63-15.91-12.75-4.26,5.17-10,10.04-15.87,13.45-.41.25-.82.33-1.19.33-1.19,0-2.13-1.02-2.13-2.17,0-.74.37-1.48,1.27-2.01,6.31-3.69,11.97-8.77,16.11-14.51.53-.74,1.31-1.03,2.05-1.03,1.19,0,2.3.78,2.3,1.93,0,.25-.04.45-.16.7,4.02,4.8,9.96,9.14,15.74,12.01ZM291.14,127.91c-3.98,0-5.49-1.44-5.49-4.39v-5.86c0-2.95,1.52-4.39,5.49-4.39h14.43c3.98,0,5.54,1.44,5.54,4.39v5.86c-.08,3.61-2.34,4.31-5.54,4.39h-14.43ZM291.47,108.96c-1.11,0-1.68-.98-1.68-1.93s.57-1.93,1.68-1.93h13.49c1.15,0,1.68.94,1.68,1.93s-.53,1.93-1.68,1.93h-13.49ZM304.71,124.26c1.48,0,1.8-.37,1.8-1.43v-4.55c0-1.07-.33-1.39-1.8-1.39h-12.71c-1.48,0-1.76.33-1.76,1.39v4.55c0,1.27.62,1.39,1.76,1.43h12.71Z"/>
        <path class="cls-2" d="M334.07,106.09c3.94-3.24,8.08-4.88,11.81-4.88,6.11,0,10.29,4.22,10.29,9.88,0,7.01-4.43,11.77-11.56,13.65-.25.04-.45.08-.66.08-1.43,0-2.3-1.15-2.3-2.25,0-.94.57-1.89,1.89-2.26,5.29-1.52,7.83-4.26,7.83-9.18,0-3.49-2.17-5.7-5.49-5.7-3.65,0-7.87,1.97-11.89,5.86l-.04,14.15c0,1.27-1.11,1.93-2.21,1.93s-2.17-.66-2.17-1.93l.12-9.35-3.57,4.43c-.49.62-1.07.86-1.64.86-1.15,0-2.21-.98-2.21-2.13,0-.45.16-.9.49-1.31,2.01-2.46,4.55-5.99,7.01-9.92l.08-2.83-4.63.86c-1.48.29-2.34-.94-2.34-2.13,0-.9.53-1.85,1.6-2.01l5.45-.9.08-6.85c.04-1.27,1.15-1.93,2.21-1.93s2.21.66,2.17,1.93l-.12,6.36c.98.08,1.35.74,1.35,1.31,0,.74-.37,1.39-1.48,2.75l-.08,1.52Z"/>
        <path class="cls-2" d="M390.16,101.46c2.34-.12,4.72-.25,7.05-.37,1.56-.08,2.38,1.07,2.38,2.21,0,1.03-.7,2.09-2.09,2.17-2.46.12-4.92.29-7.38.41-.04,2.54-.2,4.3-.45,5.62-.7,3.85-2.34,5.17-5.74,5.17-1.07,0-2.01-.12-2.83-.29-1.15-.25-1.72-1.23-1.72-2.17,0-1.23.86-2.42,2.46-2.17.49.12,1.07.21,1.84.21.94,0,1.35-.37,1.56-1.44.21-1.11.33-2.46.37-4.63-3.65.25-7.3.49-10.95.78v.66c0,4.02.08,6.81.25,9.72.21,2.87,1.8,4.18,5.37,4.18,4.02,0,7.42-.33,10.54-.98.21-.04.41-.08.62-.08,1.39,0,2.21,1.11,2.21,2.26,0,.98-.66,2.01-2.09,2.3-3.36.7-6.81.98-11.32.98-5.99,0-9.59-2.01-9.92-8.12-.16-2.91-.25-5.94-.25-10.13v-.41c-2.21.16-4.43.37-6.64.57-1.56.16-2.34-.98-2.34-2.17,0-1.11.7-2.21,2.09-2.34,2.3-.21,4.59-.37,6.89-.57v-6.52c0-1.31,1.15-1.97,2.3-1.97s2.3.66,2.3,1.97v6.19c3.65-.29,7.34-.49,10.99-.74v-7.05c0-1.39,1.15-2.05,2.25-2.05s2.25.66,2.25,2.05v6.77Z"/>
        <path class="cls-2" d="M424.43,91.82c1.23,0,2.46.94,2.46,2.3,0,.45-.16.94-.49,1.48-2.5,3.69-6.11,8.2-9.31,11.56-.62.74-.86,1.15-.86,1.8,0,.7.33,1.19.98,1.93,3.65,3.85,7.34,8.45,10.41,12.75.41.62.62,1.19.62,1.68,0,1.39-1.27,2.38-2.58,2.38-.86,0-1.72-.41-2.3-1.35-2.67-4.1-6.44-9.1-9.72-12.79-1.52-1.64-2.17-3.08-2.17-4.55,0-1.35.45-2.75,1.93-4.26,3.16-3.2,6.56-7.87,9.1-11.81.49-.78,1.23-1.11,1.93-1.11Z"/>
        <path class="cls-2" d="M447.35,105.27c-1.48.12-2.25-.98-2.25-2.13s.7-2.17,2.09-2.25c1.64-.08,3.61-.33,5.82-.7.37-2.25.53-4.06.78-6.31.12-1.27,1.19-1.89,2.26-1.89,1.23,0,2.46.82,2.3,2.3-.21,1.97-.41,3.44-.66,5,1.15-.25,2.34-.53,3.53-.82.21-.04.41-.08.61-.08,1.27,0,2.05,1.07,2.05,2.17,0,.86-.49,1.72-1.6,2.01-1.89.53-3.69.98-5.33,1.35-1.48,8.04-3.44,15.62-5.74,21.57-.49,1.23-1.52,1.8-2.5,1.8-1.15,0-2.25-.82-2.25-2.09,0-.37.08-.74.25-1.15,2.25-5.58,4.06-12.09,5.49-19.27-1.76.25-3.4.41-4.84.49ZM462.73,116.67c.94,0,1.84.53,1.97,1.72.29,2.62,1.76,3.36,6.23,3.36,2.09,0,3.89-.16,5.54-.41,1.64-.25,2.58,1.03,2.58,2.25,0,.98-.62,1.97-1.89,2.17-1.76.29-3.81.45-6.15.45-7.05,0-10.29-2.17-10.58-7.22-.08-1.52,1.11-2.34,2.3-2.34ZM475.07,104.33c1.48,0,2.21,1.11,2.21,2.21s-.7,2.09-2.09,2.09c-3.28,0-7.09.49-10,1.07-1.56.33-2.54-.86-2.54-2.09,0-.94.57-1.89,1.89-2.17,3.2-.66,7.26-1.11,10.54-1.11ZM468.39,96.13c0-.82.82-1.56,1.72-1.56.37,0,.78.12,1.15.45,1.11.98,2.34,2.3,3.2,3.57.29.37.37.74.37,1.11,0,.9-.78,1.64-1.64,1.64-.49,0-.98-.25-1.35-.78-.98-1.35-2.09-2.54-3.03-3.49-.29-.33-.41-.66-.41-.94ZM472.44,92.85c0-.82.78-1.52,1.72-1.52.41,0,.82.16,1.23.49,1.07.9,2.3,2.17,3.16,3.36.33.41.45.82.45,1.23,0,.9-.78,1.56-1.64,1.56-.49,0-1.02-.21-1.43-.74-.94-1.19-2.09-2.42-3.03-3.4-.33-.33-.45-.66-.45-.98Z"/>
        <path class="cls-2" d="M508.03,111.75c-1.89-2.13-3.32-4.43-4.76-7.18-4.26.78-8.77,1.31-12.67,1.52-1.48.08-2.25-1.11-2.25-2.25,0-.98.62-2.01,1.97-2.05,3.44-.16,7.38-.62,11.15-1.23-.82-2.13-1.56-4.26-2.13-6.36-.04-.16-.08-.33-.08-.49,0-1.23,1.23-2.01,2.42-2.01.9,0,1.8.45,2.09,1.56.53,2.09,1.19,4.35,2.05,6.48,3.12-.66,5.99-1.43,8.24-2.21.29-.12.62-.16.86-.16,1.31,0,2.21,1.11,2.21,2.21,0,.82-.49,1.64-1.68,2.05-2.17.74-4.88,1.48-7.79,2.09,1.52,2.87,3.65,5.9,6.72,9.22.49.53.7,1.15.7,1.72,0,1.23-.94,2.34-2.25,2.34-.25,0-.53-.08-.82-.16-3.16-1.11-6.19-1.56-9.47-1.56-4.96,0-6.64,1.52-6.64,3.77s1.84,3.9,7.95,3.9c1.68,0,2.99-.08,4.3-.21,1.6-.16,2.46,1.02,2.46,2.21,0,.98-.61,1.97-2.01,2.13-1.35.16-2.87.25-4.67.25-8.36,0-12.79-3.16-12.79-8.32,0-4.43,3.4-7.71,11.36-7.71,2.21,0,3.85.21,5.49.53l.04-.08Z"/>
        <path class="cls-2" d="M530.75,95.92c1.27,0,2.5.78,2.42,2.3-.08,1.27-.16,2.25-.16,3.73,0,14.35,2.91,18.12,4.63,18.12.98,0,1.84-.66,2.67-3.73.29-1.23,1.19-1.76,2.09-1.76,1.19,0,2.34.86,2.34,2.21,0,.25,0,.45-.08.7-1.52,5.49-4.14,7.5-6.89,7.5-5.95,0-9.55-7.34-9.55-22.92,0-1.89.08-3.12.16-4.18.12-1.31,1.27-1.97,2.38-1.97ZM561.66,113.31c.08.33.16.62.16.86,0,1.35-1.15,2.17-2.3,2.17-.86,0-1.76-.45-2.17-1.56-1.48-3.77-4.14-8.08-7.09-11.15-.49-.49-.7-1.03-.7-1.52,0-1.15,1.11-2.09,2.34-2.09.57,0,1.23.25,1.8.78,3.44,3.2,6.56,8.32,7.95,12.5Z"/>
      </g>
    </g>
  </g>
</svg>