<?xml version="1.0" encoding="UTF-8"?>
<svg id="Layer_2" xmlns="http://www.w3.org/2000/svg" viewBox="0 0 404.58 73.29">
  <defs>
    <style>
      .cls-1 {
        fill: #bbdd94;
      }

      .cls-2 {
        fill: #ffd085;
      }

      .cls-3 {
        fill: #381c09;
      }

      .cls-4 {
        fill: #fff;
      }

      .cls-5 {
        fill: #fcba95;
      }
    </style>
  </defs>
  <g id="content">
    <g>
      <g>
        <g>
          <path class="cls-3" d="M101.24,40.57c0,1.44,0,2.83.04,4.18,2.83-.21,5.66-.57,8.08-1.11,1.64-.33,2.62.94,2.62,2.21,0,.94-.53,1.89-1.8,2.17-2.58.57-5.66.98-8.77,1.15.21,3.28.37,6.6.78,9.84,3.65,1.11,7.26,2.83,10.46,4.96.86.57,1.19,1.35,1.19,2.09,0,1.27-.98,2.46-2.38,2.46-.53,0-1.11-.16-1.72-.62-2.26-1.56-4.8-2.99-7.38-4.06-.49,4.1-3.73,6.93-9.35,6.93-5.12,0-8.73-2.34-8.73-6.52,0-3.61,3.32-6.64,8.86-6.64,1.39,0,2.83.12,4.31.33-.49-4.8-.9-10.46-.9-17.51v-2.54c0-1.31,1.19-1.93,2.38-1.93s2.34.61,2.34,1.93v2.67ZM97.72,62.42c-1.56-.37-3.12-.57-4.59-.57-2.67,0-3.98.98-3.98,2.42s1.15,2.21,3.85,2.21,4.72-1.56,4.72-4.06Z"/>
          <path class="cls-3" d="M143.8,35.94c1.23,0,2.46.94,2.46,2.3,0,.45-.16.94-.49,1.48-2.5,3.69-6.11,8.2-9.31,11.56-.62.74-.86,1.15-.86,1.8,0,.7.33,1.19.98,1.93,3.65,3.85,7.34,8.45,10.41,12.75.41.62.61,1.19.61,1.68,0,1.39-1.27,2.38-2.58,2.38-.86,0-1.72-.41-2.3-1.35-2.67-4.1-6.44-9.1-9.72-12.79-1.52-1.64-2.17-3.08-2.17-4.55,0-1.35.45-2.75,1.93-4.26,3.16-3.2,6.56-7.87,9.1-11.81.49-.78,1.23-1.11,1.93-1.11Z"/>
          <path class="cls-3" d="M174.76,50.94c.04-1.84.16-3.69.33-5.49-1.89.08-3.69.12-5.29.12-1.35,0-2.01-1.02-2.01-2.09s.66-2.05,2.01-2.05c1.72,0,3.69-.04,5.7-.16.16-1.52.37-3.08.62-4.72.2-1.19,1.23-1.76,2.21-1.76,1.19,0,2.34.78,2.13,2.13-.21,1.39-.41,2.75-.61,4.06,2.99-.25,5.9-.62,8.2-1.03,1.68-.29,2.58.86,2.58,2.01,0,.9-.57,1.85-1.8,2.05-2.71.49-6.07.86-9.47,1.15-.08,1.44-.25,2.91-.33,4.39,1.97-.45,4.02-.66,6.03-.66.16-.53.33-1.07.45-1.64.25-1.02,1.15-1.48,2.05-1.48,1.07,0,2.13.66,2.13,1.8,0,.16-.04.33-.08.53-.12.41-.21.82-.33,1.23,5.66,1.31,8.9,5.54,8.9,10.41,0,5.99-4.1,10.46-10.95,12.14-.21.04-.45.08-.66.08-1.31,0-2.17-1.11-2.17-2.25,0-.86.53-1.76,1.76-2.13,5.21-1.6,7.38-4.26,7.38-7.79,0-2.83-1.84-5.7-5.53-6.72-1.76,4.51-4.35,8.82-8.04,11.97.16.86.33,1.68.53,2.46.04.16.08.37.08.53,0,1.27-1.19,2.01-2.3,2.01-.86,0-1.68-.45-1.97-1.48-.08-.33-.16-.7-.25-1.02-1.76,1.07-3.44,1.43-5.21,1.43-3.49,0-5.78-2.21-5.78-5.9s2.67-8.94,9.68-12.14ZM171.15,64.72c1.23,0,2.42-.37,4.14-1.48-.37-2.67-.57-5.33-.61-8-3.77,2.46-5.25,5.21-5.25,7.54.04,1.31.33,1.89,1.72,1.93ZM183.73,52.71c-1.64.08-3.24.33-4.84.78v.7c0,1.84.12,3.9.33,5.99,1.93-2.21,3.4-4.76,4.51-7.46Z"/>
          <path class="cls-3" d="M220.68,51.27c1.72-.7,3.57-1.02,5.21-1.02,6.4,0,10.58,3.48,10.58,9.18,0,7.17-5.17,11.77-13.16,11.77-5.62,0-9.18-2.87-9.18-6.52,0-3.08,2.05-5.25,5.7-5.25,3.94,0,6.68,2.62,7.87,6.72,2.54-1.23,3.98-3.61,3.98-6.68,0-2.91-2.3-5.25-6.23-5.25-4.14,0-8.16,1.43-13.2,5.33-.57.45-1.19.66-1.72.66-1.27,0-2.3-1.07-2.3-2.25,0-.66.29-1.35,1.03-1.93,4.76-3.69,10.04-9.14,13.86-13.86-2.3.37-5.08.66-8.32.9-1.44.08-2.21-1.07-2.21-2.21,0-1.02.66-2.09,2.01-2.13,3.32-.2,7.67-.7,11.6-1.31,2.01-.29,3.4.98,3.4,2.54,0,.62-.25,1.27-.74,1.93-2.42,3.12-5.54,6.68-8.24,9.27l.08.12ZM219.73,63.08c-.86,0-1.48.7-1.48,1.6,0,1.35,1.56,2.42,4.8,2.42h.33c-.7-2.62-1.93-4.02-3.65-4.02Z"/>
          <path class="cls-3" d="M248.23,38.19c0-1.15,1.03-1.72,2.05-1.72.49,0,1.03.12,1.39.41,2.62-.49,4.92-1.11,7.01-1.85.25-.08.53-.12.78-.12,1.11,0,1.97.94,1.97,1.89,0,.66-.41,1.31-1.43,1.64-1.97.66-4.72,1.31-7.67,1.8v1.39h9.27c.9,0,1.35.82,1.35,1.64s-.45,1.64-1.35,1.64h-2.34v3.07c0,1.03-.98,1.56-2.01,1.56s-2.01-.53-2.01-1.56v-3.07h-3.28c-.53,2.58-1.56,4.84-2.95,6.64-.57.74-1.27,1.07-1.97,1.07-1.11,0-2.05-.86-2.05-1.93,0-.41.12-.86.49-1.31,1.68-2.13,2.75-4.8,2.75-8.36v-2.83ZM269.18,66.89c.21.04.37.08.53.16,2.25.82,5.78,1.76,9.35,2.38,1.15.21,1.68,1.02,1.68,1.89,0,1.07-.86,2.13-2.34,1.84-3.81-.66-7.75-1.8-10.33-2.91-.9-.41-1.27-1.02-1.27-1.68,0-.78.57-1.52,1.48-1.68h-9.63c.94.21,1.56.98,1.56,1.76,0,.61-.37,1.27-1.27,1.68-2.95,1.23-6.81,2.3-10.41,2.91-1.44.29-2.3-.78-2.3-1.85,0-.78.53-1.6,1.68-1.8,3.24-.57,6.56-1.48,9.23-2.5.21-.08.45-.16.7-.21h-1.97c-3.57,0-4.8-1.19-4.8-3.73v-9.27c0-2.54,1.23-3.73,4.8-3.73h7.54c-.61-.33-1.02-.9-1.02-1.6,0-.41.16-.86.53-1.31,1.52-1.8,2.21-3.9,2.21-6.85v-2.21c0-1.15,1.02-1.72,2.01-1.72.62,0,1.19.21,1.56.57,2.95-.53,5.49-1.23,7.83-2.01.25-.08.53-.12.78-.12,1.11,0,1.97.94,1.97,1.89,0,.66-.41,1.31-1.43,1.64-2.21.74-5.33,1.48-8.69,1.97,0,.45,0,.82-.04,1.23h12.3c.9,0,1.35.82,1.35,1.64s-.45,1.64-1.35,1.64h-4.76v3.32c0,1.02-.98,1.56-2.01,1.56s-2.01-.53-2.01-1.56v-3.32h-4.02c-.45,1.76-1.23,3.24-2.21,4.47-.29.37-.62.62-.94.78h6.03c3.57,0,4.84,1.19,4.84,3.73v9.27c-.04,3.16-2.05,3.69-4.84,3.73h-2.3ZM272.13,54.02c0-.74-.16-.9-1.43-.9h-14.02c-1.27,0-1.48.16-1.48.9v.86h16.93v-.86ZM255.2,59.35h16.93v-1.76h-16.93v1.76ZM270.7,63.9c1.27,0,1.43-.16,1.43-.9v-.94h-16.93v.94c0,.98.66.9,1.48.9h14.02Z"/>
          <path class="cls-3" d="M291.97,50.94v20.25c0,1.15-1.11,1.72-2.25,1.72s-2.25-.57-2.25-1.72v-30.26c0-2.99,1.11-4.55,5.45-4.55h4.26c4.39,0,5.45,1.39,5.45,4.39v5.86c0,1.27-.16,2.67-1.31,3.44-1.15.82-2.79.82-4.14.86h-5.21ZM298.25,40.9c0-.82-.29-1.02-1.35-1.02h-3.61c-1.03,0-1.31.2-1.31,1.02v1.19h6.27v-1.19ZM296.89,47.54c1.07,0,1.35-.21,1.35-.98v-1.23h-6.27v2.21h4.92ZM301.24,66.69c-3.32,0-4.76-1.31-4.76-4.1v-4.02c0-2.79,1.44-4.1,4.76-4.1h6.6c3.32,0,4.76,1.31,4.76,4.1v4.02c-.08,3.2-1.84,4.06-4.76,4.1h-6.6ZM307.14,63.08c.94,0,1.19-.29,1.19-1.02v-2.95c0-.74-.25-1.02-1.19-1.02h-5.21c-.94,0-1.19.29-1.19,1.02v2.95c0,.82.41,1.02,1.19,1.02h5.21ZM311.74,50.94c-4.39,0-5.45-1.27-5.45-4.31v-5.86c0-2.99,1.07-4.39,5.45-4.39h4.63c4.35,0,5.45,1.56,5.45,4.55v26.24c0,3.9-1.72,5.37-5.21,5.37-1.11,0-2.09-.04-3.03-.21-1.27-.21-1.85-1.19-1.85-2.21,0-1.23.86-2.46,2.5-2.21.66.08,1.11.16,1.76.16.94,0,1.31-.33,1.31-1.31v-15.83h-5.58ZM317.31,40.9c0-.82-.29-1.02-1.31-1.02h-3.98c-1.07,0-1.35.2-1.35,1.02v1.19h6.64v-1.19ZM317.31,45.33h-6.64v1.23c0,.78.29.98,1.35.98h5.29v-2.21Z"/>
        </g>
        <g>
          <path class="cls-1" d="M192.87.3v2.92h-5.25v5.17h3.75v2.92h-3.75v6.55h-3.52V.3h8.77Z"/>
          <path class="cls-1" d="M201.64,17.87l-.33-2.2h-2.85l-.33,2.2h-3.52l3.1-17.57h4.25l3.2,17.57h-3.52ZM198.92,12.75h1.95l-.97-6.42-.98,6.42Z"/>
          <path class="cls-1" d="M215.92,17.02c.5.67,1.07,1.32,1.45,1.6l-2.37,1.92-1.82-2.4c-.17,0-.33.02-.5.02-5.02,0-5.75-6.82-5.75-9.1,0-2.7.72-9.07,5.75-9.07,5.47,0,5.77,6.97,5.77,9.2,0,1.6-.17,5.75-2.52,7.82ZM212.67,15.5c1.95,0,2.27-4.75,2.27-6.25,0-2.02-.23-6.75-2.27-6.75-1.82,0-2.22,3.97-2.22,6.57,0,1.57.25,6.42,2.22,6.42Z"/>
        </g>
      </g>
      <g>
        <g>
          <path class="cls-5" d="M342.58,40.79c-1.62-6.75,1.86-13.53,7.95-16.3,2.23-6.97,7.94-12.63,15.58-14.46,5.75-1.38,11.52-.33,16.21,2.5.27-.08.54-.16.81-.22,7.66-1.84,15.35,2.88,17.19,10.53.54,2.25.51,4.5.01,6.61,1.69,2.23,2.96,4.84,3.66,7.74,2.69,11.22-4.22,22.49-15.43,25.18-.27.07-.55.12-.82.18-2.42,3.15-5.9,5.53-10.07,6.53-6.97,1.67-13.97-.95-18.2-6.17-6.27-1.46-11.5-6.33-13.11-13.02-.23-.94-.37-1.88-.44-2.81-1.58-1.72-2.75-3.86-3.34-6.29Z"/>
          <polygon class="cls-5" points="355.51 56.88 355.69 67.48 365.68 63.11 355.51 56.88"/>
        </g>
        <path class="cls-4" d="M373.47,53.91c-.56,1.91-2.45,2.91-4.36,2.34s-2.92-2.41-2.36-4.32,2.46-2.95,4.33-2.4c1.91.56,2.94,2.51,2.39,4.38ZM375.23,23.91c.55-1.87,2.29-2.52,4.07-2s2.79,2.03,2.25,3.85l-.13.45c-2.39,6.16-4.59,12.33-6.98,19.61-.37,1.1-1.43,1.56-2.63,1.21s-1.75-1.29-1.47-2.41c1.94-7.41,3.43-13.79,4.75-20.27l.13-.45Z"/>
      </g>
      <g>
        <path class="cls-2" d="M.38,42.9C-2.28,27.63,9.28,12.85,26.22,9.9c16.94-2.96,32.83,7.02,35.5,22.29,2.28,13.04-5.83,25.72-18.8,30.99-.66.36-.62.95-.52,1.47l.8,4.58c.07.4-.01.58-.67.12-.48-.34-3.51-2.16-7.35-4.04C18.5,67.87,3.01,57.95.38,42.9Z"/>
        <path class="cls-4" d="M35.5,45.44c.26,1.38-.34,2.26-1.65,2.59s-2.38-.26-2.7-1.53l-.24-.95c-.9-3.53-.49-5.9,2.34-9.51,2.18-2.77,2.46-4.34,1.88-6.6-.73-2.85-3.08-3.94-6.11-3.16-2.62.67-4.5,2.4-5.62,5.53-.26.69-.76,1.16-1.49,1.34-1.4.36-2.99-.39-3.3-1.61-.13-.5-.05-1.14.22-1.79,1.44-3.79,4.98-6.72,9.33-7.82,6.11-1.56,10.92.68,12.3,6.11.97,3.8.29,6.43-2.72,9.94-2.64,3.08-2.87,4.44-2.43,6.55l.19.92ZM38.86,53.11c.5,1.95-.63,3.77-2.57,4.27s-3.76-.58-4.26-2.53.62-3.82,2.52-4.3,3.83.66,4.32,2.56Z"/>
      </g>
    </g>
  </g>
</svg>