<?xml version="1.0" encoding="UTF-8"?>
<svg id="Layer_2" xmlns="http://www.w3.org/2000/svg" viewBox="0 0 214.38 139.54">
  <defs>
    <style>
      .cls-1 {
        fill: #bbdd94;
      }

      .cls-2 {
        fill: #ffd085;
      }

      .cls-3 {
        fill: #381c09;
      }

      .cls-4 {
        fill: #fff;
      }

      .cls-5 {
        fill: #fcba95;
      }
    </style>
  </defs>
  <g id="content">
    <g>
      <g>
        <path class="cls-3" d="M15.32,110.01c0,1.29,0,2.55.04,3.77,2.55-.19,5.11-.52,7.29-1,1.48-.3,2.37.85,2.37,2,0,.85-.48,1.7-1.63,1.96-2.33.52-5.11.89-7.92,1.04.19,2.96.33,5.96.7,8.88,3.29,1,6.55,2.55,9.44,4.48.78.52,1.07,1.22,1.07,1.89,0,1.15-.89,2.22-2.15,2.22-.48,0-1-.15-1.55-.55-2.04-1.41-4.33-2.7-6.66-3.66-.44,3.7-3.37,6.25-8.44,6.25-4.62,0-7.88-2.11-7.88-5.88,0-3.26,3-5.99,7.99-5.99,1.26,0,2.55.11,3.88.3-.44-4.33-.81-9.44-.81-15.8v-2.29c0-1.18,1.07-1.74,2.15-1.74s2.11.56,2.11,1.74v2.41ZM12.14,129.73c-1.41-.33-2.81-.52-4.14-.52-2.4,0-3.59.89-3.59,2.18s1.04,2,3.48,2,4.26-1.41,4.26-3.66Z"/>
        <path class="cls-3" d="M53.72,105.83c1.11,0,2.22.85,2.22,2.07,0,.41-.15.85-.44,1.33-2.26,3.33-5.51,7.4-8.4,10.44-.55.67-.78,1.04-.78,1.63,0,.63.3,1.07.89,1.74,3.29,3.48,6.62,7.62,9.4,11.51.37.55.55,1.07.55,1.52,0,1.26-1.15,2.15-2.33,2.15-.78,0-1.55-.37-2.07-1.22-2.41-3.7-5.81-8.21-8.77-11.54-1.37-1.48-1.96-2.78-1.96-4.11,0-1.22.41-2.48,1.74-3.85,2.85-2.89,5.92-7.1,8.21-10.66.44-.7,1.11-1,1.74-1Z"/>
        <path class="cls-3" d="M81.66,119.37c.04-1.67.15-3.33.3-4.96-1.7.07-3.33.11-4.77.11-1.22,0-1.81-.93-1.81-1.89s.59-1.85,1.81-1.85c1.55,0,3.33-.04,5.14-.15.15-1.37.33-2.78.56-4.25.18-1.07,1.11-1.59,2-1.59,1.07,0,2.11.7,1.92,1.92-.19,1.26-.37,2.48-.55,3.66,2.7-.22,5.33-.55,7.4-.92,1.52-.26,2.33.78,2.33,1.81,0,.81-.52,1.67-1.63,1.85-2.44.44-5.48.78-8.55,1.04-.07,1.29-.22,2.63-.3,3.96,1.78-.41,3.63-.59,5.44-.59.15-.48.3-.96.41-1.48.22-.92,1.04-1.33,1.85-1.33.96,0,1.92.59,1.92,1.63,0,.15-.04.3-.07.48-.11.37-.19.74-.3,1.11,5.11,1.18,8.03,5,8.03,9.4,0,5.4-3.7,9.44-9.88,10.95-.19.04-.41.07-.59.07-1.18,0-1.96-1-1.96-2.04,0-.78.48-1.59,1.59-1.92,4.7-1.44,6.66-3.85,6.66-7.03,0-2.55-1.67-5.14-5-6.07-1.59,4.07-3.92,7.96-7.25,10.8.15.78.29,1.52.48,2.22.04.15.07.33.07.48,0,1.15-1.07,1.81-2.07,1.81-.78,0-1.52-.41-1.78-1.33-.07-.3-.15-.63-.22-.92-1.59.96-3.11,1.29-4.7,1.29-3.15,0-5.22-2-5.22-5.33s2.41-8.07,8.73-10.95ZM78.4,131.81c1.11,0,2.18-.33,3.74-1.33-.33-2.41-.52-4.81-.55-7.22-3.4,2.22-4.74,4.7-4.74,6.81.04,1.18.29,1.7,1.55,1.74ZM89.76,120.96c-1.48.07-2.92.3-4.37.7v.63c0,1.67.11,3.51.3,5.4,1.74-2,3.07-4.29,4.07-6.73Z"/>
        <path class="cls-3" d="M123.1,119.67c1.55-.63,3.22-.93,4.7-.93,5.77,0,9.55,3.15,9.55,8.29,0,6.48-4.66,10.62-11.88,10.62-5.07,0-8.29-2.59-8.29-5.88,0-2.78,1.85-4.74,5.14-4.74,3.55,0,6.03,2.37,7.1,6.07,2.29-1.11,3.59-3.26,3.59-6.03,0-2.63-2.07-4.74-5.62-4.74-3.74,0-7.36,1.29-11.91,4.81-.52.41-1.07.59-1.55.59-1.15,0-2.07-.96-2.07-2.04,0-.59.26-1.22.92-1.74,4.29-3.33,9.07-8.25,12.51-12.51-2.07.33-4.59.59-7.51.81-1.29.07-2-.96-2-2,0-.92.59-1.89,1.81-1.92,3-.18,6.92-.63,10.47-1.18,1.81-.26,3.07.89,3.07,2.29,0,.55-.22,1.15-.67,1.74-2.18,2.81-5,6.03-7.44,8.36l.07.11ZM122.25,130.33c-.78,0-1.33.63-1.33,1.44,0,1.22,1.41,2.18,4.33,2.18h.3c-.63-2.37-1.74-3.63-3.29-3.63Z"/>
        <path class="cls-3" d="M147.96,107.86c0-1.04.93-1.55,1.85-1.55.44,0,.92.11,1.26.37,2.37-.44,4.44-1,6.33-1.67.22-.07.48-.11.7-.11,1,0,1.78.85,1.78,1.7,0,.59-.37,1.18-1.29,1.48-1.78.59-4.25,1.18-6.92,1.63v1.26h8.36c.81,0,1.22.74,1.22,1.48s-.41,1.48-1.22,1.48h-2.11v2.77c0,.93-.89,1.41-1.81,1.41s-1.81-.48-1.81-1.41v-2.77h-2.96c-.48,2.33-1.41,4.37-2.66,5.99-.52.67-1.15.96-1.78.96-1,0-1.85-.78-1.85-1.74,0-.37.11-.78.44-1.18,1.52-1.92,2.48-4.33,2.48-7.55v-2.55ZM166.87,133.77c.18.04.33.07.48.15,2.04.74,5.22,1.59,8.44,2.15,1.04.19,1.52.92,1.52,1.7,0,.96-.78,1.92-2.11,1.67-3.44-.59-6.99-1.63-9.32-2.63-.81-.37-1.15-.92-1.15-1.52,0-.7.52-1.37,1.33-1.52h-8.7c.85.18,1.41.89,1.41,1.59,0,.56-.33,1.15-1.15,1.52-2.66,1.11-6.14,2.07-9.4,2.63-1.29.26-2.07-.7-2.07-1.67,0-.7.48-1.44,1.52-1.63,2.92-.52,5.92-1.33,8.33-2.26.18-.07.41-.15.63-.18h-1.78c-3.22,0-4.33-1.07-4.33-3.37v-8.36c0-2.29,1.11-3.37,4.33-3.37h6.81c-.55-.3-.92-.81-.92-1.44,0-.37.15-.78.48-1.18,1.37-1.63,2-3.51,2-6.18v-2c0-1.04.93-1.55,1.81-1.55.55,0,1.07.19,1.41.52,2.66-.48,4.96-1.11,7.07-1.81.22-.07.48-.11.7-.11,1,0,1.78.85,1.78,1.7,0,.59-.37,1.18-1.3,1.48-2,.67-4.81,1.33-7.84,1.78,0,.41,0,.74-.04,1.11h11.1c.81,0,1.22.74,1.22,1.48s-.41,1.48-1.22,1.48h-4.29v3c0,.92-.89,1.41-1.81,1.41s-1.81-.48-1.81-1.41v-3h-3.63c-.41,1.59-1.11,2.92-2,4.03-.26.33-.55.55-.85.7h5.44c3.22,0,4.37,1.07,4.37,3.37v8.36c-.04,2.85-1.85,3.33-4.37,3.37h-2.07ZM169.54,122.15c0-.67-.15-.81-1.3-.81h-12.65c-1.15,0-1.33.15-1.33.81v.78h15.28v-.78ZM154.25,126.96h15.28v-1.59h-15.28v1.59ZM168.24,131.07c1.15,0,1.3-.15,1.3-.81v-.85h-15.28v.85c0,.89.59.81,1.33.81h12.65Z"/>
        <path class="cls-3" d="M187.44,119.37v18.28c0,1.04-1,1.55-2.04,1.55s-2.04-.52-2.04-1.55v-27.31c0-2.7,1-4.11,4.92-4.11h3.85c3.96,0,4.92,1.26,4.92,3.96v5.29c0,1.15-.15,2.41-1.18,3.11-1.04.74-2.52.74-3.74.78h-4.7ZM193.1,110.31c0-.74-.26-.92-1.22-.92h-3.26c-.93,0-1.18.18-1.18.92v1.07h5.66v-1.07ZM191.88,116.3c.96,0,1.22-.18,1.22-.89v-1.11h-5.66v2h4.44ZM195.8,133.58c-3,0-4.29-1.18-4.29-3.7v-3.63c0-2.52,1.29-3.7,4.29-3.7h5.96c3,0,4.29,1.18,4.29,3.7v3.63c-.07,2.89-1.67,3.66-4.29,3.7h-5.96ZM201.13,130.33c.85,0,1.07-.26,1.07-.92v-2.66c0-.67-.22-.93-1.07-.93h-4.7c-.85,0-1.07.26-1.07.93v2.66c0,.74.37.92,1.07.92h4.7ZM205.28,119.37c-3.96,0-4.92-1.15-4.92-3.88v-5.29c0-2.7.96-3.96,4.92-3.96h4.18c3.92,0,4.92,1.41,4.92,4.11v23.68c0,3.52-1.55,4.85-4.7,4.85-1,0-1.89-.04-2.74-.19-1.15-.18-1.67-1.07-1.67-2,0-1.11.78-2.22,2.26-2,.59.07,1,.15,1.59.15.85,0,1.18-.3,1.18-1.18v-14.28h-5.03ZM210.31,110.31c0-.74-.26-.92-1.18-.92h-3.59c-.96,0-1.22.18-1.22.92v1.07h6v-1.07ZM210.31,114.3h-6v1.11c0,.7.26.89,1.22.89h4.77v-2Z"/>
      </g>
      <g>
        <path class="cls-1" d="M97.1,72.92v2.92h-5.25v5.17h3.75v2.92h-3.75v6.55h-3.52v-17.57h8.77Z"/>
        <path class="cls-1" d="M105.87,90.49l-.33-2.2h-2.85l-.33,2.2h-3.52l3.1-17.57h4.25l3.2,17.57h-3.52ZM103.15,85.37h1.95l-.97-6.42-.97,6.42Z"/>
        <path class="cls-1" d="M120.15,89.64c.5.68,1.08,1.33,1.45,1.6l-2.37,1.92-1.82-2.4c-.18,0-.33.03-.5.03-5.02,0-5.75-6.82-5.75-9.1,0-2.7.72-9.07,5.75-9.07,5.47,0,5.77,6.97,5.77,9.2,0,1.6-.18,5.75-2.52,7.82ZM116.9,88.12c1.95,0,2.27-4.75,2.27-6.25,0-2.02-.22-6.75-2.27-6.75-1.83,0-2.22,3.97-2.22,6.57,0,1.57.25,6.42,2.22,6.42Z"/>
      </g>
      <g>
        <g>
          <g>
            <path class="cls-5" d="M111.63,31.36c-1.62-6.75,1.86-13.53,7.95-16.3,2.23-6.97,7.94-12.63,15.58-14.46,5.75-1.38,11.52-.33,16.21,2.5.27-.08.54-.16.81-.22,7.66-1.84,15.35,2.88,17.19,10.53.54,2.25.51,4.5.01,6.61,1.69,2.23,2.96,4.84,3.66,7.74,2.69,11.22-4.22,22.49-15.43,25.18-.27.07-.55.12-.82.18-2.42,3.15-5.9,5.53-10.07,6.53-6.97,1.67-13.97-.95-18.2-6.17-6.27-1.46-11.5-6.33-13.11-13.02-.23-.94-.37-1.88-.44-2.81-1.58-1.72-2.75-3.86-3.34-6.29Z"/>
            <polygon class="cls-5" points="124.55 47.46 124.73 58.06 134.72 53.69 124.55 47.46"/>
          </g>
          <path class="cls-4" d="M142.52,44.48c-.56,1.91-2.45,2.91-4.36,2.34s-2.92-2.41-2.36-4.32c.55-1.87,2.46-2.95,4.33-2.4,1.91.56,2.94,2.51,2.39,4.38ZM144.28,14.49c.55-1.87,2.29-2.52,4.07-2s2.79,2.03,2.25,3.85l-.13.45c-2.39,6.16-4.59,12.33-6.98,19.61-.37,1.1-1.43,1.56-2.63,1.21-1.2-.35-1.75-1.29-1.47-2.41,1.94-7.41,3.43-13.79,4.75-20.27l.13-.45Z"/>
        </g>
        <g>
          <path class="cls-2" d="M39.51,33.52c-2.67-15.27,8.9-30.04,25.84-33,16.94-2.96,32.83,7.02,35.5,22.29,2.28,13.04-5.83,25.72-18.8,30.99-.66.36-.62.95-.52,1.47l.8,4.58c.07.4-.01.58-.67.12-.48-.34-3.51-2.16-7.35-4.04-16.67,2.56-32.16-7.35-34.79-22.41Z"/>
          <path class="cls-4" d="M74.63,36.06c.26,1.38-.34,2.26-1.65,2.59s-2.38-.26-2.7-1.53l-.24-.95c-.9-3.53-.49-5.9,2.34-9.51,2.18-2.77,2.46-4.34,1.88-6.6-.73-2.85-3.08-3.94-6.11-3.16-2.62.67-4.5,2.4-5.62,5.53-.26.69-.76,1.16-1.49,1.34-1.4.36-2.99-.39-3.3-1.61-.13-.5-.05-1.14.22-1.79,1.44-3.79,4.98-6.72,9.33-7.82,6.11-1.56,10.92.68,12.3,6.11.97,3.8.29,6.43-2.72,9.94-2.64,3.08-2.87,4.44-2.43,6.55l.19.92ZM77.99,43.74c.5,1.95-.63,3.77-2.57,4.27s-3.76-.58-4.26-2.53.62-3.82,2.52-4.3,3.83.66,4.32,2.56Z"/>
        </g>
      </g>
    </g>
  </g>
</svg>