<?xml version="1.0" encoding="UTF-8"?>
<svg id="Layer_2" xmlns="http://www.w3.org/2000/svg" viewBox="0 0 311.87 122.89">
  <defs>
    <style>
      .cls-1 {
        fill: #ce3b19;
      }

      .cls-2 {
        fill: #bbdd94;
      }

      .cls-3 {
        fill: #381c09;
      }
    </style>
  </defs>
  <g id="content">
    <g>
      <path class="cls-1" d="M6.11,56.44c-1.52.12-2.95.21-4.35.25-1.19.04-1.76-.94-1.76-1.93s.53-1.93,1.68-1.93c.57,0,1.19-.04,1.8-.04.86-1.27,1.64-2.5,2.46-3.77-1.39-1.76-3.03-3.57-4.55-5.08-.41-.41-.57-.82-.57-1.27,0-.98.94-1.89,1.97-1.89.41,0,.86.16,1.27.53.82-1.56,1.56-3.32,2.21-4.96.33-.86,1.07-1.27,1.85-1.27,1.02,0,2.05.7,2.05,1.8,0,.2-.04.45-.12.7-.82,2.05-1.97,4.39-3.28,6.56.41.45.82.94,1.19,1.39.74-1.27,1.39-2.54,1.93-3.65.33-.74.98-1.07,1.64-1.07,1.02,0,2.09.78,2.09,1.84,0,.25-.08.57-.25.86-1.39,2.75-3.53,6.23-5.45,8.98,1.07-.08,2.13-.16,3.24-.29-.21-.33-.37-.66-.53-.94-.12-.25-.21-.49-.21-.74,0-.82.86-1.52,1.72-1.52.57,0,1.11.25,1.52.86.94,1.44,1.93,3.48,2.54,5.25.08.25.12.45.12.66,0,1.07-.98,1.68-1.89,1.68-.7,0-1.35-.33-1.6-1.11-.08-.25-.16-.45-.25-.7-.78.12-1.56.25-2.38.33v15.66c0,1.02-1.03,1.56-2.05,1.56s-2.05-.53-2.05-1.56v-15.21ZM3.77,58.65c.9,0,1.8.57,1.72,1.68-.29,2.87-.98,5.82-1.72,7.71-.33.82-1.02,1.19-1.72,1.19-.86,0-1.76-.61-1.76-1.56,0-.25.04-.49.16-.74.66-1.6,1.35-4.43,1.64-6.93.12-.9.9-1.35,1.68-1.35ZM15.54,65.05c.21,1.27-.78,1.93-1.72,1.93-.74,0-1.52-.41-1.64-1.31-.25-1.76-.7-3.85-1.23-5.62-.04-.16-.08-.29-.08-.41,0-.86.86-1.48,1.72-1.48.62,0,1.23.33,1.52,1.11.66,1.84,1.19,4.06,1.43,5.78ZM37.56,47.54c.82.61,1.15,1.35,1.15,2.01,0,1.19-1.02,2.21-2.25,2.21-.53,0-1.07-.16-1.6-.61-2.79-2.3-5.99-5.95-8.28-9.47-2.21,3.65-4.96,7.01-7.79,9.68-.49.45-1.03.61-1.52.61-1.15,0-2.17-.9-2.17-2.05,0-.53.25-1.15.86-1.68,3.32-2.99,6.56-7.38,8.61-11.64.41-.86,1.19-1.23,1.97-1.23,1.11,0,2.17.74,2.17,1.89,0,.16-.04.37-.08.61,2.34,3.73,5.86,7.3,8.94,9.68ZM22.63,72.02c-3.36,0-4.63-1.35-4.63-4.39v-5.37c0-3.03,1.27-4.39,4.63-4.39h8.16c3.36,0,4.63,1.35,4.63,4.39v5.37c-.08,3.28-1.43,4.3-4.63,4.39h-8.16ZM21.61,54.3c-1.03,0-1.56-.94-1.56-1.89s.53-1.89,1.56-1.89h10c1.07,0,1.6.94,1.6,1.89s-.53,1.89-1.6,1.89h-10ZM29.89,68.25c.94,0,1.19-.33,1.19-1.15v-4.31c0-.82-.25-1.15-1.19-1.15h-6.36c-.94,0-1.19.33-1.19,1.15v4.31c0,.86.33,1.15,1.19,1.15h6.36Z"/>
      <path class="cls-1" d="M46.74,52.54c-.61.94-1.27,1.84-1.89,2.67-.53.7-1.23.98-1.89.98-1.15,0-2.25-.94-2.25-2.13,0-.49.16-.98.57-1.52,3.12-4.02,5.99-10.17,7.54-15.66.33-1.07,1.27-1.56,2.21-1.56,1.19,0,2.42.78,2.42,2.05,0,.21-.04.45-.12.7-.9,3.12-2.3,6.6-3.98,9.88.98.08,1.85.66,1.85,1.72v21.69c0,1.11-1.11,1.68-2.21,1.68s-2.25-.57-2.25-1.68v-18.82ZM68.31,37.45c0-1.31,1.15-1.97,2.25-1.97s2.25.66,2.25,1.97v8.32h4.84c1.11,0,1.68.98,1.68,2.01s-.57,2.01-1.68,2.01h-4.84v17.38c0,3.44-1.27,5.21-5.37,5.21-1.19,0-2.21-.04-3.48-.29-1.11-.25-1.6-1.15-1.6-2.09,0-1.27.94-2.54,2.71-2.25.45.08,1.31.16,1.89.16,1.07,0,1.35-.33,1.35-1.56v-16.56h-13.16c-1.07,0-1.64-1.02-1.64-2.01s.57-2.01,1.64-2.01h13.16v-8.32ZM63.88,57.75c.37.49.53,1.02.53,1.52,0,1.31-1.19,2.34-2.46,2.34-.7,0-1.39-.29-1.93-1.07-.86-1.19-2.09-2.67-3.28-3.9-.45-.49-.66-1.03-.66-1.48,0-1.15,1.11-2.13,2.34-2.13.62,0,1.27.21,1.84.74,1.31,1.19,2.54,2.54,3.61,3.98Z"/>
      <path class="cls-1" d="M119.02,48.77c1.07.49,1.52,1.35,1.52,2.21,0,1.15-.9,2.26-2.21,2.26-.45,0-.94-.12-1.44-.37-5.66-2.91-11.64-7.54-15.99-12.63-4.35,5.13-10.09,9.88-15.87,13.28-.41.25-.82.33-1.19.33-1.19,0-2.09-1.03-2.09-2.17,0-.7.37-1.44,1.27-1.97,6.27-3.65,11.97-8.65,16.15-14.31.53-.74,1.31-1.02,2.05-1.02,1.15,0,2.25.78,2.25,1.89,0,.25-.04.45-.16.7,4.02,4.71,9.96,9.14,15.7,11.81ZM103.32,55.45h11.69c1.07,0,1.56.9,1.56,1.84s-.49,1.85-1.56,1.85h-11.69v8.69h14.1c1.07,0,1.6.94,1.6,1.89s-.53,1.89-1.6,1.89h-32.55c-1.07,0-1.6-.94-1.6-1.89s.53-1.89,1.6-1.89h13.94v-8.69h-11.4c-1.02,0-1.56-.94-1.56-1.85s.53-1.84,1.56-1.84h11.4v-3.81h-4.26c-1.03,0-1.56-.94-1.56-1.84s.53-1.84,1.56-1.84h12.92c1.07,0,1.56.9,1.56,1.84s-.49,1.84-1.56,1.84h-4.14v3.81ZM95.9,63.94c.25.37.33.74.33,1.11,0,1.11-1.11,1.97-2.21,1.97-.66,0-1.31-.29-1.76-.98-.66-1.02-1.15-1.8-1.89-2.83-.25-.37-.37-.74-.37-1.11,0-1.07.98-1.93,2.09-1.93.61,0,1.23.25,1.72.86.86,1.02,1.39,1.76,2.09,2.91ZM108.2,61.11c.45-.82,1.15-1.15,1.84-1.15,1.02,0,2.01.78,2.01,1.85,0,.33-.12.7-.33,1.07-.82,1.39-1.39,2.3-2.3,3.4-.45.57-1.07.82-1.64.82-1.03,0-2.01-.78-2.01-1.8,0-.41.16-.86.49-1.31.82-1.07,1.35-1.8,1.93-2.87Z"/>
      <path class="cls-3" d="M142.11,52.4c0,1.9-1.56,3.47-3.47,3.47s-3.47-1.56-3.47-3.47,1.56-3.47,3.47-3.47,3.47,1.56,3.47,3.47Z"/>
      <path class="cls-1" d="M162.33,63.24c1.07,0,2.09.7,2.09,1.8,0,.2-.04.45-.16.74-.74,1.97-1.76,3.69-2.99,5.33-.49.66-1.15.9-1.8.9-1.11,0-2.17-.82-2.17-1.93,0-.41.16-.86.53-1.31.86-1.07,1.93-2.83,2.62-4.35.37-.82,1.15-1.19,1.89-1.19ZM163.27,62.34c-3.12,0-4.26-1.31-4.26-4.14v-17.92c0-2.83,1.15-4.14,4.26-4.14h3.53c3.12,0,4.26,1.31,4.26,4.14v17.92c-.04,3.03-1.31,4.1-4.26,4.14h-3.53ZM167.09,40.98c0-.86-.25-1.15-1.03-1.15h-2.05c-.78,0-1.03.29-1.03,1.15v2.71h4.1v-2.71ZM162.99,51.02h4.1v-3.9h-4.1v3.9ZM166.06,58.73c.78,0,1.03-.29,1.03-1.15v-3.07h-4.1v3.07c0,.78.21,1.15,1.03,1.15h2.05ZM171.72,67.51c.16.37.25.74.25,1.07,0,1.23-1.03,2.05-2.13,2.05-.74,0-1.52-.41-1.97-1.35-.53-1.11-1.19-2.42-1.8-3.44-.25-.41-.37-.78-.37-1.15,0-1.02.98-1.72,2.05-1.72.66,0,1.35.29,1.8.94.86,1.27,1.68,2.58,2.17,3.61ZM183.94,51.39c.78-1.8,1.48-3.65,2.01-5.7.29-1.07,1.15-1.52,2.05-1.52,1.11,0,2.25.74,2.25,1.89,0,.16-.04.33-.08.53-.53,1.68-1.15,3.28-1.84,4.8h5.33c1.11,0,1.68.98,1.68,1.93s-.57,1.93-1.68,1.93h-19.68c-1.11,0-1.64-.98-1.64-1.93s.53-1.93,1.64-1.93h9.96ZM181.15,36.92c0-1.27,1.11-1.89,2.17-1.89s2.17.62,2.17,1.89v2.58h6.35c1.11,0,1.68.98,1.68,1.93s-.57,1.93-1.68,1.93h-16.52c-1.11,0-1.64-.98-1.64-1.93s.53-1.93,1.64-1.93h5.82v-2.58ZM179.47,72.3c-3.4,0-4.76-1.23-4.76-4.43v-5.08c0-3.2,1.35-4.47,4.76-4.47h7.79c3.4,0,4.76,1.27,4.76,4.47v5.08c-.04,3.44-1.52,4.35-4.76,4.43h-7.79ZM181.64,47.95c.12.29.16.57.16.82,0,1.19-1.07,1.93-2.13,1.93-.78,0-1.52-.37-1.89-1.27-.37-.9-.7-1.48-1.11-2.38-.16-.33-.25-.66-.25-.9,0-1.11,1.07-1.8,2.13-1.8.7,0,1.39.29,1.8,1.03.41.74.9,1.68,1.27,2.58ZM186.31,68.53c1.07,0,1.27-.33,1.27-1.07v-4.3c0-.74-.21-1.07-1.27-1.07h-5.86c-1.07,0-1.31.33-1.31,1.07v4.3c0,.9.49,1.07,1.31,1.07h5.86Z"/>
      <path class="cls-1" d="M202.18,53.32c-.21.33-.41.66-.62.98-.53.86-1.31,1.19-2.01,1.19-1.11,0-2.13-.86-2.13-2.01,0-.45.12-.9.41-1.35,2.54-3.98,4.76-9.84,5.94-15.46.25-1.07,1.19-1.56,2.17-1.56,1.19,0,2.38.7,2.38,2.01,0,.21-.04.37-.08.57-.74,3.36-1.93,7.01-3.4,10.33.9.12,1.72.7,1.72,1.64v21.81c0,1.11-1.11,1.64-2.17,1.64s-2.21-.53-2.21-1.64v-18.16ZM215.59,66.65c-3.16,0-4.22-1.02-4.22-3.4v-7.59c0-2.38,1.07-3.4,4.22-3.4h11.97c3.16,0,4.22,1.03,4.22,3.4v7.59c0,2.38-1.07,3.4-4.22,3.4h-.98c.16.04.29.08.41.16,1.39.66,3.65,1.39,5.9,1.93,1.15.29,1.64,1.11,1.64,1.93,0,1.03-.74,2.01-2.01,2.01-.21,0-.41-.04-.61-.08-2.62-.61-5.21-1.6-6.89-2.5-.82-.45-1.19-1.11-1.19-1.72,0-.74.49-1.44,1.27-1.72h-7.3c.82.25,1.35.94,1.35,1.72,0,.61-.37,1.27-1.19,1.72-1.97,1.07-4.76,2.13-7.26,2.79-.21.04-.37.08-.53.08-1.15,0-1.89-.98-1.89-1.97,0-.78.41-1.52,1.48-1.8,2.09-.57,4.47-1.48,6.15-2.3.21-.12.41-.21.61-.25h-.94ZM225.55,40.08c-.29-.29-.49-.7-.49-1.11,0-.37.16-.78.53-1.19.53-.57.9-1.02,1.48-1.84.37-.53.9-.74,1.44-.74,1.02,0,2.09.82,2.09,1.89,0,.33-.12.66-.37,1.03-.57.82-1.15,1.44-1.72,1.97h2.01c3.44,0,4.22,1.27,4.22,3.73v1.52c0,1.15-1.07,1.76-2.13,1.76s-2.13-.61-2.13-1.76v-1.19c0-.7-.16-.82-1.02-.82h-15.46c-.98,0-1.15.12-1.15.82v1.48c0,1.15-1.07,1.76-2.13,1.76s-2.13-.61-2.13-1.76v-1.8c0-2.46.9-3.73,4.31-3.73h1.56c-.08-.08-.12-.16-.21-.25-.33-.45-.82-.98-1.27-1.52-.33-.37-.49-.78-.49-1.15,0-.94.94-1.76,1.97-1.76.41,0,.86.12,1.23.45.53.45,1.19,1.15,1.72,1.89.29.37.41.78.41,1.11,0,.49-.21.9-.53,1.23h2.13v-3.61c0-1.15,1.03-1.72,2.05-1.72s2.05.57,2.05,1.72v3.61h2.05ZM217.56,51.07c-2.42,0-3.24-.7-3.24-2.54v-1.35c0-1.84.82-2.58,3.24-2.58h8.12c2.42,0,3.24.74,3.24,2.58v1.35c-.04,2.21-1.27,2.5-3.24,2.54h-8.12ZM227.85,55.74c0-.57-.16-.74-.94-.74h-10.66c-.78,0-.94.16-.94.74v.66h12.55v-.66ZM215.3,60.13h12.55v-1.35h-12.55v1.35ZM226.9,63.9c.78,0,.94-.16.94-.74v-.66h-12.55v.66c0,.7.33.74.94.74h10.66ZM224.65,48.61c.37,0,.49-.08.49-.45v-.66c0-.37-.12-.45-.49-.45h-6.03c-.41,0-.53.08-.53.45v.66c0,.37.21.45.53.45h6.03Z"/>
      <path class="cls-1" d="M276.02,48.77c1.07.49,1.52,1.35,1.52,2.21,0,1.15-.9,2.26-2.21,2.26-.45,0-.94-.12-1.44-.37-5.66-2.91-11.64-7.54-15.99-12.63-4.35,5.13-10.09,9.88-15.87,13.28-.41.25-.82.33-1.19.33-1.19,0-2.09-1.03-2.09-2.17,0-.7.37-1.44,1.27-1.97,6.27-3.65,11.97-8.65,16.15-14.31.53-.74,1.31-1.02,2.05-1.02,1.15,0,2.25.78,2.25,1.89,0,.25-.04.45-.16.7,4.02,4.71,9.96,9.14,15.7,11.81ZM260.32,55.45h11.69c1.07,0,1.56.9,1.56,1.84s-.49,1.85-1.56,1.85h-11.69v8.69h14.1c1.07,0,1.6.94,1.6,1.89s-.53,1.89-1.6,1.89h-32.55c-1.07,0-1.6-.94-1.6-1.89s.53-1.89,1.6-1.89h13.94v-8.69h-11.4c-1.02,0-1.56-.94-1.56-1.85s.53-1.84,1.56-1.84h11.4v-3.81h-4.26c-1.03,0-1.56-.94-1.56-1.84s.53-1.84,1.56-1.84h12.92c1.07,0,1.56.9,1.56,1.84s-.49,1.84-1.56,1.84h-4.14v3.81ZM252.9,63.94c.25.37.33.74.33,1.11,0,1.11-1.11,1.97-2.21,1.97-.66,0-1.31-.29-1.76-.98-.66-1.02-1.15-1.8-1.89-2.83-.25-.37-.37-.74-.37-1.11,0-1.07.98-1.93,2.09-1.93.61,0,1.23.25,1.72.86.86,1.02,1.39,1.76,2.09,2.91ZM265.2,61.11c.45-.82,1.15-1.15,1.84-1.15,1.02,0,2.01.78,2.01,1.85,0,.33-.12.7-.33,1.07-.82,1.39-1.39,2.3-2.3,3.4-.45.57-1.07.82-1.64.82-1.03,0-2.01-.78-2.01-1.8,0-.41.16-.86.49-1.31.82-1.07,1.35-1.8,1.93-2.87Z"/>
      <path class="cls-3" d="M281.31,59.06c0-8.21,6.8-14.94,16.7-14.94,8.78,0,13.86,5.51,13.86,12.67,0,6.52-3.85,11.3-10.04,13.28-.29.11-.58.14-.83.14-1.22,0-2.02-1.01-2.02-2.05,0-.79.43-1.58,1.51-1.98,5.11-1.84,7.16-4.93,7.16-9.39,0-4.72-3.2-8.6-8.67-9-.36,5.98-1.84,11.37-4.07,15.3-1.98,3.49-4.1,4.54-6.88,4.54-3.67,0-6.73-2.95-6.73-8.57ZM285.45,59.06c0,3.31,1.3,4.54,2.59,4.54,1.12,0,2.09-.58,3.13-2.41,1.84-3.2,3.17-7.85,3.6-13.14-5.36,1.04-9.32,5.69-9.32,11.01Z"/>
      <path class="cls-3" d="M26.08,103.87c2.54,0,4.02,1.19,4.02,2.87,0,.86-.41,1.84-1.23,2.83-1.39,1.64-3.12,3.2-5.04,4.59,3.49,1.64,7.46,2.79,11.64,3.49,1.39.2,2.05,1.19,2.05,2.17,0,1.19-.98,2.34-2.79,2.05-5.33-.86-10.37-2.67-14.76-5.25-4.92,2.75-10.78,4.76-16.69,5.74-1.64.29-2.58-.86-2.58-2.01,0-.9.57-1.76,1.8-1.97,5.25-.86,9.92-2.3,13.86-4.18-2.5-1.93-4.67-4.14-6.48-6.72h-1.39c-1.11,0-1.64-.9-1.64-1.8s.53-1.8,1.64-1.8h17.59ZM9.8,96.4c-.08-.12-.16-.25-.25-.37-.25-.49-.7-1.19-1.15-1.89-.25-.41-.37-.78-.37-1.11,0-.49.25-.94.62-1.23-.66.04-1.27.08-1.93.08-1.48.04-2.21-.98-2.21-2.01,0-.94.66-1.89,1.93-1.93,7.42-.21,16.07-.94,22.67-2.42,1.68-.33,2.58.82,2.58,1.97,0,.82-.45,1.64-1.52,1.84-3.57.74-7.46,1.31-11.36,1.72.53.21.94.53,1.19,1.03.37.66.82,1.56,1.11,2.21.12.29.16.53.16.78,0,.57-.33,1.03-.78,1.31h3.32c.94-1.52,1.8-3.2,2.42-4.8.41-1.02,1.27-1.43,2.09-1.43,1.11,0,2.13.74,2.13,1.89,0,.29-.04.57-.21.9-.49,1.07-1.19,2.34-1.84,3.44h2.83c4.39,0,5.74,1.19,5.74,4.31v3.4c0,1.19-1.11,1.76-2.25,1.76s-2.25-.57-2.25-1.76v-2.62c0-1.07-.37-1.48-1.76-1.48H7.58c-1.39,0-1.76.41-1.76,1.48v2.79c0,1.19-1.11,1.76-2.26,1.76s-2.25-.57-2.25-1.76v-3.57c0-3.12,1.35-4.31,5.74-4.31h2.75ZM18.04,96.4c-.29-.2-.49-.45-.66-.78-.25-.57-.61-1.35-1.02-2.13-.16-.29-.21-.53-.21-.78,0-.61.41-1.15.94-1.44-1.97.21-3.98.37-5.94.45.25.12.49.33.7.62.45.61,1.07,1.52,1.35,2.09.16.33.25.66.25.94,0,.41-.16.74-.37,1.02h4.96ZM14.72,107.47c1.52,1.8,3.32,3.32,5.33,4.59,1.68-1.11,3.16-2.38,4.39-3.77.21-.2.29-.41.29-.53,0-.21-.25-.29-.74-.29h-9.27Z"/>
      <path class="cls-3" d="M49.65,87.51c1.19,0,2.38.74,2.38,2.05,0,.16-.04.37-.08.57-1.31,5.45-1.89,11.03-1.89,16.03,0,3.53.37,7.13.86,9.76.04.2.08.41.08.61,0,1.44-1.19,2.21-2.38,2.21-1.03,0-2.05-.57-2.34-1.84-.66-2.99-.98-6.81-.98-10.7,0-5.37.62-11.27,2.05-17.02.29-1.15,1.27-1.68,2.3-1.68ZM62.16,100.59c-1.52,0-2.46,0-3.53-.08-1.31-.08-1.97-1.11-1.97-2.13,0-1.11.74-2.17,2.13-2.09.94.04,1.97.08,3.24.08,1.64,0,3.36-.08,5.04-.2-.08-2.46-.21-4.84-.41-7.3-.08-1.39,1.07-2.05,2.25-2.05,1.07,0,2.17.57,2.25,1.8.21,2.3.33,4.67.41,7.13,1.48-.21,2.87-.41,4.1-.66,1.56-.25,2.46.9,2.46,2.05,0,.9-.53,1.76-1.64,2.01-1.48.29-3.12.57-4.84.78.04,1.02.04,2.05.04,3.07,0,7.91-2.13,13.78-5.58,17.67-.53.61-1.23.9-1.89.9-1.23,0-2.34-.94-2.34-2.17,0-.53.16-1.07.66-1.64,2.99-3.53,4.63-8.04,4.63-14.76v-2.62c-1.76.12-3.49.21-5.04.21Z"/>
      <path class="cls-3" d="M86.06,90.91h-2.01c-1.07,0-1.64-.98-1.64-1.97s.57-1.97,1.64-1.97h24.68c1.11,0,1.68.98,1.68,1.97s-.57,1.97-1.68,1.97h-8.98v30.3c0,1.11-1.07,1.68-2.17,1.68s-2.17-.57-2.17-1.68v-6.56c-3.77,1.11-7.67,2.01-11.15,2.46-1.48.2-2.26-.98-2.26-2.13,0-.98.53-1.93,1.72-2.05.78-.08,1.56-.21,2.34-.33v-21.69ZM90.32,95.01h5.08v-4.1h-5.08v4.1ZM90.32,102.96h5.08v-4.26h-5.08v4.26ZM90.32,111.86c1.72-.37,3.4-.74,5.08-1.19v-4.02h-5.08v5.21ZM113.98,93.37c3.2,0,4.72,1.31,4.72,3.73,0,.41-.04.86-.12,1.35-.82,4.43-2.46,8.65-4.67,12.42,1.56,2.26,3.49,4.31,5.78,6.15.82.66,1.15,1.39,1.15,2.05,0,1.27-1.11,2.34-2.38,2.34-.57,0-1.19-.25-1.76-.74-2.01-1.76-3.81-3.77-5.41-6.03-2.01,2.62-4.3,4.92-6.89,6.85-.49.37-1.03.53-1.48.53-1.15,0-2.09-.94-2.09-2.05,0-.66.33-1.35,1.11-1.93,2.75-2.01,5.08-4.43,7.01-7.13-2.38-4.18-3.85-8.86-4.84-13.57h-1.27c-1.11,0-1.68-.98-1.68-2.01s.57-1.97,1.68-1.97h11.15ZM108.36,97.35c.74,3.24,1.72,6.35,3.12,9.35,1.31-2.58,2.21-5.33,2.67-8.12.12-.86,0-1.23-1.11-1.23h-4.67Z"/>
      <path class="cls-3" d="M134.6,103.78c.41-.94.7-1.72,1.07-2.83.33-.9,1.07-1.31,1.76-1.31.94,0,1.84.66,1.84,1.64,0,.16-.04.33-.08.49-.7,2.34-1.8,4.92-2.87,6.77-.66,1.11-1.76,1.68-2.83,1.68-1.15,0-2.25-.66-2.62-1.97-.53-1.76-.98-4.72-.98-7.05,0-3.28.53-7.79,1.52-12.05.33-1.15,1.35-1.68,2.34-1.68,1.15,0,2.25.66,2.25,1.84,0,.16-.04.33-.08.53-.9,3.81-1.52,8.49-1.52,10.95,0,1.31.04,2.17.12,2.99h.08ZM147.64,86.6c1.11,0,2.21.61,2.42,1.97.57,4.31.86,8.77.86,13.2,0,8.9-3.2,15.09-8.94,19.48-.57.45-1.19.66-1.72.66-1.27,0-2.3-1.07-2.3-2.3,0-.7.33-1.44,1.07-2.05,4.67-3.85,6.97-8.86,6.97-15.79,0-4.22-.29-8.49-.82-12.83-.16-1.52,1.15-2.34,2.46-2.34Z"/>
      <path class="cls-3" d="M160.8,108.95c0-8.21,6.8-14.94,16.7-14.94,8.78,0,13.86,5.51,13.86,12.67,0,6.52-3.85,11.3-10.04,13.28-.29.11-.58.14-.83.14-1.22,0-2.02-1.01-2.02-2.05,0-.79.43-1.58,1.51-1.98,5.11-1.84,7.16-4.93,7.16-9.39,0-4.72-3.2-8.6-8.67-9-.36,5.98-1.84,11.37-4.07,15.3-1.98,3.49-4.1,4.54-6.88,4.54-3.67,0-6.73-2.95-6.73-8.57ZM164.94,108.95c0,3.31,1.3,4.54,2.59,4.54,1.12,0,2.09-.58,3.13-2.41,1.84-3.2,3.17-7.85,3.6-13.14-5.36,1.04-9.32,5.69-9.32,11.01Z"/>
      <path class="cls-3" d="M205.15,99.03c.49.57.7,1.15.7,1.64,0,1.23-1.11,2.21-2.3,2.21-.53,0-1.11-.2-1.56-.7-.98-1.11-2.5-2.42-3.4-3.16-.62-.49-.86-1.02-.86-1.56,0-1.11,1.07-2.05,2.34-2.05.45,0,.94.12,1.43.45,1.19.82,2.67,2.09,3.65,3.16ZM205.97,106.9c1.19,0,2.42.78,2.42,2.09,0,.21-.04.41-.12.66-1.15,3.81-3.12,8.12-4.88,10.95-.57.9-1.39,1.27-2.21,1.27-1.19,0-2.3-.82-2.3-2.05,0-.41.16-.86.45-1.31,1.72-2.67,3.44-6.64,4.59-10.17.33-1.02,1.19-1.44,2.05-1.44ZM207.82,89.15c.49.57.7,1.15.7,1.64,0,1.23-1.07,2.17-2.21,2.17-.53,0-1.15-.2-1.6-.78-1.07-1.07-2.3-2.3-3.24-3.08-.57-.49-.82-1.02-.82-1.52,0-1.07,1.07-2.01,2.3-2.01.45,0,.98.16,1.44.49,1.19.86,2.5,2.05,3.44,3.07ZM212.41,105.75c0-1.15,1.07-1.76,2.13-1.76s2.13.61,2.13,1.8v2.5c0,6.19-2.34,10.74-6.56,13.74-.49.37-.98.49-1.48.49-1.15,0-2.09-.98-2.09-2.05,0-.57.29-1.23.98-1.72,3.28-2.42,4.88-5.66,4.88-10.62v-2.38ZM221.31,93.82c-.7,1.48-1.43,2.95-2.25,4.35,2.13-.16,4.26-.41,6.4-.66l-.66-.66c-.33-.33-.45-.66-.45-.98,0-.94,1.03-1.84,2.25-1.84.49,0,1.03.16,1.52.53,1.39,1.11,3.77,3.32,5.08,4.96.37.45.53.9.53,1.35,0,1.19-1.15,2.17-2.3,2.17-.62,0-1.19-.25-1.68-.86-.33-.45-.74-.94-1.15-1.43-5.74,1.11-11.85,1.76-17.38,2.01-1.35.08-2.09-1.03-2.09-2.05s.66-2.01,1.97-2.05c.98-.04,2.05-.08,3.08-.12.94-1.52,1.76-3.12,2.5-4.72h-5.45c-1.11,0-1.64-.98-1.64-1.93s.53-1.93,1.64-1.93h8.2v-3.36c0-1.15,1.11-1.72,2.21-1.72s2.21.57,2.21,1.72v3.36h9.68c1.11,0,1.68.98,1.68,1.93s-.57,1.93-1.68,1.93h-12.22ZM219.05,106c0-1.19,1.07-1.76,2.09-1.76s2.09.57,2.09,1.76v12.51c0,1.07-1.03,1.64-2.09,1.64s-2.09-.57-2.09-1.64v-12.51ZM229.96,117.31c0,.45.12.57.66.57.82,0,1.19-.25,1.35-2.54.08-1.15.98-1.72,1.89-1.72,1.02,0,2.09.7,2.01,1.89-.25,4.88-1.89,6.31-5.86,6.31-3.2,0-4.3-.98-4.3-3.48v-12.92c0-1.19,1.07-1.8,2.13-1.8s2.13.61,2.13,1.8v11.89Z"/>
      <path class="cls-3" d="M252.14,99.56c5.7-5.62,8.86-7.79,11.85-7.79,3.77,0,5.37,2.62,5.17,6.07l-.78,14.43c-.04.98.29,1.23,1.03,1.23.86,0,2.05-.41,3.94-2.42.57-.61,1.23-.86,1.85-.86,1.23,0,2.3,1.03,2.3,2.26,0,.53-.21,1.15-.74,1.72-2.62,2.91-5.21,4.06-7.71,4.06-3.65,0-5.62-1.64-5.41-5.66l.74-13.94c.08-1.52-.25-2.17-1.31-2.17-1.72,0-4.71,2.34-11.03,8.9l-.04,13.86c0,1.39-1.11,2.09-2.21,2.09s-2.17-.7-2.17-2.09l.12-9.23-3.12,4.8c-.49.7-1.11,1.03-1.72,1.03-1.15,0-2.25-.98-2.25-2.13,0-.37.12-.78.37-1.15,2.01-2.87,4.43-6.89,6.85-11.48l.08-2.5-4.88.9c-1.44.25-2.21-.94-2.21-2.09,0-.94.49-1.89,1.6-2.05l5.54-.94.08-6.44c.04-1.27,1.15-1.93,2.21-1.93s2.21.66,2.17,1.93l-.12,5.82c1.03.04,1.39.74,1.39,1.31,0,.74-.29,1.48-1.48,2.79l-.08,1.68Z"/>
    </g>
    <g>
      <path class="cls-2" d="M12.42.3v2.92h-5.25v5.17h3.75v2.92h-3.75v6.55h-3.52V.3h8.77Z"/>
      <path class="cls-2" d="M17.7.3v14.65h5.25v2.92h-8.77V.3h3.52Z"/>
      <path class="cls-2" d="M36.22,9.2c0,2.12-.3,8.97-5.77,8.97-5.02,0-5.75-6.82-5.75-9.1,0-2.7.72-9.07,5.75-9.07,5.47,0,5.77,6.97,5.77,9.2ZM32.72,9.25c0-2.02-.22-6.75-2.27-6.75-1.82,0-2.22,3.97-2.22,6.57,0,1.57.25,6.42,2.22,6.42s2.27-4.75,2.27-6.25Z"/>
      <path class="cls-2" d="M50.54,12.62l1.3-12.32h3.52l-2.65,17.57h-3.75l-2.32-10.45-2.32,10.45h-3.75L37.97.3h3.52l1.27,12.32L44.89.3h3.52l2.12,12.32Z"/>
    </g>
  </g>
</svg>