<?xml version="1.0" encoding="UTF-8"?>
<svg id="Layer_2" xmlns="http://www.w3.org/2000/svg" viewBox="0 0 400.89 75.52">
  <defs>
    <style>
      .cls-1 {
        fill: #bbdd94;
      }

      .cls-2 {
        fill: #ffdc6e;
      }

      .cls-3 {
        fill: #381c09;
      }
    </style>
  </defs>
  <g id="content">
    <g>
      <g>
        <path class="cls-1" d="M1.49,17.87V.3h3.52v17.57H1.49Z"/>
        <path class="cls-1" d="M13.79.3h3.52v17.57h-2.85l-4.22-9.07.05,9.07h-3.52V.3h2.9l4.12,9.55V.3Z"/>
        <path class="cls-1" d="M22.59.3h7.02v2.92h-3.52v14.65h-3.5V3.22h-3.52V.3h3.52Z"/>
        <path class="cls-1" d="M37.89,11.17l2.9,6.7h-3.5l-2.4-5.87v5.87h-3.52V.3h3.57c4.4,0,5.62,2.92,5.62,5.75,0,2.05-.67,4.12-2.67,5.12ZM34.89,3.22v5.6h.27c1.6,0,2.15-.83,2.15-2.82,0-2.27-.6-2.77-2.15-2.77h-.27Z"/>
        <path class="cls-1" d="M54.06,9.2c0,2.12-.3,8.97-5.77,8.97-5.02,0-5.75-6.82-5.75-9.1,0-2.7.72-9.07,5.75-9.07,5.47,0,5.77,6.97,5.77,9.2ZM50.56,9.25c0-2.02-.23-6.75-2.27-6.75-1.82,0-2.22,3.97-2.22,6.57,0,1.57.25,6.42,2.22,6.42s2.27-4.75,2.27-6.25Z"/>
        <path class="cls-1" d="M59.94.3c5.47,0,5.97,6.5,5.97,8.7s-.5,8.87-5.97,8.87h-4.12V.3h4.12ZM59.91,14.95c1.95,0,2.3-4.2,2.3-5.7,0-2.07-.27-6.02-2.27-6.02h-.6v11.72h.58Z"/>
        <path class="cls-1" d="M74.69.3h3.52v12.3c0,2.9-2.15,5.47-5.27,5.47s-5.27-2.57-5.27-5.47V.3h3.52v12.9c0,.98.77,1.75,1.75,1.75s1.75-.77,1.75-1.75V.3Z"/>
        <path class="cls-1" d="M83.49,9.07c0,1.57.3,6.05,2.22,6.05.9,0,1.92-.27,2.42-1.05l1.57,2.52c-1.07,1.07-2.17,1.55-4,1.55-5.02,0-5.75-6.82-5.75-9.07,0-2.7.72-9.07,5.75-9.07,1.67,0,3.02.5,4,1.5l-1.62,2.72c-.4-.52-1.05-1.35-2.45-1.35-1.82,0-2.15,3.6-2.15,6.2Z"/>
        <path class="cls-1" d="M100.24.3v2.92h-5.25v4.4h3.75v2.92h-3.75v4.4h5.25v2.92h-8.77V.3h8.77Z"/>
      </g>
      <rect class="cls-2" x="195.89" y="70.52" width="205" height="5"/>
      <g>
        <path class="cls-3" d="M3.69,62.3c-1.15,0-1.72-1.03-1.72-2.01s.57-2.01,1.72-2.01h22.84v-3.44c0-.98-.33-1.31-1.64-1.31H2.17c-1.15,0-1.76-1.02-1.76-2.05s.62-2.01,1.76-2.01h11.4v-13.08c0-1.19,1.15-1.8,2.3-1.8s2.3.61,2.3,1.8v13.08h7.67c3.65,0,5.29,1.39,5.29,4.47v13.16c0,3.08-1.64,4.51-5.29,4.51H1.76c-1.15,0-1.76-1.02-1.76-2.05s.61-2.05,1.76-2.05h23.12c1.31,0,1.64-.33,1.64-1.31v-3.89H3.69ZM10.25,43.52c.29.45.41.94.41,1.35,0,1.31-1.23,2.3-2.46,2.3-.74,0-1.44-.33-1.89-1.11-.98-1.68-2.13-3.32-3.16-4.59-.37-.49-.53-.94-.53-1.39,0-1.19,1.15-2.09,2.38-2.09.66,0,1.35.25,1.89.9,1.23,1.48,2.5,3.2,3.36,4.63ZM26.57,37.37c1.15,0,2.34.86,2.34,2.13,0,.33-.08.7-.29,1.11-1.15,2.21-2.58,4.31-3.94,5.99-.57.7-1.27.98-1.97.98-1.19,0-2.25-.86-2.25-2.01,0-.41.16-.9.53-1.35,1.43-1.72,2.67-3.69,3.77-5.74.41-.78,1.11-1.11,1.8-1.11Z"/>
        <path class="cls-3" d="M61.05,54.51v-4.47c0-1.15,1.15-1.72,2.25-1.72s2.25.57,2.25,1.72v4.47h8.16c1.19,0,1.8.98,1.8,1.97s-.62,1.97-1.8,1.97h-8.16v12.59c0,1.15-1.11,1.72-2.25,1.72s-2.25-.57-2.25-1.72v-12.59h-7.34c-.86,6.4-4.3,11.36-10.29,14.23-.41.2-.82.29-1.23.29-1.27,0-2.13-1.02-2.13-2.13,0-.78.45-1.6,1.48-2.09,4.51-2.17,6.93-5.45,7.63-10.29h-8.9c-1.15,0-1.76-.98-1.76-1.97s.62-1.97,1.76-1.97h9.14v-4.06c0-1.15,1.15-1.72,2.25-1.72s2.25.57,2.25,1.72v4.06h7.13ZM42.43,47.99c-1.35.04-2.05-1.02-2.05-2.09,0-.98.61-1.97,1.97-1.97,1.56-.04,3.16-.04,4.76-.12,1.97-2.5,3.81-5.33,5.12-7.91.49-.94,1.35-1.31,2.13-1.31,1.19,0,2.3.82,2.3,1.93,0,.33-.08.7-.33,1.07-1.23,2.17-2.5,4.14-3.89,6.03,3.98-.25,7.95-.53,11.93-.94-.61-.45-1.23-.9-1.8-1.31-.57-.41-.82-.94-.82-1.44,0-.98.94-1.93,2.09-1.93.45,0,.86.12,1.31.41,2.83,1.8,5.82,4.26,8.04,6.52.53.53.74,1.11.74,1.64,0,1.11-.98,2.05-2.09,2.05-.62,0-1.23-.25-1.76-.82-.62-.66-1.27-1.35-2.01-2.01-8.41,1.27-17.55,2.01-25.62,2.21Z"/>
        <path class="cls-3" d="M80.07,46.1c-1.07,0-1.64-1.02-1.64-2.05s.57-2.05,1.64-2.05h11.28c1.11,0,1.68,1.02,1.68,2.05s-.57,2.05-1.68,2.05h-11.28ZM84.17,72.18c-2.95,0-3.94-1.23-3.94-3.65v-5.25c0-2.46.98-3.69,3.94-3.69h3.85c2.95,0,3.94,1.23,3.94,3.69v5.25c-.04,2.75-1.31,3.61-3.94,3.65h-3.85ZM82.12,40.08c-1.02,0-1.56-.98-1.56-1.93s.53-1.93,1.56-1.93h7.71c1.07,0,1.6.94,1.6,1.93s-.53,1.93-1.6,1.93h-7.71ZM82.12,51.89c-1.02,0-1.56-.98-1.56-1.93s.53-1.93,1.56-1.93h7.71c1.07,0,1.6.94,1.6,1.93s-.53,1.93-1.6,1.93h-7.71ZM82.12,57.67c-1.02,0-1.56-.98-1.56-1.93s.53-1.93,1.56-1.93h7.71c1.07,0,1.6.94,1.6,1.93s-.53,1.93-1.6,1.93h-7.71ZM87.17,68.53c.57,0,.78-.25.78-.9v-3.48c0-.66-.21-.86-.78-.86h-2.13c-.57,0-.78.21-.78.86v3.48c0,.57.21.9.78.9h2.13ZM103.98,44.75c.21-.45.37-.9.49-1.35.29-.82,1.02-1.19,1.76-1.19.94,0,1.84.53,1.84,1.39,0,.16,0,.37-.08.53l-.25.62h6.64c.86,0,1.27.7,1.27,1.39,0,.74-.41,1.44-1.27,1.44h-6.72v1.39h4.96c.74,0,1.07.61,1.07,1.23s-.33,1.23-1.07,1.23h-4.96v1.39h4.96c.74,0,1.07.61,1.07,1.23s-.33,1.23-1.07,1.23h-4.96v1.44h7.26c.86,0,1.27.7,1.27,1.39,0,.74-.41,1.44-1.27,1.44h-14.31c-3.65,0-4.35-1.03-4.35-3.4v-4.63c-.16.16-.29.33-.45.49-.49.53-1.07.74-1.56.74-.94,0-1.68-.74-1.68-1.64,0-.45.16-.94.57-1.39,1.56-1.72,3.24-4.26,4.3-6.52.37-.74,1.03-1.02,1.68-1.02h.21c-.29-.25-.49-.57-.49-.98v-.49h-4.47c-.94,0-1.44-.86-1.44-1.68,0-.86.49-1.68,1.44-1.68h4.47v-1.07c0-.98.94-1.48,1.89-1.48s1.89.49,1.89,1.48v1.07h4.63v-1.07c0-.98.94-1.48,1.89-1.48s1.89.49,1.89,1.48v1.07h4.26c.98,0,1.48.82,1.48,1.68s-.49,1.68-1.48,1.68h-4.26v.49c0,.94-.94,1.43-1.89,1.43s-1.89-.49-1.89-1.43v-.49h-4.63v.49c0,.94-.94,1.43-1.89,1.43h-.29c.37.29.62.66.62,1.15,0,.25-.08.49-.21.78l-.12.21h3.24ZM96.06,64.1c-.94,0-1.44-.82-1.44-1.6,0-.82.49-1.6,1.44-1.6h14.27c2.26,0,3.61,1.15,3.61,2.62,0,.9-.49,1.89-1.6,2.79-.62.53-1.31,1.03-2.09,1.48,1.52.49,3.2.86,5,1.15,1.23.16,1.8,1.03,1.8,1.89,0,1.07-.9,2.13-2.46,1.89-3.08-.49-6.03-1.39-8.69-2.67-3.44,1.43-7.3,2.46-11.03,2.91-1.43.16-2.25-.78-2.25-1.76,0-.82.57-1.64,1.72-1.8,2.75-.37,5.37-.94,7.71-1.68-1.44-1.02-2.71-2.21-3.81-3.61h-2.17ZM104.06,47.58h-3.08c-.78,0-.9.12-.9.66v.74h3.98v-1.39ZM100.08,51.43v1.39h3.98v-1.39h-3.98ZM100.08,55.29v.78c0,.53.12.66.9.66h3.08v-1.44h-3.98ZM103.11,64.1c.9.78,1.93,1.44,2.99,2.01.9-.45,1.76-.94,2.46-1.48.16-.12.25-.21.25-.33s-.16-.21-.49-.21h-5.21Z"/>
        <path class="cls-3" d="M128.17,71.52c-4.63,0-6.35-1.93-6.35-5.62v-23.37c0-3.69,1.72-5.62,6.35-5.62h21.61c4.67,0,6.36,1.93,6.36,5.62v23.37c-.08,4.35-2.34,5.53-6.36,5.62h-21.61ZM148.87,67.51c2.05,0,2.71-.62,2.71-2.26v-22.06c0-1.64-.66-2.25-2.71-2.25h-19.8c-2.01,0-2.71.61-2.71,2.25v22.06c.04,1.85,1.03,2.21,2.71,2.26h19.8ZM130.01,51.23c-1.15,0-1.76-.98-1.76-1.93s.62-1.93,1.76-1.93h11.19v-3.4c0-1.19,1.07-1.76,2.13-1.76s2.13.57,2.13,1.76v3.4h3.24c1.19,0,1.76.98,1.76,1.93s-.57,1.93-1.76,1.93h-3.24v10.04c0,3.44-1.72,4.59-4.88,4.59-1.07,0-1.97-.08-3.03-.29-1.19-.25-1.68-1.11-1.68-2.01,0-1.19.9-2.34,2.38-2.05.62.12,1.27.21,1.89.21.78,0,1.07-.21,1.07-.98v-9.51h-11.19ZM137.72,56.03c.37.45.53.94.53,1.39,0,1.19-1.02,2.17-2.17,2.17-.49,0-.98-.16-1.43-.66-1.03-1.11-2.05-2.17-2.91-2.91-.49-.41-.7-.94-.7-1.39,0-1.07.98-2.05,2.17-2.05.41,0,.86.12,1.31.45,1.11.82,2.3,1.93,3.2,2.99Z"/>
        <path class="cls-3" d="M162.15,59.06c0-8.21,6.8-14.94,16.7-14.94,8.78,0,13.86,5.51,13.86,12.67,0,6.52-3.85,11.3-10.04,13.28-.29.11-.58.14-.83.14-1.22,0-2.02-1.01-2.02-2.05,0-.79.43-1.58,1.51-1.98,5.11-1.84,7.16-4.93,7.16-9.4,0-4.72-3.2-8.6-8.67-9-.36,5.98-1.84,11.37-4.07,15.3-1.98,3.49-4.1,4.54-6.88,4.54-3.67,0-6.73-2.95-6.73-8.57ZM166.29,59.06c0,3.31,1.3,4.54,2.59,4.54,1.12,0,2.09-.58,3.13-2.41,1.84-3.2,3.17-7.85,3.6-13.14-5.36,1.04-9.32,5.69-9.32,11.01Z"/>
        <path class="cls-3" d="M220.05,54.51v-4.47c0-1.15,1.15-1.72,2.25-1.72s2.25.57,2.25,1.72v4.47h8.16c1.19,0,1.8.98,1.8,1.97s-.62,1.97-1.8,1.97h-8.16v12.59c0,1.15-1.11,1.72-2.25,1.72s-2.25-.57-2.25-1.72v-12.59h-7.34c-.86,6.4-4.3,11.36-10.29,14.23-.41.2-.82.29-1.23.29-1.27,0-2.13-1.02-2.13-2.13,0-.78.45-1.6,1.48-2.09,4.51-2.17,6.93-5.45,7.63-10.29h-8.9c-1.15,0-1.76-.98-1.76-1.97s.62-1.97,1.76-1.97h9.14v-4.06c0-1.15,1.15-1.72,2.25-1.72s2.25.57,2.25,1.72v4.06h7.13ZM201.43,47.99c-1.35.04-2.05-1.02-2.05-2.09,0-.98.61-1.97,1.97-1.97,1.56-.04,3.16-.04,4.76-.12,1.97-2.5,3.81-5.33,5.12-7.91.49-.94,1.35-1.31,2.13-1.31,1.19,0,2.3.82,2.3,1.93,0,.33-.08.7-.33,1.07-1.23,2.17-2.5,4.14-3.89,6.03,3.98-.25,7.95-.53,11.93-.94-.61-.45-1.23-.9-1.8-1.31-.57-.41-.82-.94-.82-1.44,0-.98.94-1.93,2.09-1.93.45,0,.86.12,1.31.41,2.83,1.8,5.82,4.26,8.04,6.52.53.53.74,1.11.74,1.64,0,1.11-.98,2.05-2.09,2.05-.62,0-1.23-.25-1.76-.82-.62-.66-1.27-1.35-2.01-2.01-8.41,1.27-17.55,2.01-25.62,2.21Z"/>
        <path class="cls-3" d="M239.07,46.1c-1.07,0-1.64-1.02-1.64-2.05s.57-2.05,1.64-2.05h11.28c1.11,0,1.68,1.02,1.68,2.05s-.57,2.05-1.68,2.05h-11.28ZM243.17,72.18c-2.95,0-3.94-1.23-3.94-3.65v-5.25c0-2.46.98-3.69,3.94-3.69h3.85c2.95,0,3.94,1.23,3.94,3.69v5.25c-.04,2.75-1.31,3.61-3.94,3.65h-3.85ZM241.12,40.08c-1.02,0-1.56-.98-1.56-1.93s.53-1.93,1.56-1.93h7.71c1.07,0,1.6.94,1.6,1.93s-.53,1.93-1.6,1.93h-7.71ZM241.12,51.89c-1.02,0-1.56-.98-1.56-1.93s.53-1.93,1.56-1.93h7.71c1.07,0,1.6.94,1.6,1.93s-.53,1.93-1.6,1.93h-7.71ZM241.12,57.67c-1.02,0-1.56-.98-1.56-1.93s.53-1.93,1.56-1.93h7.71c1.07,0,1.6.94,1.6,1.93s-.53,1.93-1.6,1.93h-7.71ZM246.17,68.53c.57,0,.78-.25.78-.9v-3.48c0-.66-.21-.86-.78-.86h-2.13c-.57,0-.78.21-.78.86v3.48c0,.57.21.9.78.9h2.13ZM262.98,44.75c.21-.45.37-.9.49-1.35.29-.82,1.02-1.19,1.76-1.19.94,0,1.84.53,1.84,1.39,0,.16,0,.37-.08.53l-.25.62h6.64c.86,0,1.27.7,1.27,1.39,0,.74-.41,1.44-1.27,1.44h-6.72v1.39h4.96c.74,0,1.07.61,1.07,1.23s-.33,1.23-1.07,1.23h-4.96v1.39h4.96c.74,0,1.07.61,1.07,1.23s-.33,1.23-1.07,1.23h-4.96v1.44h7.26c.86,0,1.27.7,1.27,1.39,0,.74-.41,1.44-1.27,1.44h-14.31c-3.65,0-4.35-1.03-4.35-3.4v-4.63c-.16.16-.29.33-.45.49-.49.53-1.07.74-1.56.74-.94,0-1.68-.74-1.68-1.64,0-.45.16-.94.57-1.39,1.56-1.72,3.24-4.26,4.3-6.52.37-.74,1.03-1.02,1.68-1.02h.21c-.29-.25-.49-.57-.49-.98v-.49h-4.47c-.94,0-1.44-.86-1.44-1.68,0-.86.49-1.68,1.44-1.68h4.47v-1.07c0-.98.94-1.48,1.89-1.48s1.89.49,1.89,1.48v1.07h4.63v-1.07c0-.98.94-1.48,1.89-1.48s1.89.49,1.89,1.48v1.07h4.26c.98,0,1.48.82,1.48,1.68s-.49,1.68-1.48,1.68h-4.26v.49c0,.94-.94,1.43-1.89,1.43s-1.89-.49-1.89-1.43v-.49h-4.63v.49c0,.94-.94,1.43-1.89,1.43h-.29c.37.29.62.66.62,1.15,0,.25-.08.49-.21.78l-.12.21h3.24ZM255.06,64.1c-.94,0-1.44-.82-1.44-1.6,0-.82.49-1.6,1.44-1.6h14.27c2.26,0,3.61,1.15,3.61,2.62,0,.9-.49,1.89-1.6,2.79-.62.53-1.31,1.03-2.09,1.48,1.52.49,3.2.86,5,1.15,1.23.16,1.8,1.03,1.8,1.89,0,1.07-.9,2.13-2.46,1.89-3.08-.49-6.03-1.39-8.69-2.67-3.44,1.43-7.3,2.46-11.03,2.91-1.43.16-2.25-.78-2.25-1.76,0-.82.57-1.64,1.72-1.8,2.75-.37,5.37-.94,7.71-1.68-1.44-1.02-2.71-2.21-3.81-3.61h-2.17ZM263.06,47.58h-3.08c-.78,0-.9.12-.9.66v.74h3.98v-1.39ZM259.08,51.43v1.39h3.98v-1.39h-3.98ZM259.08,55.29v.78c0,.53.12.66.9.66h3.08v-1.44h-3.98ZM262.11,64.1c.9.78,1.93,1.44,2.99,2.01.9-.45,1.76-.94,2.46-1.48.16-.12.25-.21.25-.33s-.16-.21-.49-.21h-5.21Z"/>
        <path class="cls-3" d="M314.64,49.26c1.19,0,1.8,1.07,1.8,2.13s-.62,2.13-1.8,2.13h-14.43v13.04h12.83c1.19,0,1.8,1.07,1.8,2.13s-.62,2.13-1.8,2.13h-29.81c-1.15,0-1.76-1.07-1.76-2.13s.62-2.13,1.76-2.13h12.3v-13.04h-14.19c-1.15,0-1.76-1.07-1.76-2.13s.62-2.13,1.76-2.13h14.19v-11.73c0-1.23,1.19-1.84,2.34-1.84s2.34.61,2.34,1.84v11.73h14.43Z"/>
        <path class="cls-3" d="M326.48,56.48c-1.64.16-3.2.25-4.71.29-1.19.04-1.76-.94-1.76-1.93s.53-1.93,1.68-1.93c.66,0,1.31-.04,2.01-.08.86-1.19,1.72-2.42,2.54-3.69-1.52-1.8-3.2-3.57-4.71-5.04-.45-.41-.62-.86-.62-1.31,0-.98.9-1.89,1.93-1.89.41,0,.9.16,1.31.53l.08.08c.9-1.56,1.76-3.4,2.5-5.17.33-.86,1.11-1.23,1.84-1.23,1.07,0,2.13.7,2.13,1.8,0,.21-.04.45-.16.74-.94,2.21-2.17,4.55-3.48,6.64.41.45.86.94,1.27,1.48.82-1.44,1.6-2.79,2.21-4.02.37-.74,1.03-1.07,1.68-1.07,1.02,0,2.09.82,2.09,1.84,0,.33-.08.62-.25.94-1.56,2.87-3.73,6.31-5.82,9.1,1.19-.08,2.34-.16,3.49-.29-.16-.33-.37-.66-.53-.94s-.25-.57-.25-.82c0-.86.86-1.56,1.76-1.56.57,0,1.15.25,1.56.86.98,1.39,2.09,3.57,2.75,5.37.08.25.12.45.12.66,0,1.07-1.03,1.72-1.97,1.72-.7,0-1.31-.33-1.6-1.07-.08-.25-.21-.53-.29-.82-.86.16-1.76.29-2.62.37v15.5c0,1.07-1.02,1.6-2.09,1.6s-2.09-.53-2.09-1.6v-15.09ZM323.94,58.69c.98,0,1.93.66,1.8,1.8-.33,2.75-1.07,5.58-1.84,7.46-.37.86-1.07,1.23-1.8,1.23-.9,0-1.8-.66-1.8-1.64,0-.25.04-.49.16-.78.7-1.6,1.44-4.31,1.8-6.72.12-.9.9-1.35,1.68-1.35ZM336.32,64.92c.25,1.35-.78,2.13-1.8,2.13-.78,0-1.52-.45-1.68-1.35-.29-1.76-.78-3.85-1.35-5.54-.04-.16-.08-.33-.08-.49,0-.86.86-1.48,1.76-1.48.66,0,1.35.33,1.64,1.15.62,1.72,1.19,3.81,1.52,5.58ZM347.35,40.77c-.53,5.54-2.75,9.76-6.44,12.92-.57.53-1.19.74-1.76.74-1.15,0-2.09-.94-2.09-2.01,0-.61.29-1.31.98-1.89,2.87-2.38,4.63-5.49,5.12-9.76h-3.98c-1.15,0-1.72-.98-1.72-1.93s.57-1.93,1.72-1.93h12.83c3.4,0,4.84,1.44,4.76,4.1-.04,3.12-.41,6.15-.94,8.28-.7,2.95-2.25,4.14-5,4.14-.86,0-1.76-.08-2.71-.25-1.23-.2-1.76-1.11-1.76-2.01,0-1.15.9-2.3,2.42-2.01.62.12,1.07.2,1.56.2.7,0,1.11-.25,1.35-1.11.49-1.76.78-4.39.82-6.6,0-.66-.29-.9-1.11-.9h-4.06ZM344.28,71.93c-3.81,0-5.12-1.6-5.12-4.39v-7.26c0-2.79,1.31-4.26,5.12-4.26h6.97c3.85,0,5.12,1.48,5.12,4.26v7.38c-.08,3.49-1.97,4.18-5.12,4.26h-6.97ZM350.84,68.24c.98,0,1.27-.33,1.27-1.15v-6.23c0-.82-.29-1.15-1.27-1.15h-6.19c-.94,0-1.23.33-1.23,1.15v6.23c.04.9.37,1.11,1.23,1.15h6.19Z"/>
        <path class="cls-3" d="M397.91,49.06c1.03.49,1.48,1.35,1.48,2.21,0,1.15-.9,2.3-2.25,2.3-.41,0-.9-.12-1.44-.41-5.58-2.99-11.56-7.63-15.91-12.75-4.26,5.17-9.96,10.04-15.87,13.45-.41.25-.82.33-1.19.33-1.19,0-2.13-1.03-2.13-2.17,0-.74.37-1.48,1.27-2.01,6.31-3.69,11.97-8.77,16.11-14.51.53-.74,1.31-1.02,2.05-1.02,1.19,0,2.3.78,2.3,1.93,0,.21-.04.41-.12.66,4.02,4.76,9.88,9.18,15.7,12.01ZM371.22,51.89c0-1.23,1.15-1.84,2.3-1.84s2.3.61,2.3,1.84v3.9c0,7.3-2.67,13-7.95,16.89-.57.41-1.19.61-1.68.61-1.23,0-2.13-.94-2.13-2.05,0-.7.37-1.44,1.19-2.09,4.18-3.2,5.99-7.38,5.99-13.57v-3.69ZM384.21,51.89c0-1.23,1.15-1.84,2.3-1.84s2.3.61,2.3,1.84v19.27c0,1.23-1.15,1.84-2.3,1.84s-2.3-.61-2.3-1.84v-19.27Z"/>
      </g>
    </g>
  </g>
</svg>