<?xml version="1.0" encoding="UTF-8"?>
<svg id="Layer_2" xmlns="http://www.w3.org/2000/svg" viewBox="0 0 183 115.66">
  <defs>
    <style>
      .cls-1 {
        fill: #bbdd94;
      }

      .cls-2 {
        fill: #ffdc6e;
      }

      .cls-3 {
        fill: #381c09;
      }
    </style>
  </defs>
  <g id="content">
    <g>
      <g>
        <path class="cls-1" d="M6,17.87V.3h3.52v17.57h-3.52Z"/>
        <path class="cls-1" d="M18.3.3h3.52v17.57h-2.85l-4.22-9.07.05,9.07h-3.52V.3h2.9l4.12,9.55V.3Z"/>
        <path class="cls-1" d="M27.1.3h7.02v2.92h-3.52v14.65h-3.5V3.22h-3.52V.3h3.52Z"/>
        <path class="cls-1" d="M42.4,11.17l2.9,6.7h-3.5l-2.4-5.87v5.87h-3.52V.3h3.57c4.4,0,5.62,2.92,5.62,5.75,0,2.05-.67,4.12-2.67,5.12ZM39.4,3.22v5.6h.28c1.6,0,2.15-.83,2.15-2.82,0-2.28-.6-2.77-2.15-2.77h-.28Z"/>
        <path class="cls-1" d="M58.57,9.2c0,2.12-.3,8.97-5.77,8.97-5.02,0-5.75-6.82-5.75-9.1,0-2.7.72-9.07,5.75-9.07,5.47,0,5.77,6.97,5.77,9.2ZM55.07,9.25c0-2.02-.22-6.75-2.27-6.75-1.83,0-2.22,3.97-2.22,6.57,0,1.57.25,6.42,2.22,6.42s2.27-4.75,2.27-6.25Z"/>
        <path class="cls-1" d="M64.45.3c5.47,0,5.97,6.5,5.97,8.7s-.5,8.87-5.97,8.87h-4.12V.3h4.12ZM64.42,14.95c1.95,0,2.3-4.2,2.3-5.7,0-2.08-.28-6.02-2.28-6.02h-.6v11.72h.58Z"/>
        <path class="cls-1" d="M79.2.3h3.52v12.3c0,2.9-2.15,5.47-5.27,5.47s-5.27-2.57-5.27-5.47V.3h3.52v12.9c0,.97.78,1.75,1.75,1.75s1.75-.77,1.75-1.75V.3Z"/>
        <path class="cls-1" d="M88,9.07c0,1.57.3,6.05,2.22,6.05.9,0,1.92-.27,2.42-1.05l1.57,2.52c-1.07,1.08-2.17,1.55-4,1.55-5.02,0-5.75-6.82-5.75-9.07,0-2.7.72-9.07,5.75-9.07,1.67,0,3.02.5,4,1.5l-1.62,2.72c-.4-.52-1.05-1.35-2.45-1.35-1.83,0-2.15,3.6-2.15,6.2Z"/>
        <path class="cls-1" d="M104.75.3v2.92h-5.25v4.4h3.75v2.92h-3.75v4.4h5.25v2.92h-8.77V.3h8.77Z"/>
      </g>
      <rect class="cls-2" y="110.66" width="183" height="5"/>
      <g>
        <path class="cls-3" d="M6.4,54c-1.04,0-1.55-.92-1.55-1.81s.52-1.81,1.55-1.81h20.61v-3.11c0-.89-.3-1.18-1.48-1.18H5.03c-1.04,0-1.59-.93-1.59-1.85s.55-1.81,1.59-1.81h10.29v-11.8c0-1.07,1.04-1.63,2.07-1.63s2.07.55,2.07,1.63v11.8h6.92c3.29,0,4.77,1.26,4.77,4.03v11.88c0,2.78-1.48,4.07-4.77,4.07H4.66c-1.04,0-1.59-.92-1.59-1.85s.56-1.85,1.59-1.85h20.87c1.18,0,1.48-.3,1.48-1.18v-3.52H6.4ZM12.32,37.05c.26.41.37.85.37,1.22,0,1.18-1.11,2.07-2.22,2.07-.67,0-1.3-.3-1.7-1-.89-1.52-1.92-3-2.85-4.14-.33-.44-.48-.85-.48-1.26,0-1.07,1.04-1.89,2.15-1.89.59,0,1.22.22,1.7.81,1.11,1.33,2.26,2.89,3.03,4.18ZM27.05,31.5c1.04,0,2.11.78,2.11,1.92,0,.3-.07.63-.26,1-1.04,2-2.33,3.88-3.55,5.4-.52.63-1.15.89-1.78.89-1.07,0-2.04-.78-2.04-1.81,0-.37.15-.81.48-1.22,1.3-1.55,2.41-3.33,3.4-5.18.37-.7,1-1,1.63-1Z"/>
        <path class="cls-3" d="M58.16,46.97v-4.03c0-1.04,1.04-1.55,2.04-1.55s2.04.52,2.04,1.55v4.03h7.36c1.07,0,1.63.89,1.63,1.78s-.55,1.78-1.63,1.78h-7.36v11.36c0,1.04-1,1.55-2.04,1.55s-2.04-.52-2.04-1.55v-11.36h-6.62c-.78,5.77-3.88,10.25-9.29,12.84-.37.19-.74.26-1.11.26-1.15,0-1.92-.93-1.92-1.92,0-.7.41-1.44,1.33-1.89,4.07-1.96,6.25-4.92,6.88-9.29h-8.03c-1.04,0-1.59-.89-1.59-1.78s.55-1.78,1.59-1.78h8.25v-3.66c0-1.04,1.04-1.55,2.04-1.55s2.04.52,2.04,1.55v3.66h6.44ZM41.37,41.08c-1.22.04-1.85-.92-1.85-1.89,0-.89.55-1.78,1.78-1.78,1.41-.04,2.85-.04,4.29-.11,1.78-2.26,3.44-4.81,4.62-7.14.44-.85,1.22-1.18,1.92-1.18,1.07,0,2.07.74,2.07,1.74,0,.3-.07.63-.3.96-1.11,1.96-2.26,3.74-3.52,5.44,3.59-.22,7.18-.48,10.77-.85-.56-.41-1.11-.81-1.63-1.18-.52-.37-.74-.85-.74-1.29,0-.89.85-1.74,1.89-1.74.41,0,.78.11,1.18.37,2.55,1.63,5.25,3.85,7.25,5.88.48.48.67,1,.67,1.48,0,1-.89,1.85-1.89,1.85-.56,0-1.11-.22-1.59-.74-.55-.59-1.15-1.22-1.81-1.81-7.59,1.15-15.84,1.81-23.13,2Z"/>
        <path class="cls-3" d="M75.33,39.38c-.96,0-1.48-.92-1.48-1.85s.52-1.85,1.48-1.85h10.18c1,0,1.52.93,1.52,1.85s-.52,1.85-1.52,1.85h-10.18ZM79.03,62.92c-2.66,0-3.55-1.11-3.55-3.29v-4.74c0-2.22.89-3.33,3.55-3.33h3.48c2.66,0,3.55,1.11,3.55,3.33v4.74c-.04,2.48-1.18,3.26-3.55,3.29h-3.48ZM77.18,33.94c-.93,0-1.41-.89-1.41-1.74s.48-1.74,1.41-1.74h6.96c.96,0,1.44.85,1.44,1.74s-.48,1.74-1.44,1.74h-6.96ZM77.18,44.6c-.93,0-1.41-.89-1.41-1.74s.48-1.74,1.41-1.74h6.96c.96,0,1.44.85,1.44,1.74s-.48,1.74-1.44,1.74h-6.96ZM77.18,49.82c-.93,0-1.41-.89-1.41-1.74s.48-1.74,1.41-1.74h6.96c.96,0,1.44.85,1.44,1.74s-.48,1.74-1.44,1.74h-6.96ZM81.73,59.62c.52,0,.7-.22.7-.81v-3.15c0-.59-.18-.78-.7-.78h-1.92c-.52,0-.7.18-.7.78v3.15c0,.52.18.81.7.81h1.92ZM96.9,38.16c.19-.41.33-.81.44-1.22.26-.74.92-1.07,1.59-1.07.85,0,1.67.48,1.67,1.26,0,.15,0,.33-.07.48-.07.18-.15.37-.22.55h6c.78,0,1.15.63,1.15,1.26,0,.67-.37,1.29-1.15,1.29h-6.07v1.26h4.48c.67,0,.96.55.96,1.11s-.3,1.11-.96,1.11h-4.48v1.26h4.48c.67,0,.96.56.96,1.11s-.3,1.11-.96,1.11h-4.48v1.29h6.55c.78,0,1.15.63,1.15,1.26,0,.67-.37,1.29-1.15,1.29h-12.91c-3.29,0-3.92-.92-3.92-3.07v-4.18c-.15.15-.26.3-.41.44-.44.48-.96.67-1.41.67-.85,0-1.52-.67-1.52-1.48,0-.41.15-.85.52-1.26,1.41-1.55,2.92-3.85,3.89-5.88.33-.67.92-.92,1.52-.92h.19c-.26-.22-.44-.52-.44-.89v-.44h-4.03c-.85,0-1.29-.78-1.29-1.52,0-.78.44-1.52,1.29-1.52h4.03v-.96c0-.89.85-1.33,1.7-1.33s1.7.44,1.7,1.33v.96h4.18v-.96c0-.89.85-1.33,1.7-1.33s1.7.44,1.7,1.33v.96h3.85c.89,0,1.33.74,1.33,1.52s-.44,1.52-1.33,1.52h-3.85v.44c0,.85-.85,1.3-1.7,1.3s-1.7-.44-1.7-1.3v-.44h-4.18v.44c0,.85-.85,1.3-1.7,1.3h-.26c.33.26.55.59.55,1.04,0,.22-.07.44-.18.7l-.11.18h2.92ZM89.76,55.63c-.85,0-1.29-.74-1.29-1.44,0-.74.44-1.44,1.29-1.44h12.88c2.04,0,3.26,1.04,3.26,2.37,0,.81-.44,1.7-1.44,2.52-.55.48-1.18.93-1.89,1.33,1.37.44,2.89.78,4.51,1.04,1.11.15,1.63.93,1.63,1.7,0,.96-.81,1.92-2.22,1.7-2.78-.44-5.44-1.26-7.84-2.41-3.11,1.3-6.59,2.22-9.95,2.63-1.3.15-2.04-.7-2.04-1.59,0-.74.52-1.48,1.55-1.63,2.48-.33,4.85-.85,6.96-1.52-1.29-.93-2.44-2-3.44-3.26h-1.96ZM96.98,40.71h-2.78c-.7,0-.81.11-.81.59v.67h3.59v-1.26ZM93.39,44.19v1.26h3.59v-1.26h-3.59ZM93.39,47.67v.7c0,.48.11.59.81.59h2.78v-1.29h-3.59ZM96.13,55.63c.81.7,1.74,1.3,2.7,1.81.81-.41,1.59-.85,2.22-1.33.15-.11.22-.19.22-.3s-.15-.19-.44-.19h-4.7Z"/>
        <path class="cls-3" d="M118.73,62.33c-4.18,0-5.74-1.74-5.74-5.07v-21.09c0-3.33,1.55-5.07,5.74-5.07h19.5c4.22,0,5.74,1.74,5.74,5.07v21.09c-.07,3.92-2.11,5-5.74,5.07h-19.5ZM137.42,58.7c1.85,0,2.44-.55,2.44-2.04v-19.91c0-1.48-.59-2.04-2.44-2.04h-17.87c-1.81,0-2.44.56-2.44,2.04v19.91c.04,1.67.92,2,2.44,2.04h17.87ZM120.4,44.01c-1.04,0-1.59-.89-1.59-1.74s.55-1.74,1.59-1.74h10.1v-3.07c0-1.07.96-1.59,1.92-1.59s1.92.52,1.92,1.59v3.07h2.92c1.07,0,1.59.89,1.59,1.74s-.52,1.74-1.59,1.74h-2.92v9.07c0,3.11-1.55,4.14-4.4,4.14-.96,0-1.78-.07-2.74-.26-1.07-.22-1.52-1-1.52-1.81,0-1.07.81-2.11,2.15-1.85.56.11,1.15.19,1.7.19.7,0,.96-.19.96-.89v-8.58h-10.1ZM127.35,48.34c.33.41.48.85.48,1.26,0,1.07-.92,1.96-1.96,1.96-.44,0-.89-.15-1.29-.59-.92-1-1.85-1.96-2.63-2.63-.44-.37-.63-.85-.63-1.26,0-.96.89-1.85,1.96-1.85.37,0,.78.11,1.18.41,1,.74,2.07,1.74,2.89,2.7Z"/>
        <path class="cls-3" d="M149.37,51.28c0-7.29,6.05-13.28,14.85-13.28,7.81,0,12.32,4.9,12.32,11.26,0,5.79-3.42,10.05-8.93,11.81-.26.1-.51.13-.74.13-1.09,0-1.79-.9-1.79-1.82,0-.7.38-1.41,1.34-1.76,4.54-1.63,6.37-4.38,6.37-8.35,0-4.19-2.85-7.65-7.71-8-.32,5.31-1.63,10.11-3.62,13.6-1.76,3.1-3.65,4.03-6.11,4.03-3.26,0-5.98-2.62-5.98-7.62ZM153.05,51.28c0,2.94,1.15,4.03,2.3,4.03.99,0,1.86-.51,2.78-2.14,1.63-2.85,2.82-6.98,3.2-11.68-4.77.93-8.29,5.06-8.29,9.79Z"/>
        <path class="cls-3" d="M21.17,96.86v-4.03c0-1.04,1.04-1.55,2.04-1.55s2.04.52,2.04,1.55v4.03h7.36c1.07,0,1.63.89,1.63,1.78s-.55,1.78-1.63,1.78h-7.36v11.36c0,1.04-1,1.55-2.04,1.55s-2.04-.52-2.04-1.55v-11.36h-6.62c-.78,5.77-3.89,10.25-9.29,12.84-.37.19-.74.26-1.11.26-1.15,0-1.92-.92-1.92-1.92,0-.7.41-1.44,1.33-1.89,4.07-1.96,6.25-4.92,6.88-9.29H2.4c-1.04,0-1.59-.89-1.59-1.78s.55-1.78,1.59-1.78h8.25v-3.66c0-1.04,1.04-1.55,2.04-1.55s2.04.52,2.04,1.55v3.66h6.44ZM4.37,90.97c-1.22.04-1.85-.92-1.85-1.89,0-.89.55-1.78,1.78-1.78,1.41-.04,2.85-.04,4.29-.11,1.78-2.26,3.44-4.81,4.62-7.14.44-.85,1.22-1.18,1.92-1.18,1.07,0,2.07.74,2.07,1.74,0,.3-.07.63-.3.96-1.11,1.96-2.26,3.74-3.52,5.44,3.59-.22,7.18-.48,10.77-.85-.55-.41-1.11-.81-1.63-1.18-.52-.37-.74-.85-.74-1.3,0-.89.85-1.74,1.89-1.74.41,0,.78.11,1.18.37,2.55,1.63,5.25,3.85,7.25,5.88.48.48.67,1,.67,1.48,0,1-.89,1.85-1.89,1.85-.55,0-1.11-.22-1.59-.74-.55-.59-1.15-1.22-1.81-1.81-7.58,1.15-15.84,1.81-23.13,2Z"/>
        <path class="cls-3" d="M38.33,89.27c-.96,0-1.48-.92-1.48-1.85s.52-1.85,1.48-1.85h10.18c1,0,1.52.92,1.52,1.85s-.52,1.85-1.52,1.85h-10.18ZM42.03,112.8c-2.66,0-3.55-1.11-3.55-3.29v-4.74c0-2.22.89-3.33,3.55-3.33h3.48c2.66,0,3.55,1.11,3.55,3.33v4.74c-.04,2.48-1.18,3.26-3.55,3.29h-3.48ZM40.18,83.83c-.93,0-1.41-.89-1.41-1.74s.48-1.74,1.41-1.74h6.96c.96,0,1.44.85,1.44,1.74s-.48,1.74-1.44,1.74h-6.96ZM40.18,94.49c-.93,0-1.41-.89-1.41-1.74s.48-1.74,1.41-1.74h6.96c.96,0,1.44.85,1.44,1.74s-.48,1.74-1.44,1.74h-6.96ZM40.18,99.71c-.93,0-1.41-.89-1.41-1.74s.48-1.74,1.41-1.74h6.96c.96,0,1.44.85,1.44,1.74s-.48,1.74-1.44,1.74h-6.96ZM44.73,109.51c.52,0,.7-.22.7-.81v-3.15c0-.59-.18-.78-.7-.78h-1.92c-.52,0-.7.19-.7.78v3.15c0,.52.18.81.7.81h1.92ZM59.9,88.05c.19-.41.33-.81.44-1.22.26-.74.92-1.07,1.59-1.07.85,0,1.67.48,1.67,1.26,0,.15,0,.33-.07.48-.07.19-.15.37-.22.55h6c.78,0,1.15.63,1.15,1.26,0,.67-.37,1.29-1.15,1.29h-6.07v1.26h4.48c.67,0,.96.56.96,1.11s-.3,1.11-.96,1.11h-4.48v1.26h4.48c.67,0,.96.55.96,1.11s-.3,1.11-.96,1.11h-4.48v1.3h6.55c.78,0,1.15.63,1.15,1.26,0,.67-.37,1.29-1.15,1.29h-12.91c-3.29,0-3.92-.92-3.92-3.07v-4.18c-.15.15-.26.3-.41.44-.44.48-.96.67-1.41.67-.85,0-1.52-.67-1.52-1.48,0-.41.15-.85.52-1.26,1.41-1.55,2.92-3.85,3.89-5.88.33-.67.92-.93,1.52-.93h.19c-.26-.22-.44-.52-.44-.89v-.44h-4.03c-.85,0-1.29-.78-1.29-1.52,0-.78.44-1.52,1.29-1.52h4.03v-.96c0-.89.85-1.33,1.7-1.33s1.7.44,1.7,1.33v.96h4.18v-.96c0-.89.85-1.33,1.7-1.33s1.7.44,1.7,1.33v.96h3.85c.89,0,1.33.74,1.33,1.52s-.44,1.52-1.33,1.52h-3.85v.44c0,.85-.85,1.29-1.7,1.29s-1.7-.44-1.7-1.29v-.44h-4.18v.44c0,.85-.85,1.29-1.7,1.29h-.26c.33.26.55.59.55,1.04,0,.22-.07.44-.18.7l-.11.18h2.92ZM52.76,105.52c-.85,0-1.29-.74-1.29-1.44,0-.74.44-1.44,1.29-1.44h12.88c2.04,0,3.26,1.04,3.26,2.37,0,.81-.44,1.7-1.44,2.52-.55.48-1.18.92-1.89,1.33,1.37.44,2.89.78,4.51,1.04,1.11.15,1.63.92,1.63,1.7,0,.96-.81,1.92-2.22,1.7-2.78-.44-5.44-1.26-7.84-2.41-3.11,1.29-6.59,2.22-9.95,2.63-1.3.15-2.04-.7-2.04-1.59,0-.74.52-1.48,1.55-1.63,2.48-.33,4.85-.85,6.96-1.52-1.29-.92-2.44-2-3.44-3.26h-1.96ZM59.98,90.6h-2.78c-.7,0-.81.11-.81.59v.67h3.59v-1.26ZM56.39,94.08v1.26h3.59v-1.26h-3.59ZM56.39,97.56v.7c0,.48.11.59.81.59h2.78v-1.3h-3.59ZM59.13,105.52c.81.7,1.74,1.29,2.7,1.81.81-.41,1.59-.85,2.22-1.33.15-.11.22-.18.22-.3s-.15-.18-.44-.18h-4.7Z"/>
        <path class="cls-3" d="M106.52,92.12c1.07,0,1.63.96,1.63,1.92s-.55,1.92-1.63,1.92h-13.03v11.77h11.58c1.07,0,1.63.96,1.63,1.92s-.55,1.92-1.63,1.92h-26.9c-1.04,0-1.59-.96-1.59-1.92s.56-1.92,1.59-1.92h11.1v-11.77h-12.8c-1.04,0-1.59-.96-1.59-1.92s.56-1.92,1.59-1.92h12.8v-10.58c0-1.11,1.07-1.67,2.11-1.67s2.11.55,2.11,1.67v10.58h13.03Z"/>
        <path class="cls-3" d="M117.22,98.63c-1.48.15-2.89.22-4.26.26-1.07.04-1.59-.85-1.59-1.74s.48-1.74,1.52-1.74c.59,0,1.18-.04,1.81-.07.78-1.07,1.55-2.18,2.29-3.33-1.37-1.63-2.89-3.22-4.25-4.55-.41-.37-.55-.78-.55-1.18,0-.89.81-1.7,1.74-1.7.37,0,.81.15,1.18.48l.07.07c.81-1.41,1.59-3.07,2.26-4.66.3-.78,1-1.11,1.67-1.11.96,0,1.92.63,1.92,1.63,0,.19-.04.41-.15.67-.85,2-1.96,4.11-3.15,6,.37.41.78.85,1.15,1.33.74-1.29,1.44-2.52,2-3.63.33-.67.92-.96,1.52-.96.93,0,1.89.74,1.89,1.67,0,.3-.07.56-.22.85-1.41,2.59-3.37,5.7-5.25,8.21,1.07-.07,2.11-.15,3.15-.26-.15-.3-.33-.59-.48-.85-.15-.26-.22-.52-.22-.74,0-.78.78-1.41,1.59-1.41.52,0,1.04.22,1.41.78.89,1.26,1.89,3.22,2.48,4.85.07.22.11.41.11.59,0,.96-.92,1.55-1.78,1.55-.63,0-1.18-.3-1.44-.96-.07-.22-.19-.48-.26-.74-.78.15-1.59.26-2.37.33v13.99c0,.96-.93,1.44-1.89,1.44s-1.89-.48-1.89-1.44v-13.62ZM114.92,100.63c.89,0,1.74.59,1.63,1.63-.3,2.48-.96,5.03-1.67,6.74-.33.78-.96,1.11-1.63,1.11-.81,0-1.63-.59-1.63-1.48,0-.22.04-.44.15-.7.63-1.44,1.29-3.89,1.63-6.07.11-.81.81-1.22,1.52-1.22ZM126.1,106.26c.22,1.22-.7,1.92-1.63,1.92-.7,0-1.37-.41-1.52-1.22-.26-1.59-.7-3.48-1.22-5-.04-.15-.07-.3-.07-.44,0-.78.78-1.33,1.59-1.33.59,0,1.22.3,1.48,1.04.56,1.55,1.07,3.44,1.37,5.03ZM136.05,84.46c-.48,5-2.48,8.81-5.81,11.66-.52.48-1.07.67-1.59.67-1.04,0-1.89-.85-1.89-1.81,0-.55.26-1.18.89-1.7,2.59-2.15,4.18-4.96,4.62-8.81h-3.59c-1.04,0-1.55-.89-1.55-1.74s.52-1.74,1.55-1.74h11.58c3.07,0,4.37,1.3,4.29,3.7-.04,2.81-.37,5.55-.85,7.47-.63,2.66-2.04,3.74-4.51,3.74-.78,0-1.59-.07-2.44-.22-1.11-.18-1.59-1-1.59-1.81,0-1.04.81-2.07,2.18-1.81.56.11.96.18,1.41.18.63,0,1-.22,1.22-1,.44-1.59.7-3.96.74-5.96,0-.59-.26-.81-1-.81h-3.66ZM133.27,112.58c-3.44,0-4.62-1.44-4.62-3.96v-6.55c0-2.52,1.18-3.85,4.62-3.85h6.29c3.48,0,4.62,1.33,4.62,3.85v6.66c-.07,3.15-1.78,3.77-4.62,3.85h-6.29ZM139.2,109.25c.89,0,1.15-.3,1.15-1.04v-5.62c0-.74-.26-1.04-1.15-1.04h-5.59c-.85,0-1.11.3-1.11,1.04v5.62c.04.81.33,1,1.11,1.04h5.59Z"/>
        <path class="cls-3" d="M181.67,91.94c.92.44,1.33,1.22,1.33,2,0,1.04-.81,2.07-2.04,2.07-.37,0-.81-.11-1.3-.37-5.03-2.7-10.43-6.88-14.36-11.51-3.85,4.66-8.99,9.07-14.32,12.14-.37.22-.74.3-1.07.3-1.07,0-1.92-.92-1.92-1.96,0-.67.33-1.33,1.15-1.81,5.7-3.33,10.8-7.92,14.54-13.1.48-.67,1.18-.92,1.85-.92,1.07,0,2.07.7,2.07,1.74,0,.18-.04.37-.11.59,3.63,4.29,8.92,8.29,14.17,10.84ZM157.58,94.49c0-1.11,1.04-1.67,2.07-1.67s2.07.56,2.07,1.67v3.51c0,6.59-2.4,11.73-7.18,15.25-.52.37-1.07.55-1.52.55-1.11,0-1.92-.85-1.92-1.85,0-.63.33-1.29,1.07-1.89,3.77-2.89,5.4-6.66,5.4-12.25v-3.33ZM169.31,94.49c0-1.11,1.04-1.67,2.07-1.67s2.07.56,2.07,1.67v17.39c0,1.11-1.04,1.67-2.07,1.67s-2.07-.55-2.07-1.67v-17.39Z"/>
      </g>
    </g>
  </g>
</svg>