<?xml version="1.0" encoding="UTF-8"?>
<svg id="Layer_2" xmlns="http://www.w3.org/2000/svg" viewBox="0 0 361.62 88.44">
  <defs>
    <style>
      .cls-1 {
        fill: #bbdd94;
      }

      .cls-2 {
        fill: none;
        stroke: #ffdc6e;
        stroke-linecap: round;
        stroke-linejoin: round;
        stroke-width: 4px;
      }

      .cls-3 {
        fill: #381c09;
      }
    </style>
  </defs>
  <g id="content">
    <g>
      <path class="cls-3" d="M26.99,54.51v-4.47c0-1.15,1.15-1.72,2.26-1.72s2.25.57,2.25,1.72v4.47h8.16c1.19,0,1.8.98,1.8,1.97s-.61,1.97-1.8,1.97h-8.16v12.59c0,1.15-1.11,1.72-2.25,1.72s-2.26-.57-2.26-1.72v-12.59h-7.34c-.86,6.4-4.31,11.36-10.29,14.23-.41.2-.82.29-1.23.29-1.27,0-2.13-1.02-2.13-2.13,0-.78.45-1.6,1.48-2.09,4.51-2.17,6.93-5.45,7.63-10.29H6.2c-1.15,0-1.76-.98-1.76-1.97s.62-1.97,1.76-1.97h9.14v-4.06c0-1.15,1.15-1.72,2.25-1.72s2.26.57,2.26,1.72v4.06h7.13ZM8.37,47.99c-1.35.04-2.05-1.02-2.05-2.09,0-.98.62-1.97,1.97-1.97,1.56-.04,3.16-.04,4.76-.12,1.97-2.5,3.81-5.33,5.12-7.91.49-.94,1.35-1.31,2.13-1.31,1.19,0,2.3.82,2.3,1.93,0,.33-.08.7-.33,1.07-1.23,2.17-2.5,4.14-3.9,6.03,3.98-.25,7.95-.53,11.93-.94-.62-.45-1.23-.9-1.8-1.31-.57-.41-.82-.94-.82-1.44,0-.98.94-1.93,2.09-1.93.45,0,.86.12,1.31.41,2.83,1.8,5.82,4.26,8.04,6.52.53.53.74,1.11.74,1.64,0,1.11-.98,2.05-2.09,2.05-.61,0-1.23-.25-1.76-.82-.61-.66-1.27-1.35-2.01-2.01-8.41,1.27-17.55,2.01-25.63,2.21Z"/>
      <path class="cls-3" d="M46.01,46.1c-1.07,0-1.64-1.02-1.64-2.05s.57-2.05,1.64-2.05h11.27c1.11,0,1.68,1.02,1.68,2.05s-.57,2.05-1.68,2.05h-11.27ZM50.11,72.18c-2.95,0-3.94-1.23-3.94-3.65v-5.25c0-2.46.98-3.69,3.94-3.69h3.85c2.95,0,3.94,1.23,3.94,3.69v5.25c-.04,2.75-1.31,3.61-3.94,3.65h-3.85ZM48.06,40.08c-1.02,0-1.56-.98-1.56-1.93s.53-1.93,1.56-1.93h7.71c1.07,0,1.6.94,1.6,1.93s-.53,1.93-1.6,1.93h-7.71ZM48.06,51.89c-1.02,0-1.56-.98-1.56-1.93s.53-1.93,1.56-1.93h7.71c1.07,0,1.6.94,1.6,1.93s-.53,1.93-1.6,1.93h-7.71ZM48.06,57.67c-1.02,0-1.56-.98-1.56-1.93s.53-1.93,1.56-1.93h7.71c1.07,0,1.6.94,1.6,1.93s-.53,1.93-1.6,1.93h-7.71ZM53.1,68.53c.57,0,.78-.25.78-.9v-3.48c0-.66-.21-.86-.78-.86h-2.13c-.57,0-.78.21-.78.86v3.48c0,.57.21.9.78.9h2.13ZM69.91,44.75c.21-.45.37-.9.49-1.35.29-.82,1.03-1.19,1.76-1.19.94,0,1.85.53,1.85,1.39,0,.16,0,.37-.08.53l-.25.62h6.64c.86,0,1.27.7,1.27,1.39,0,.74-.41,1.44-1.27,1.44h-6.72v1.39h4.96c.74,0,1.07.61,1.07,1.23s-.33,1.23-1.07,1.23h-4.96v1.39h4.96c.74,0,1.07.61,1.07,1.23s-.33,1.23-1.07,1.23h-4.96v1.44h7.26c.86,0,1.27.7,1.27,1.39,0,.74-.41,1.44-1.27,1.44h-14.31c-3.65,0-4.35-1.03-4.35-3.4v-4.63c-.16.16-.29.33-.45.49-.49.53-1.07.74-1.56.74-.94,0-1.68-.74-1.68-1.64,0-.45.16-.94.57-1.39,1.56-1.72,3.24-4.26,4.31-6.52.37-.74,1.02-1.02,1.68-1.02h.2c-.29-.25-.49-.57-.49-.98v-.49h-4.47c-.94,0-1.44-.86-1.44-1.68,0-.86.49-1.68,1.44-1.68h4.47v-1.07c0-.98.94-1.48,1.89-1.48s1.89.49,1.89,1.48v1.07h4.63v-1.07c0-.98.94-1.48,1.89-1.48s1.89.49,1.89,1.48v1.07h4.26c.98,0,1.48.82,1.48,1.68s-.49,1.68-1.48,1.68h-4.26v.49c0,.94-.94,1.43-1.89,1.43s-1.89-.49-1.89-1.43v-.49h-4.63v.49c0,.94-.94,1.43-1.89,1.43h-.29c.37.29.62.66.62,1.15,0,.25-.08.49-.21.78l-.12.21h3.24ZM62,64.1c-.94,0-1.44-.82-1.44-1.6,0-.82.49-1.6,1.44-1.6h14.27c2.25,0,3.61,1.15,3.61,2.62,0,.9-.49,1.89-1.6,2.79-.61.53-1.31,1.03-2.09,1.48,1.52.49,3.2.86,5,1.15,1.23.16,1.8,1.03,1.8,1.89,0,1.07-.9,2.13-2.46,1.89-3.08-.49-6.03-1.39-8.69-2.67-3.44,1.43-7.3,2.46-11.03,2.91-1.44.16-2.26-.78-2.26-1.76,0-.82.57-1.64,1.72-1.8,2.75-.37,5.37-.94,7.71-1.68-1.44-1.02-2.71-2.21-3.81-3.61h-2.17ZM70,47.58h-3.08c-.78,0-.9.12-.9.66v.74h3.98v-1.39ZM66.02,51.44v1.39h3.98v-1.39h-3.98ZM66.02,55.29v.78c0,.53.12.66.9.66h3.08v-1.44h-3.98ZM69.05,64.1c.9.78,1.93,1.44,2.99,2.01.9-.45,1.76-.94,2.46-1.48.16-.12.25-.21.25-.33s-.16-.21-.49-.21h-5.21Z"/>
      <path class="cls-3" d="M121.57,49.26c1.19,0,1.8,1.07,1.8,2.13s-.61,2.13-1.8,2.13h-14.43v13.04h12.83c1.19,0,1.8,1.07,1.8,2.13s-.62,2.13-1.8,2.13h-29.81c-1.15,0-1.76-1.07-1.76-2.13s.61-2.13,1.76-2.13h12.3v-13.04h-14.19c-1.15,0-1.76-1.07-1.76-2.13s.62-2.13,1.76-2.13h14.19v-11.73c0-1.23,1.19-1.84,2.34-1.84s2.34.61,2.34,1.84v11.73h14.43Z"/>
      <path class="cls-3" d="M134.04,55.82c0-.2,0-.41.04-.61-1.31.66-2.75,1.19-4.3,1.72-.21.08-.41.08-.57.08-1.02,0-1.72-.9-1.72-1.85,0-.66.37-1.35,1.31-1.64,3.4-1.07,5.86-2.34,7.54-3.98h-3.03c-.29.98-1.23,1.35-2.09,1.35-1.03,0-2.01-.57-2.01-1.48,0-.16.04-.29.08-.45.37-1.19.82-2.54,1.15-3.77.57-2.17,1.44-3.07,4.35-3.07h4.67c.04-.62.08-1.23.12-1.85h-9.35c-.9,0-1.35-.74-1.35-1.48,0-.7.45-1.44,1.35-1.44h9.35v-1.15c0-1.07.98-1.6,1.97-1.6s2.05.57,2.05,1.64v1.11h4.51v-1.11c0-1.07,1.02-1.6,2.01-1.6s2.01.53,2.01,1.6v1.11h5.33c2.79,0,3.98.82,3.98,2.87v1.76c0,2.05-1.19,2.87-3.98,2.87h-5.33v1.84h8.61c2.13,0,3.24.78,3.24,2.3,0,.25-.04.49-.08.78-.12.66-.29,1.27-.53,1.93-.61,1.76-1.64,2.42-3.61,2.42-.7,0-1.64-.08-2.21-.21.33.57.41,1.23.41,1.89v8.2c-.04,2.95-1.97,3.36-4.55,3.4h-1.8l.12.04c2.42.78,5.99,1.64,9.59,2.17,1.15.16,1.64.98,1.64,1.8,0,1.03-.78,2.05-2.17,1.8-3.85-.61-7.79-1.64-10.5-2.62-.9-.37-1.27-1.02-1.27-1.64,0-.66.41-1.31,1.11-1.56h-8.73c.7.29,1.15.94,1.15,1.6,0,.62-.37,1.23-1.23,1.6-3.08,1.15-6.89,2.13-10.58,2.67-1.35.25-2.13-.78-2.13-1.76,0-.82.49-1.6,1.64-1.76,3.32-.45,6.68-1.27,9.47-2.25.08-.04.16-.04.25-.08h-1.35c-3.4,0-4.55-1.07-4.55-3.4v-8.2ZM138.34,46.72c.25-.61.45-1.23.66-1.84h-3.44c-.7,0-.94.16-1.11.74-.08.37-.21.74-.29,1.11h4.18ZM153.92,55.9c0-.66-.16-.78-1.31-.78h-13.24c-1.15,0-1.31.12-1.31.78v.78h15.87v-.78ZM138.06,60.66h15.87v-1.56h-15.87v1.56ZM152.61,64.72c1.15,0,1.31-.16,1.31-.82v-.82h-15.87v.82c0,.86.57.82,1.31.82h13.24ZM138.59,52.42h14.8c1.31,0,2.3.16,2.99.49-.04-.12-.04-.25-.04-.37,0-.78.62-1.6,1.6-1.44.49.08.7.12.98.12.33,0,.49-.08.62-.41.08-.21.16-.49.21-.7.08-.37-.04-.57-.45-.57h-7.17v.9c0,1.03-1.03,1.52-2.01,1.52s-2.01-.49-2.01-1.52v-.9h-7.13c-.74,1.07-1.6,2.01-2.58,2.87h.21ZM148.1,46.72v-1.84h-5.08c-.16.61-.37,1.23-.57,1.84h5.66ZM148.1,42.13v-1.85h-4.51c-.04.62-.08,1.23-.12,1.85h4.63ZM156.71,42.13c.53,0,.7-.21.7-.62v-.7c0-.37-.16-.53-.7-.53h-4.59v1.85h4.59Z"/>
      <path class="cls-3" d="M197.1,36.84c3.85,0,5.54,1.8,5.54,5.08v24.35c0,3.53-1.52,5.49-5.04,5.49-.86,0-1.97-.04-3.03-.25-1.23-.25-1.8-1.19-1.8-2.13,0-1.19.94-2.42,2.58-2.13.66.12,1.03.16,1.6.16.9,0,1.19-.45,1.19-1.68v-6.4h-8.98v9.88c0,1.19-1.11,1.76-2.21,1.76s-2.21-.57-2.21-1.76v-9.88h-8.65c-.66,4.76-1.93,8.32-3.94,11.48-.57.9-1.35,1.27-2.09,1.27-1.19,0-2.25-.9-2.25-2.13,0-.45.12-.9.41-1.39,2.58-4.26,3.85-9.23,3.85-17.96v-8.69c0-3.28,1.72-5.08,5.58-5.08h19.48ZM184.71,55.41v-5.37h-8.16v.61c0,1.6-.04,3.16-.12,4.76h8.28ZM184.71,46.1v-5.25h-5.9c-1.76,0-2.26.49-2.26,2.05v3.2h8.16ZM189.14,46.1h8.98v-3.2c0-1.56-.45-2.05-2.21-2.05h-6.77v5.25ZM189.14,50.04v5.37h8.98v-5.37h-8.98Z"/>
      <path class="cls-3" d="M217.45,42.72c1.15,0,2.3.76,2.05,2.23-1.22,5.9-1.66,10.8-1.66,15.91,0,2.63.32,6.05.65,8.46.18,1.4-.94,2.2-2.05,2.2-.97,0-1.94-.54-2.09-1.76-.32-2.3-.61-5.87-.61-8.89,0-5.36.43-10.22,1.69-16.63.22-1.04,1.12-1.51,2.02-1.51ZM233.8,64.86c1.62,0,3.6-.18,5.44-.54,1.48-.29,2.34.86,2.34,1.98,0,.83-.47,1.69-1.58,1.91-2.12.43-4.25.61-6.23.61-6.66,0-9.43-2.02-9.83-6.37-.11-1.4,1.01-2.2,2.09-2.2.86,0,1.69.5,1.84,1.55.32,2.23,1.44,3.06,5.94,3.06ZM239.48,47.79c0,.9-.58,1.8-1.84,1.98-3.17.43-6.73.72-10.15.79-1.4.04-2.09-.94-2.09-1.94,0-.94.65-1.91,1.94-1.94,3.35-.07,6.77-.36,9.9-.79,1.44-.14,2.23.86,2.23,1.91Z"/>
      <path class="cls-3" d="M269.28,42.87c7.34,0,12.3,3.94,12.3,10.21,0,7.83-5.82,13.33-17.1,14.92-1.72.29-2.75-.98-2.75-2.3,0-.98.66-2.01,2.05-2.25,9.59-1.64,12.96-4.96,12.96-10.37,0-3.16-2.38-5.86-7.46-5.86s-11.64,1.64-18.98,4.88c-.41.16-.82.25-1.19.25-1.35,0-2.3-1.07-2.3-2.25,0-.86.49-1.76,1.68-2.26,7.38-3.24,14.88-4.96,20.79-4.96Z"/>
      <path class="cls-3" d="M291.96,40.04c1.27,0,2.5.78,2.42,2.3-.08,1.27-.16,2.25-.16,3.73,0,14.35,2.91,18.12,4.63,18.12.98,0,1.84-.66,2.67-3.73.29-1.23,1.19-1.76,2.09-1.76,1.19,0,2.34.86,2.34,2.21,0,.25,0,.45-.08.7-1.52,5.49-4.14,7.5-6.89,7.5-5.95,0-9.55-7.34-9.55-22.92,0-1.89.08-3.12.16-4.18.12-1.31,1.27-1.97,2.38-1.97ZM322.87,57.42c.08.33.16.62.16.86,0,1.35-1.15,2.17-2.3,2.17-.86,0-1.76-.45-2.17-1.56-1.48-3.77-4.14-8.08-7.09-11.15-.49-.49-.7-1.03-.7-1.52,0-1.15,1.11-2.09,2.34-2.09.57,0,1.23.25,1.8.78,3.44,3.2,6.56,8.32,7.95,12.5Z"/>
      <path class="cls-3" d="M349.44,44.83c-4.92.66-11.44,1.64-17.34,2.5-1.72.25-2.71-1.02-2.71-2.3,0-1.07.66-2.09,2.13-2.26,8.53-1.11,19.11-2.25,27.63-3.03,1.6-.12,2.46,1.02,2.46,2.17,0,.98-.61,1.97-1.89,2.21-1.43.25-2.99.78-4.51,1.64-6.4,3.65-7.75,7.91-7.75,11.81,0,4.55,3.16,7.34,8.9,8.04,1.52.21,2.21,1.31,2.21,2.42,0,1.27-.94,2.54-2.67,2.42-7.75-.57-13.2-5.78-13.2-12.75,0-4.31,2.09-9.14,6.72-12.79v-.08Z"/>
    </g>
    <g>
      <path class="cls-1" d="M163.92.3c4.07,0,5.27,3.07,5.27,5.92s-.92,5.7-5.25,5.7h-.43v5.95h-3.52V.3h3.92ZM163.92,8.97c1.23,0,2.02-.83,2.02-2.82,0-2.27-.5-2.92-2.02-2.92h-.4v5.75h.4Z"/>
      <path class="cls-1" d="M177.47,11.17l2.9,6.7h-3.5l-2.4-5.87v5.87h-3.52V.3h3.57c4.4,0,5.62,2.92,5.62,5.75,0,2.05-.67,4.12-2.67,5.12ZM174.47,3.22v5.6h.27c1.6,0,2.15-.82,2.15-2.82,0-2.27-.6-2.77-2.15-2.77h-.27Z"/>
      <path class="cls-1" d="M182.12,17.87V.3h3.52v17.57h-3.52Z"/>
      <path class="cls-1" d="M190.92,9.07c0,1.57.3,6.05,2.22,6.05.9,0,1.92-.28,2.42-1.05l1.57,2.52c-1.07,1.07-2.17,1.55-4,1.55-5.02,0-5.75-6.82-5.75-9.07,0-2.7.72-9.07,5.75-9.07,1.67,0,3.02.5,4,1.5l-1.62,2.72c-.4-.52-1.05-1.35-2.45-1.35-1.82,0-2.15,3.6-2.15,6.2Z"/>
      <path class="cls-1" d="M207.67.3v2.92h-5.25v4.4h3.75v2.92h-3.75v4.4h5.25v2.92h-8.77V.3h8.77Z"/>
    </g>
    <path class="cls-2" d="M2,80.44c5.71,0,5.71,6,11.42,6s5.71-6,11.42-6,5.71,6,11.42,6,5.71-6,11.42-6,5.71,6,11.42,6,5.71-6,11.42-6,5.71,6,11.42,6,5.71-6,11.42-6,5.71,6,11.42,6,5.71-6,11.42-6,5.71,6,11.42,6,5.71-6,11.42-6,5.71,6,11.42,6,5.71-6,11.42-6,5.71,6,11.43,6,5.71-6,11.42-6,5.72,6,11.43,6,5.72-6,11.43-6"/>
  </g>
</svg>