<?xml version="1.0" encoding="UTF-8"?>
<svg id="Layer_2" xmlns="http://www.w3.org/2000/svg" viewBox="0 0 442.23 95.69">
  <defs>
    <style>
      .cls-1 {
        fill: #bbdd94;
      }

      .cls-2 {
        fill: #381c09;
      }

      .cls-3 {
        fill: #f26d57;
        fill-rule: evenodd;
      }
    </style>
  </defs>
  <g id="content">
    <g>
      <path class="cls-3" d="M328.04,31.45c.46.25.95.33,1.45-.01-.75.08-1.11-.84-1.45.01Z"/>
      <path class="cls-3" d="M271.91,47.67s.01,0,.02,0c0,0,0,0,0,0,0,0-.02,0-.03,0Z"/>
      <path class="cls-3" d="M270.9,49.44c-.05-.06-.14-.09-.27-.1.11.06.2.09.27.1Z"/>
      <path class="cls-3" d="M272.35,47.5c-.17.03-.3.08-.41.17.16-.01.37.04.41-.17Z"/>
      <path class="cls-3" d="M303.78,73.96s.08.04.14.05c-.04-.04-.09-.06-.14-.05Z"/>
      <path class="cls-3" d="M307.72,76.66c1.74-.93,3.54-.58,5.27-.6.16-.31-.06-1.21.38-1.11-.11.42.15.54.06.94,2.21-.69,4.12-.18,5.98-1.19,1.39.55,4.66.11,6.19-1.16.9.88,1.31-.79,2.03.31.68-.31-.61-1.01.21-1.37.16.33.06.88.47,1,1.62-.87,3.85-.82,5.11-2.26,1.23.46,4.11-1.34,5.21-2.94-1.03.33-4.13-.62-4.7.92-.83-.2-4.34-.11-6.72.61-1.3.39-3.93,2.92-3.08,1.17-.31,0-.74-.19-.84.11,1.03.47-.9-.09-1.1.41.09-.81-.67.11-1.2-.29-.2.83-.87.92-1.25,1.44l.14-.91c-.68.28-1.04.5-1.01-.15-.05.86-1.28-.1-1.52.47.36.22-.43,1-.78,1.05-.74-.75-2.31-.39-2.57.54.04-.3-.32-.26-.34-.52.25.01.49,0,.47-.39-1.39.37-2.56-.42-3.21.68.34.28.78-.58.81.12-.08.25-.28.32-.47.4-.88-.78-1.36-.06-1.75-.73-.38.83-1.25.88-2.03,1.09.06-.29.31-.28.31-.65-.48-.08-.66.3-1.25.04-.54.23.26.74-.34.88-.23-1.35-1.66-.41-2.26-.54.21.17.38.7-.04.66-.23-.07-.17-.39-.1-.71-.67,0-1.14.32-1.56.7.23-.59-.35-.5-.5-.78-.13.65-1.36-.41-1.49.24.5.34-.41.84-.58,1.08.05-.4.15-.7.34-.88-.53-.52-1.26-.12-1.59-.47-.35.12-.12,1.12-.75.82.54-.76-.33-.12-.74-.58-.42,1.75-2.45-.7-3.34.19.21.09.43.45.13.49-1.62-.36-2.75-1.42-4.32-.19-.55-.27-1.01-.62-1.52-.93-5.57.32-11.19-2.25-15.36-3.96.01-1.01-1.14-1.42-1.89-1.22-.15-.64-.07-.73-.74-.58.85-.97-1.22-.27-.23-1.2-4.07-1.6-2.51-9.81.65-12.5-.15-.07-.4-.07-.37-.29.78-.06,1.92-1.46,1.32-1.9.53-.18,1.5-.21.75-.82.83-.23,1.64-.48,1.73-1.84,1.49-.02,2.05-1.58,3.05-2.34,3.89-2.96,8.42-4.81,12.29-7.24l.81.12c.13-.64.47-.69,1.02-1.25,2.45.5,3.33-1.44,5.58-1.25.07-.26.06-.65.31-.65,2.62-.28,4.98-.95,6.97-2.21.54,1.18,1.5-.29,2-.86,2.59.88,7.27-.43,8.52-1.51,2.02,1.37,5.07-1.11,7.06-.1.14-.38-.21-.63.1-.68.19,1.08,1.32.13,2.19.57.09-.34.05-.85.34-.88.16,1.72,2.72-.17,3.61.78.37-.08.15-1.08.58-1.08,1.22.25,1.25.28,1.92.99.13-1.35.53-.1,1.05-.07.04-.31.17-.49.31-.65-.29-.37-1.23.19-.87-1.07.62-.26,2.14.63,1.04,1.32,1.11-.26,1.5-.59,2.67.17.3-.98-.43.12-.34-.52.21-.46,1.47-.54,1.42.21-.24,0-.57-.13-.64.14.22.57.71-.35.54.55,1.16.13,1.3-.21,1.76-.67.32.2.23.74.47,1,.3-.4,1.61.35,2.3-.12-.21-.09-.43-.45-.13-.49.37.59.62.47,1.22.18-.39,1.2,2.22.71,3.04.46.02.4-.39.54-.1.68.6-.52,1.16-.47,1.22-1.21.52.63.5.46.03,1.17.15.07.21.23.13.49.6-.52,1.26.31,1.76-.67-.89-1.12-.72-2.12-.22-4-.8.43-2.2-.79-2.6-.63.23.28-.34,1.72-.71.59-.44,1.33.7.59.88,1.06l-.07.46c-.31-.5-.73-.18-1.22-.18.16-1.07.17-2.22-.74-1.98,1.03.29-.56.12-.34.88.37.09.65.25.74.58-.63-.07-1.11-.27-1.35-.67,1.03-.6-.24-.44-.34-.52.07-.36.54-.1.51-.62-1.18.02-2.32.44-3.48-.29-2.21,1.52-3.96-.03-5.61.08.08.22.71.97.27.97-.1-.21-.84-.86-.98-.38.3.1-.03.38-.27.43-.09-.88.54-.67.78-1.05-1.13-1.06-.31,1.24-1.59.93.05-.68.94-.72.17-1.14-.59.72-1.09.06-1.69.21.46.14.38.69-.1.68.06-1.32-1.73-.64-2.56-.85.13.91-.24,1.22.09,2.11-.32.07-.56.26-.88.33.27-.82-.17-1.06-.87-1.06-.34.68.23.6.27.97-1.2.08-.24-2.18.38-1.11-.06-.35.42-1.14-.03-1.17-.42,1.02-1.61.22-2.09.15-.29.71.62.41.47,1-.76-.33-.63.72-1.49.24.24-.92-.58.14-.5-.78-1.11.33-2.15.22-1.19.99-1.09-.11-1.72.13-2.4-.6-.26.76-1.21.09-2.3.12-.53.49-.94,1.18-1.66,1.38.04-.31.17-.49.31-.65-2.18-.16-3.57,1.06-5.31.83-.3,1.19.81.27.91.84-.22.31-.58.41-1.08.3.06-.65-.21-1.03-.87-1.07-.36.48.39.94-.14.91-.52-.5-.58-.47-1.38-.44-.88.77-.33,2.09-1.56,2.1.65-.55-.26-.26-.3-.75.45.14.77.06.88-.33-.84-.45-1.18-.16-1.72.44-.32-.07-.07-.61-.54-.55-.47.41-.43.15-.1.68-.77-.02-1.15-.04-2.26-.11.05,1.26-.76,1.19-1.35.73-.49,1.14-1.5,1.43-2.37.57-.05.74-1.01.69-1.28.27-.39.92.79.54.87,1.07-1.51-.47-1.62-.01-3.95.1-.54.62-.23,1.07-1.56.7-.14.38.21.63-.1.68-.27-.04-.12-.43-.34-.52-.47.58-1.03,1.04-1.83,1.12.15.04.02.91-.14.91-.14-.42-.47-.67-1.15-.64-.03,1.25-.73.18-1.39.96.15.27.74.18.5.78-.76-.33-.63.72-1.49.24,0-.27.13-.64-.1-.71-.11.86-.91.66-1.56.7-.06.57-.25.93-.58,1.08-1.01-.71-1.91,1.18-3.08,1.17-.14.52-.1.88.03,1.17-.25-.4-.87-.39-.88.33-.01.49.6-.25.54.55-.27-.04-.25.37-.47.39-.19-.37-.02-1.05-.67-1.04-.35.86-.71.88-1.52.47.18.94-.6.39-.75.82.58-.02-.35,1.22.23,1.2,0-.41,1.2-.23.78.35-.56-.29-.65-.4-1.05.07-.06-.74-.68-.87-1.18-.41.86.03-.2.67-.34.88.01-.34-.46-.28-.78-.35-.71.72-1.03,2.48-2.15,2.01-.66.52-.3,1.93-1.04,1.77.23.24-.17.82-.21.84-.52-.05-.99-.02-1.28.27.22.08.28.3.34.52-.58-.13-1.04-.1-1.28.27.41.82-.08,1.23.3,2.15-.82-.39-.81-.09-1.49.24.51.04.99.11.94.61-.56.38-.92-.55-1.45.01.17.25.34.51.5.78-.58.79-.22-.3-.84.1-.27.76.69.49.67,1.04-.64.46-.99-.09-1.72.44.34.7,1.17-.25,1.15.64-.92.05-.83.4-.58,1.08-.31.28-.98,0-1.28.27-.27.75.69.49.67,1.03-1.35.4-.72,1.49-.85,2.9-.28-.16-.46-.41-.74-.58-.28,1.4,1.23.54,1.25,1.36-.21.43-1.12-.23-1.28.27.44.73,1.15,1.73,1.82,1.68-.39.15-.77.32-.78,1.05.41.43,1.71.83,1.01,1.55.46.38.77-.8.84-.1-.58.59.61.97.5,2.18,1.57-.07,1.1,1,1.99.54l-.1.68c1.69.22,1.61,1.25,3.37.98-.04.32-.17.49-.31.65.93.31,1.43-.05,2.26.11-.04.31-.17.49-.31.65,1.54.2,2.73.41,3.51.07-.2,1.46,1.14.85.37.29l.81.12c-.06.29-.31.28-.31.65,1.31-.45,3.8,1.04,4.36-.04,1.09,1.68,3.47,1.34,4.83.96.4.4-.34.52.1.71.61-.13.25-.74.54-.85.28,1.69,3.85.46,5.06.77.09.02-.12.48.13.49.51.01,1.05-.48,1.52-.47,1.93.06,6.36.09,6.79.33,1.28.71,2.35-.52,3.62-.62.78-.06,2.14.64,2.4.6ZM340.28,28.63c.61-.42-.6.35-.1.69.28.06.57.12.64-.14.18.18.13.56.54.55-.36.29-.94.23-1.49.24.3-.78-.34-1.25.41-1.34ZM339.1,28.22c.63,0,.31.81.43,1.23-.28-.06-.57-.13-.64.14-.47-.57.64-.58.21-1.37ZM337.34,30.29c.31-.27.91-.09,1.45-.01.17.76-1.4.24-.75.82-.33.57-1.08-.14-.71-.81ZM335.61,30.72l1.01.15c-.14.17-.27.34-.31.65-.54-.02-.86-.22-.71-.81ZM327.71,30.93c-.2.07-.39.15-.47.39-.66-.18.68-.91-.03-1.17.33-.63.61.39.5.78ZM328.32,28.22c-.48.83-.67-.49-1.66-.02.36-.59,1.16-.29,1.66.02ZM322.21,28.93c-.07.32-.13.64.1.71-.47.63-.57-1.32-1.38-.44-.16-.36.68-.71,1.28-.27ZM303.81,34.07c-.73.07-.82-.38-1.15-.64.52-.5,1.28-.31,1.15.64ZM294.01,35.85c-.03.61-.51.52-.91.56.13-.38-.09-.45-.34-.52.45-.59.56-.13,1.25-.04ZM287.04,39.46l.61.09c.02.6.21.94-.54.85,0-.2.11-.2.24-.2-.1-.25-.43-.31-.3-.75Z"/>
      <path class="cls-3" d="M376.26,48.32c-.44-.26-.86-1.06-.4-1.46-.53-.25-.48.39-.88.33.45-.38.11-.57.17-1.14l.61.09c.02-.54-.25-1,.21-1.37-.34-.52-.41.04-.84.1-.02-.81.15-1.35-.77-1.75,1.35-1.2-1.63-1.97-2.12-2.42.66.14.86.33,1.28-.27-1.19-.88-2.4-.97-3.53-1.95.45,0,.73-.26.84-.79-.49-.05-.8.19-.93.71-.06-.06-.13-.12-.19-.18.1-.32.39-.33.51-.62-.32-.07-.71-.08-.54-.55-.66-.51-1.16.61-1.25.04,0-.46.34-.41.51-.62-1.02-1.04-1.92-.64-2.97-.92-.47-.12-.38-.85-.91-.84-.32,0-.69.64-.91.56-.08-.03-.31-.89-.47-1-.51-.36-1.28.43-1.38-.44.42-.38.58.41.88-.33-1.03-.57-3.11-.75-3.71-1.5-.57-.12-.58.61-1.12.53l.1-.68c-1.35.11-1.46-.21-2.09.15.13-.51.08-.87-.27-.97-.07.26-.06.65-.31.65-.38-.68-1.03-1.13-1.62-1.65.23.86-.22.54-.41,1.34.61.38.27-.72.88-.33.1.33.21,1.66-.04,1.63-.29-.09-.1-.58-.06-.94-.58-.3-1.62.09-1.62-.25.09-.43.69-.06.71-.59-1.13-.1-1.8.5-2.63-.4.74.18,2.39.32,1.93-.41-.98.65-1.7-.43-1.75-.73-.62.11-.28.31-.34.88-.76.44-1.39-.66-1.89.18.04-.32.17-.49.31-.65-.55-.17-1.36.68-1.66-.02.42-.29,1.17-.07,1.52-.47-.68-.55-1.22.5-1.18-.41-.51.16-.73,1.6-1.35.73.06.53.59,1.1-.04,1.63.28.17,1.09-.11.98.38-.93.68-.09,1.32.09,2.11,1.47-.51,1.86,1.52,2.47.14.14.61.8.8,1.52.93.29-.3.33-.99.95-.79,0,.56-.45.44-.38,1.11.35.07.64.04.84-.11.13-.44-.21-.49-.3-.75.41.38.85-.47.81.12-.32.25-.76,1-.17,1.14.38-1.77,2.38,1.99,3.11,0-.71.06-.59-.57-.91-.84,1.03.27,1.65.88,2.02,1.71.07-.36.09-.79.51-.62-.71.88.52-.07.54.55-.07.36-.54.1-.51.62.68.03,1.13-.64,1.42.21-.31,0-.74-.19-.84.1,1.19.99,2.66-1.51,3.04.46-.28-.1-.28-.43-.54-.55-.02.54-.17.87-.38,1.11.89.01,1.15.11,1.66.02.26-.68-.66-.38-.23-1.2l.61.09c-.37.6.33.93-.44,1.57.5.61,1.74.72,1.28,1.13l1.01.15c.01-.92.61-.94,1.18-.99-.23.31-.29.86-.91.56-.11.42.15.54.06.94.81.52,2.28.94,3.58,1.01-.28.6-.68-.56-.88.33.28,1.13,1.41.32,2.12,1.02-.31.08-1.01-.42-1.05.08.53.28,1.03,1.23,1.75.73-.05.29-.31.28-.31.65.24.06.47.14.34.52.59.26.77-.12,1.25-.04-.51,1.31,1.62,3.32,2.25,4.31-.5.3-.17,1.59.13,1.89-1.87,7.99-7.83,9.69-12.75,13,.15.07.4.07.37.29-.48,0-.9.32-1.22-.18-2.6,2.3-7.17,2.67-9.24,4.9-.1-.26-2.54.08-1.56.7-2-.45-2.77.99-4.5.95-.35.53.69.83.06.94-1.44-1.25-1.19.87-3.18.45-.68.31.45.79-.14.91-.59-1.08-2.56.43-2.64,1-.7-.74-1.29.71-2.33.35-.22.69-.61,1.13-.89,1.73-.13-.43-.56-.6-1.15-.64-.97,1.41-2.7,2.29-4.23,1.93-.27.61-.46,1.35-.88,1.73.04-.3-.32-.26-.34-.52.07-.36.54-.1.51-.62-.85-.03-1.14,1.12-1.25,1.44-.48,0-.13-.69-.5-.78-.61,1.37-1.68.36-2.3,1.52.96.22,2.38-.14,1.52.93-.2-.3-.68-.37-1.18-.41-.08.47-.61,1.65-.95.79.92-.21-.48-.96-.98-.38.27.76-.34,1-.71.59-.06.97.79,1.43-.11,2.08.23-.79,0-1.2-.4-1.46-.23.68-.67-.46-1.45.01.08,1.29-.75.34-1.22,1.22.73.44,1.57-.37,1.82.28-.72-.36-.73.38-1.12.53-.02-.18.06-.45-.13-.49-.13.31-.3.35-.1.68-.21-.35-.91-.46-1.22-.18.11.71-.1,1.68.3,2.14-.38-.11-.49.19-.84.1.28-.83-.7-.61-.64-1.26.03-.61.81-.06.75-.82-.99-.3-.95.97-1.46,1.41-1.37-.31-1.52.69-2.2.83.31.07.71.08.54.55-.65-.31-1.47.53-.98,1.02.14-.25.29-.48.51-.62.32.26,1.09.16.91.84-.87-.11-1.47.17-2.47-.14.01.87-.8.46-1.15.76-.24.6.33.52.27.97-.58-.04-.38,1.52-1.19.99.37-.29.29-.91-.03-1.17-.26,1.03-.73,1.62-1.35.73.1.77.45,2.06-.44,1.56.92.12-.12-.92-.23-1.2-.66.14-1.07,1.73-1.79.9-.19.96-2.07,1.23-1.16,2.16-1.12-.51-2.44.61-3.15,1.62.64-.41,2.78-.59,2.06-1.32,3.39,0,5.81-2.78,8.35-3.17.02-1.05.42-.47.88-.33-.07-.86.94-.05.95-.79-.15-.27-.74-.18-.5-.78.47.14.26.85.91.84,3.2-2.25,8.05-3.25,11.27-5.99,1.41.06,4.29-1.38,4.77-2.78,1.07,1.15,1.54-.72,2.74-.28.13-.44-.2-.49-.3-.75l1.42.21c.14-.9.93-.82,1.59-.92.34-.82-.71-.48-.44-1.23.48.2.3.95,1.11.87-.02-.78.47-.3.64-.14.79-1.79,7.29-2.76,6.5-4.61.44.92.82-.04,1.82.28.91-1.07,2.63-1.76,4.06-2.18.35-.53-.69-.84-.06-.94.2.29.27.71.94.61.04-.35.11-.55.31-.65,1.78-.96,3.56-1.55,5.35-2.46.5-.26-.17-.59.31-.65,1.18-.8,2.82-.9,3.65-2.25-.02.28-.02.55.34.52.26-.39-.49-.85.14-.91.43.5.54-.51,1.22.18.51-1.39.85-1.04,1.32-1.9.32.07.07.61.54.55.13-1.67,1.76-1.03,2.71-1.46-.24-.13-.37-.36-.3-.75.11.09.69.69.81.12-.07-.41-.55-.47-.71-.81,1.19.55,1.99-.02,2.97-.48-.77.11-.06-1.02-.43-1.23.91.38,1.21-.2,1.72-.44.02.18-.06.45.13.49.43-.95-.71-.6-.4-1.46.6-.01,1-.34,1.19-.99-.28-.17-1.09.11-.98-.38.41-.24.99.36,1.66.02-.1-1.77,1.51-3.19.66-4.33.37-.18.3-1.03.78-1.05-.84-1.34.59-2.17.55-3.65ZM350.67,33.94c-.66-.23.39-1.29,1.02-1.25-.22.6-.93.44-1.02,1.25ZM355.57,33.05c.72.07.72.9-.51.62.22-.98,1.01-1.06,1.66-1.38.45.45-.79.64-1.15.76ZM365.88,40.21c.15-.42.64-.33.58-1.08l.61.09c-.69.38-.02,1.23-1.19.99ZM367.44,39.51c.85-.25-.08.99.47,1-.61.61-.93-.55-.47-1ZM307.9,93.25c-.12-.89,1.23-.69,1.35-.72,0,0,0,0,0-.01.01,0,.01.01,0,.01-.05.17.05.21.17.25-.4.32-.84.58-1.52.47ZM314.84,89.87c-.23-.07-.37,0-.44.17-.56-.29-.18-.38-.06-.94l.4.06c-.07.19.05.23.17.26l-.07.46ZM317.31,88.61c-.58-.24.27-.46.14-.91.23.27.71.34.94.61,0,.65-1.08-.35-1.08.3Z"/>
      <g>
        <path class="cls-2" d="M0,61.11c0-.98.16-2.13.45-3.07.33-1.15,1.31-1.64,2.3-1.64,1.15,0,2.25.7,2.25,1.89,0,.16-.04.37-.08.57-.16.61-.25,1.44-.25,2.05,0,2.58,1.39,3.98,9.06,3.98,3.98,0,7.79-.49,11.19-1.19.25-.04.45-.08.66-.08,1.35,0,2.17,1.11,2.17,2.26,0,.98-.62,2.01-2.01,2.34-3.61.82-7.58,1.27-12.01,1.27-9.88,0-13.73-2.79-13.73-8.36ZM13.98,40.73c2.99,0,5.74-.21,7.75-.53,1.68-.21,2.58,1.02,2.58,2.25,0,.98-.57,1.97-1.84,2.21-2.46.37-5.33.57-8.45.57s-6.31-.25-8.94-.78c-1.23-.29-1.8-1.27-1.8-2.25,0-1.31.98-2.62,2.71-2.3,2.17.45,4.96.82,8,.82Z"/>
        <path class="cls-2" d="M37.27,56.93c0-9.35,7.75-17.02,19.02-17.02,10,0,15.79,6.27,15.79,14.43,0,7.42-4.39,12.87-11.44,15.13-.33.12-.66.16-.94.16-1.39,0-2.3-1.15-2.3-2.34,0-.9.49-1.8,1.72-2.25,5.82-2.09,8.16-5.62,8.16-10.7,0-5.37-3.65-9.8-9.88-10.25-.41,6.81-2.09,12.96-4.63,17.43-2.25,3.98-4.67,5.17-7.83,5.17-4.18,0-7.67-3.36-7.67-9.76ZM41.98,56.93c0,3.77,1.48,5.17,2.95,5.17,1.27,0,2.38-.66,3.57-2.75,2.09-3.65,3.61-8.94,4.1-14.97-6.11,1.19-10.62,6.48-10.62,12.55Z"/>
        <path class="cls-2" d="M97.33,40.57c0,1.44,0,2.83.04,4.18,2.83-.21,5.66-.57,8.08-1.11,1.64-.33,2.62.94,2.62,2.21,0,.94-.53,1.89-1.8,2.17-2.58.57-5.66.98-8.77,1.15.21,3.28.37,6.6.78,9.84,3.65,1.11,7.26,2.83,10.46,4.96.86.57,1.19,1.35,1.19,2.09,0,1.27-.98,2.46-2.38,2.46-.53,0-1.11-.16-1.72-.62-2.26-1.56-4.8-2.99-7.38-4.06-.49,4.1-3.73,6.93-9.35,6.93-5.12,0-8.73-2.34-8.73-6.52,0-3.61,3.32-6.64,8.86-6.64,1.39,0,2.83.12,4.3.33-.49-4.8-.9-10.46-.9-17.51v-2.54c0-1.31,1.19-1.93,2.38-1.93s2.34.61,2.34,1.93v2.67ZM93.81,62.42c-1.56-.37-3.12-.57-4.59-.57-2.67,0-3.98.98-3.98,2.42s1.15,2.21,3.85,2.21,4.71-1.56,4.71-4.06Z"/>
        <path class="cls-2" d="M126.08,52.62c-1.31,0-2.26-1.15-2.26-2.3,0-.78.45-1.6,1.52-2.05,3.89-1.72,8.61-2.71,11.81-2.71,6.44,0,9.47,2.91,9.47,8.41,0,6.31-2.87,12.87-9.06,17.22-.53.37-1.07.53-1.56.53-1.31,0-2.34-1.07-2.34-2.25,0-.7.33-1.44,1.19-2.05,5.12-3.77,7.01-8.32,7.01-13.41,0-2.67-1.11-4.06-4.63-4.06-2.46,0-6.27.78-10.09,2.42-.37.16-.74.25-1.07.25ZM143.09,38.4c1.03.41,1.48,1.27,1.48,2.13,0,1.19-.86,2.42-2.13,2.42-.25,0-.53-.08-.82-.16-2.58-.9-6.19-1.93-8.94-2.46-1.19-.25-1.72-1.15-1.72-2.09,0-1.31.98-2.67,2.67-2.42,2.95.41,6.76,1.48,9.47,2.58Z"/>
        <path class="cls-2" d="M170.27,37.25c.25-1.23,1.23-1.76,2.21-1.76,1.27,0,2.5.9,2.17,2.54-.33,1.56-.74,3.2-1.19,4.84,1.23-.2,2.46-.41,3.61-.61,1.56-.29,2.58.9,2.58,2.13,0,.9-.53,1.8-1.85,2.09-1.76.37-3.77.7-5.78.98-1.72,4.96-3.94,9.88-6.31,13.82-.62,1.03-1.48,1.48-2.3,1.48-1.23,0-2.3-.94-2.3-2.17,0-.45.12-.94.45-1.44,2.09-3.28,3.98-7.09,5.53-11.15-1.52.16-2.99.25-4.26.29-1.39.04-2.13-1.11-2.13-2.25,0-1.07.66-2.09,1.97-2.13,1.84-.08,3.9-.21,5.99-.41.62-2.09,1.19-4.18,1.6-6.23ZM177.61,71.61c-4.88,0-7.83-2.13-7.83-5.95,0-3.28,2.79-5.99,8.04-5.99.66,0,1.31.04,2.05.12-.29-1.89-.41-3.28-.41-4.35,0-1.76.08-2.66.29-3.98.21-1.15,1.15-1.64,2.13-1.64,1.23,0,2.46.78,2.25,2.21-.21,1.19-.29,2.21-.29,3.36s.12,2.75.57,5.33c2.62.78,5.33,1.97,7.71,3.57.78.53,1.11,1.23,1.11,1.93,0,1.15-.94,2.26-2.17,2.26-.41,0-.9-.16-1.39-.49-1.52-1.07-3.12-1.97-4.67-2.62-.08,4.59-3.44,6.23-7.38,6.23ZM180.52,64.92c0-.37,0-.7-.04-1.03-.9-.16-1.76-.25-2.58-.25-2.87,0-3.77.9-3.77,2.01,0,1.19.82,1.89,3.48,1.89,1.89,0,2.91-.82,2.91-2.62ZM193.15,45.78c.94.57,1.35,1.39,1.35,2.13,0,1.19-.98,2.26-2.17,2.26-.41,0-.82-.12-1.23-.37-1.93-1.11-4.06-2.17-5.86-2.83-1.03-.37-1.48-1.11-1.48-1.84,0-1.11.94-2.26,2.34-2.26.25,0,.49.04.78.12,1.97.53,4.51,1.68,6.27,2.79Z"/>
        <path class="cls-2" d="M216.23,36.43c0-1.23,1.15-1.84,2.26-1.84s2.25.61,2.25,1.84v5.37h14.47c1.19,0,1.8,1.03,1.8,2.05s-.62,2.05-1.8,2.05h-15.7c-.08,1.52-.29,3.03-.53,4.55h7.42c4.1,0,5.9,1.35,5.74,4.92-.16,3.61-.7,7.42-1.48,10.66-1.02,4.31-3.24,5.95-7.17,5.95-1.56,0-2.83-.12-4.26-.45-1.23-.29-1.8-1.23-1.8-2.13,0-1.15.78-2.25,2.13-2.25.16,0,.37.04.57.08,1.31.29,2.17.41,3.16.41,1.56,0,2.54-.66,3.03-2.62.7-2.75,1.19-6.15,1.31-9.27.04-.94-.25-1.27-1.31-1.27h-8.24c-2.21,8.04-6.72,13.74-13.33,17.63-.49.29-.94.41-1.35.41-1.31,0-2.25-1.11-2.25-2.25,0-.74.37-1.48,1.31-2.01,2.38-1.48,4.55-3.12,6.4-5.29,4.02-4.72,5.62-10.99,5.99-17.06h-12.59c-1.15,0-1.76-1.02-1.76-2.05s.62-2.05,1.76-2.05h13.98v-5.37Z"/>
        <path class="cls-2" d="M247.27,69.02c-.57.9-1.39,1.31-2.21,1.31-1.19,0-2.25-.82-2.25-2.05,0-.37.12-.82.37-1.27,2.58-4.55,4.72-10.17,6.27-16.03-1.68.21-3.32.49-4.88.82-1.6.33-2.5-.86-2.5-2.05,0-.94.57-1.89,1.84-2.13,2.09-.41,4.35-.7,6.52-.94.49-2.5.9-5.04,1.19-7.54.16-1.31,1.19-1.93,2.25-1.93,1.23,0,2.46.82,2.3,2.34-.25,2.21-.62,4.51-1.07,6.76.82-.04,1.56-.04,2.21-.04,5.25,0,7.17,2.38,7.17,8.82,0,3.85-.37,7.3-1.11,9.8-1.27,4.72-3.16,6.4-7.3,6.4-.98,0-2.01-.08-2.79-.2-1.39-.21-2.01-1.23-2.01-2.21,0-1.23.86-2.42,2.42-2.21.78.08,1.39.16,2.26.16,1.43,0,2.17-.45,2.87-2.87.7-2.34,1.07-5.53,1.07-8.9,0-3.69-.7-4.67-2.67-4.67-.9,0-1.93.04-3.03.12-1.64,6.77-4.06,13.37-6.93,18.53ZM277.04,52.46c.25.49.33.98.33,1.39,0,1.44-1.15,2.38-2.38,2.38-.82,0-1.72-.45-2.25-1.56-1.52-2.95-3.65-6.11-5.82-8.45-.45-.49-.66-1.03-.66-1.48,0-1.15,1.15-2.05,2.38-2.05.66,0,1.31.25,1.89.78,2.58,2.46,5.12,6.23,6.52,8.98ZM269.53,38.31c0-.82.82-1.56,1.72-1.56.37,0,.78.12,1.15.45,1.11.98,2.34,2.3,3.2,3.57.29.37.37.74.37,1.11,0,.9-.78,1.64-1.64,1.64-.49,0-.98-.25-1.35-.78-.98-1.35-2.09-2.54-3.03-3.49-.29-.33-.41-.66-.41-.94ZM273.59,35.03c0-.82.78-1.52,1.72-1.52.41,0,.82.16,1.23.49,1.07.9,2.3,2.17,3.16,3.36.33.41.45.82.45,1.23,0,.9-.78,1.56-1.64,1.56-.49,0-1.03-.21-1.43-.74-.94-1.19-2.09-2.42-3.03-3.4-.33-.33-.45-.66-.45-.98Z"/>
        <path class="cls-2" d="M289.3,37.21c0-1.23,1.11-1.84,2.21-1.84s2.21.61,2.21,1.84v5.66h5.33c1.15,0,1.72.98,1.72,2.01s-.57,2.01-1.72,2.01h-1.52c-.29,3.98-1.15,7.87-2.62,11.56,1.48,1.97,2.87,3.94,3.94,5.66.33.53.49,1.07.49,1.56,0,1.27-1.03,2.17-2.17,2.17-.7,0-1.48-.37-2.01-1.27-.66-1.11-1.48-2.34-2.38-3.61-1.97,3.44-4.39,6.4-7.17,8.65-.49.41-1.03.57-1.56.57-1.15,0-2.13-.9-2.13-2.01,0-.61.29-1.27,1.03-1.89,2.91-2.42,5.33-5.45,7.05-9.02-1.64-2.05-3.36-4.02-4.88-5.58-.53-.53-.74-1.07-.74-1.6,0-1.11,1.03-2.05,2.21-2.05.57,0,1.19.25,1.76.78,1.23,1.19,2.38,2.46,3.49,3.77.78-2.5,1.15-5.13,1.35-7.71h-9.18c-1.11,0-1.68-1.02-1.68-2.01s.57-2.01,1.68-2.01h5.29v-5.66ZM310.45,37.13c0-1.27,1.11-1.89,2.17-1.89s2.17.61,2.17,1.89v9.23h3.61c1.11,0,1.68.98,1.68,1.97s-.57,2.01-1.68,2.01h-3.61v17.02c0,3.44-1.27,5.21-5.21,5.21-1.11,0-1.97-.04-3.2-.29-1.11-.25-1.6-1.15-1.6-2.05,0-1.23.9-2.46,2.67-2.17.45.08,1.15.16,1.68.16,1.03,0,1.31-.33,1.31-1.56v-16.32h-8.16c-1.07,0-1.64-.98-1.64-2.01s.57-1.97,1.64-1.97h8.16v-9.23ZM307.58,57.71c.25.45.37.9.37,1.31,0,1.27-1.11,2.17-2.25,2.17-.74,0-1.48-.37-1.93-1.23-.66-1.15-1.43-2.34-2.34-3.53-.33-.45-.49-.9-.49-1.31,0-1.07,1.03-1.93,2.21-1.93.62,0,1.31.29,1.89.9.98,1.19,1.93,2.46,2.54,3.61Z"/>
        <path class="cls-2" d="M348.21,52.46c.57,1.6,1.31,3.12,2.17,4.59,1.8-1.11,3.32-2.26,4.92-3.69.45-.41.94-.57,1.39-.57,1.07,0,2.05.9,2.05,1.97,0,.49-.25,1.03-.78,1.48-1.72,1.39-3.57,2.62-5.58,3.77,2.01,2.58,4.39,4.72,7.01,6.36.86.53,1.19,1.27,1.19,1.93,0,1.07-.86,2.05-2.05,2.05-.49,0-1.03-.12-1.56-.49-5.21-3.44-10.17-9.96-12.59-17.38h-1.19c-.78.53-1.56,1.07-2.34,1.6,4.06,3.28,6.03,7.5,6.03,11.77,0,5.37-1.97,7.38-5.49,7.38-1.02,0-2.17-.12-3.03-.29-1.19-.25-1.68-1.07-1.68-1.89,0-1.11.9-2.21,2.38-1.93.7.16,1.39.25,2.13.25,1.07,0,1.68-.74,1.68-3.53,0-.41-.04-.86-.08-1.27-4.88,3.32-10.95,5.9-16.81,7.34-.25.08-.45.08-.66.08-1.11,0-1.76-.9-1.76-1.76,0-.78.45-1.52,1.44-1.76,5.74-1.39,11.64-3.85,16.85-7.3-.21-.53-.49-1.07-.78-1.56-4.51,2.75-9.8,4.96-14.68,6.23-.21.04-.41.08-.62.08-1.15,0-1.8-.86-1.8-1.76,0-.7.45-1.44,1.48-1.72,4.55-1.11,9.35-2.87,13.57-5.41-.37-.41-.78-.82-1.23-1.19-3.53,1.84-7.3,3.2-10.95,4.1-.21.04-.41.08-.57.08-1.15,0-1.8-.9-1.8-1.76,0-.74.45-1.44,1.52-1.68,4.06-.9,7.91-2.21,11.32-4.1h-4.3c-3.4,0-4.67-1.11-4.67-3.53v-2.34c0-.16,0-.37.04-.53-.7.49-1.35.94-2.05,1.35-.41.25-.82.37-1.23.37-1.11,0-1.97-.94-1.97-1.97,0-.66.33-1.31,1.19-1.8,3.73-2.21,7.42-5.7,9.84-8.98.49-.61,1.15-.9,1.76-.9,1.19,0,2.3.86,2.3,1.89,0,.33-.12.66-.41,1.03-.21.25-.41.49-.62.74h5.7c2.38,0,3.73.98,3.73,2.38,0,.53-.16,1.15-.57,1.76-.25.41-.45.78-.7,1.15h5.95c3.4,0,4.67,1.11,4.67,3.53v2.34c-.08,3.03-2.05,3.49-4.67,3.53h-3.08ZM334.31,40.98c-.74.74-1.48,1.43-2.25,2.13.29-.04.62-.04.94-.04h7.58c.37-.45.66-.9.9-1.35.12-.2.16-.33.16-.45,0-.21-.16-.29-.53-.29h-6.81ZM333.7,46.27c-.98,0-1.19.21-1.19.86v1.27c0,.66.21.86,1.19.86h5.9v-2.99h-5.9ZM350.59,49.26c.7,0,1.19-.04,1.19-.86v-1.27c0-.66-.21-.86-1.19-.86h-6.89v2.99h6.89Z"/>
        <path class="cls-2" d="M384.87,44.83c-4.92.66-11.44,1.64-17.34,2.5-1.72.25-2.71-1.03-2.71-2.3,0-1.07.66-2.09,2.13-2.25,8.53-1.11,19.11-2.26,27.63-3.03,1.6-.12,2.46,1.03,2.46,2.17,0,.98-.62,1.97-1.89,2.21-1.43.25-2.99.78-4.51,1.64-6.4,3.65-7.75,7.91-7.75,11.81,0,4.55,3.16,7.34,8.9,8.04,1.52.21,2.21,1.31,2.21,2.42,0,1.27-.94,2.54-2.67,2.42-7.75-.57-13.2-5.78-13.2-12.75,0-4.31,2.09-9.14,6.72-12.79v-.08ZM390.89,51.44c0-.82.82-1.56,1.72-1.56.37,0,.78.12,1.15.45,1.11.98,2.34,2.3,3.2,3.57.29.37.37.74.37,1.11,0,.9-.78,1.64-1.64,1.64-.49,0-.98-.25-1.35-.78-.98-1.35-2.09-2.54-3.03-3.49-.29-.33-.41-.66-.41-.94ZM394.95,48.15c0-.82.78-1.52,1.72-1.52.41,0,.82.16,1.23.49,1.07.9,2.3,2.17,3.16,3.36.33.41.45.82.45,1.23,0,.9-.78,1.56-1.64,1.56-.49,0-1.03-.21-1.44-.74-.94-1.19-2.09-2.42-3.03-3.4-.33-.33-.45-.66-.45-.98Z"/>
        <path class="cls-2" d="M424.96,62.46c-.74.66-1.8,1.02-3.03,1.02-4.02,0-6.97-2.71-6.97-7.38,0-4.02,2.54-6.81,6.35-6.81.86,0,1.68.12,2.46.33-.04-1.11-.08-2.17-.12-3.28-5.54.25-11.11.53-15.91.86-1.48.08-2.3-1.15-2.3-2.34,0-1.07.66-2.13,2.09-2.21,4.84-.29,10.46-.57,16.07-.78-.04-1.48-.04-3.16-.04-5,0-1.31,1.15-2.01,2.3-2.01s2.21.66,2.21,1.97v4.88c4.26-.12,8.36-.2,12.01-.2,1.43,0,2.13,1.11,2.13,2.25,0,1.07-.7,2.17-1.97,2.17-3.65,0-7.83.12-12.1.25.04,2.38.12,4.71.29,7.09.9,1.48,1.39,3.36,1.39,5.45,0,6.48-3.32,10.95-9.23,13.65-.41.16-.78.25-1.11.25-1.35,0-2.34-1.11-2.34-2.3,0-.78.45-1.6,1.6-2.09,3.32-1.44,5.58-3.77,6.31-5.74l-.12-.04ZM419.31,56.23c0,2.01,1.48,3.24,2.83,3.24s2.42-.98,2.42-2.87-1.11-3.28-2.87-3.28c-1.39,0-2.38,1.11-2.38,2.91Z"/>
      </g>
      <g>
        <path class="cls-1" d="M186.55.3h7.02v2.92h-3.52v14.65h-3.5V3.22h-3.52V.3h3.52Z"/>
        <path class="cls-1" d="M202.35,17.87l-.33-2.2h-2.85l-.33,2.2h-3.52l3.1-17.57h4.25l3.2,17.57h-3.52ZM199.62,12.75h1.95l-.97-6.42-.98,6.42Z"/>
        <path class="cls-1" d="M214.15,11.17l2.9,6.7h-3.5l-2.4-5.87v5.87h-3.52V.3h3.57c4.4,0,5.62,2.92,5.62,5.75,0,2.05-.67,4.12-2.67,5.12ZM211.15,3.22v5.6h.27c1.6,0,2.15-.82,2.15-2.82,0-2.27-.6-2.77-2.15-2.77h-.27Z"/>
        <path class="cls-1" d="M229.84,8.87c0,2.9.47,9.27-5.3,9.27-5.02,0-5.75-6.82-5.75-9.07,0-2.7.62-9.07,6-9.07,1.95,0,3.47,1.1,4.42,1.97l-1.88,3.4c-.27-1.3-1.22-2.7-2.5-2.7-1.82,0-2.52,3.8-2.52,6.4,0,1.57.25,6.42,2.22,6.42,1.57,0,1.92-1.75,2-3.7h-1.75v-2.92h5.05Z"/>
        <path class="cls-1" d="M240.39.3v2.92h-5.25v4.4h3.75v2.92h-3.75v4.4h5.25v2.92h-8.77V.3h8.77Z"/>
        <path class="cls-1" d="M245.67.3h7.02v2.92h-3.52v14.65h-3.5V3.22h-3.52V.3h3.52Z"/>
      </g>
    </g>
  </g>
</svg>