<?xml version="1.0" encoding="UTF-8"?>
<svg id="Layer_2" xmlns="http://www.w3.org/2000/svg" viewBox="0 0 252.82 127.77">
  <defs>
    <style>
      .cls-1 {
        fill: #bbdd94;
      }

      .cls-2 {
        fill: #381c09;
      }

      .cls-3 {
        fill: #f26d57;
        fill-rule: evenodd;
      }
    </style>
  </defs>
  <g id="content">
    <g>
      <g>
        <g>
          <path class="cls-3" d="M93.29,72.36c.4.21.82.28,1.25-.01-.65.07-.96-.73-1.25.01Z"/>
          <path class="cls-3" d="M44.88,86.35s.01,0,.02,0c0,0,0,0,0,0,0,0-.02,0-.03,0Z"/>
          <path class="cls-3" d="M44.01,87.88s-.12-.08-.24-.09c.09.05.17.07.24.09Z"/>
          <path class="cls-3" d="M45.26,86.21c-.15.02-.26.07-.35.14.14-.01.32.04.35-.14Z"/>
          <path class="cls-3" d="M72.37,109.03s.07.04.12.05c-.04-.03-.08-.05-.12-.05Z"/>
          <path class="cls-3" d="M75.77,111.35c1.5-.8,3.05-.5,4.55-.52.14-.27-.05-1.05.32-.96-.1.37.13.46.06.81,1.9-.6,3.55-.16,5.16-1.03,1.2.47,4.02.09,5.33-1,.78.76,1.13-.68,1.75.26.58-.27-.53-.87.18-1.18.14.29.05.76.4.87,1.4-.75,3.32-.71,4.41-1.95,1.06.4,3.54-1.15,4.5-2.54-.89.28-3.56-.54-4.05.79-.72-.18-3.74-.09-5.8.53-1.13.34-3.39,2.51-2.65,1.01-.27,0-.63-.17-.73.09.89.4-.78-.07-.95.35.07-.7-.57.09-1.03-.25-.17.71-.75.79-1.08,1.24l.12-.79c-.58.24-.9.43-.87-.13-.04.74-1.1-.08-1.31.4.31.19-.37.86-.67.9-.64-.65-2-.33-2.22.47.04-.26-.28-.23-.29-.45.22,0,.42,0,.41-.34-1.2.31-2.2-.36-2.77.59.3.24.67-.5.7.11-.07.21-.24.28-.41.34-.76-.67-1.17-.05-1.51-.63-.33.71-1.08.76-1.75.94.05-.25.27-.24.26-.56-.41-.07-.57.26-1.08.04-.47.2.22.64-.29.76-.2-1.16-1.43-.36-1.95-.47.18.15.32.6-.03.57-.2-.06-.14-.34-.09-.62-.58,0-.98.27-1.34.6.2-.51-.3-.43-.43-.67-.11.56-1.17-.35-1.28.21.43.29-.35.73-.5.93.04-.35.13-.61.29-.76-.46-.45-1.09-.1-1.37-.41-.3.1-.11.97-.64.71.46-.65-.29-.11-.64-.5-.36,1.51-2.11-.6-2.88.17.18.08.37.39.11.42-1.4-.31-2.37-1.22-3.73-.16-.48-.23-.87-.54-1.31-.8-4.81.28-9.65-1.94-13.24-3.41.01-.87-.99-1.23-1.63-1.05-.13-.55-.06-.63-.64-.5.73-.84-1.05-.23-.2-1.04-3.51-1.38-2.17-8.46.56-10.78-.13-.06-.34-.06-.32-.25.68-.05,1.66-1.26,1.14-1.64.45-.15,1.29-.18.64-.71.71-.2,1.41-.41,1.49-1.58,1.28-.02,1.77-1.36,2.63-2.02,3.35-2.55,7.26-4.15,10.6-6.24l.7.11c.11-.56.4-.6.88-1.07,2.12.43,2.87-1.24,4.81-1.08.06-.23.05-.56.26-.56,2.26-.24,4.3-.82,6.01-1.91.47,1.02,1.3-.25,1.72-.75,2.23.76,6.27-.37,7.35-1.3,1.74,1.18,4.37-.96,6.09-.08.12-.33-.18-.54.09-.59.16.93,1.13.11,1.89.49.07-.29.05-.73.29-.76.14,1.49,2.34-.14,3.11.67.32-.07.13-.94.5-.93,1.06.22,1.08.24,1.66.85.11-1.17.46-.09.9-.06.03-.27.15-.42.26-.56-.25-.32-1.06.17-.75-.92.53-.23,1.84.55.9,1.14.96-.22,1.29-.51,2.3.15.26-.84-.37.11-.29-.45.18-.4,1.27-.47,1.22.19-.21,0-.49-.11-.55.12.19.5.61-.3.46.47,1,.12,1.12-.18,1.52-.57.28.17.2.64.4.87.25-.34,1.38.3,1.98-.1-.18-.08-.37-.39-.11-.42.32.51.53.41,1.05.16-.34,1.03,1.92.61,2.62.4.02.35-.34.46-.09.59.52-.45,1-.4,1.05-1.05.45.54.44.4.03,1.01.13.06.18.2.12.42.52-.45,1.09.27,1.52-.57-.77-.96-.62-1.83-.19-3.45-.69.37-1.89-.68-2.24-.54.19.24-.29,1.48-.61.51-.38,1.15.6.51.75.92l-.06.39c-.27-.43-.63-.16-1.05-.16.14-.92.14-1.92-.64-1.71.89.25-.48.1-.29.76.32.08.56.22.64.5-.54-.06-.96-.24-1.16-.58.89-.52-.21-.38-.29-.45.06-.31.47-.09.44-.54-1.01.02-2,.38-3-.25-1.9,1.31-3.41-.03-4.84.07.07.19.61.83.23.84-.09-.18-.72-.74-.84-.33.26.09-.02.33-.23.37-.07-.76.46-.58.67-.9-.98-.91-.27,1.07-1.37.8.04-.58.81-.62.15-.98-.51.62-.94.06-1.46.18.4.12.33.59-.09.59.05-1.14-1.49-.56-2.21-.74.12.79-.21,1.05.08,1.82-.27.06-.48.23-.76.29.23-.71-.14-.91-.75-.92-.29.59.2.52.23.84-1.04.07-.21-1.88.32-.96-.05-.3.36-.99-.03-1.01-.36.88-1.39.19-1.81.13-.25.61.53.36.4.87-.66-.29-.54.62-1.28.21.21-.8-.5.12-.44-.67-.95.28-1.86.19-1.02.85-.94-.1-1.49.11-2.07-.51-.23.66-1.04.08-1.98.1-.46.43-.81,1.02-1.43,1.19.03-.27.15-.42.26-.56-1.88-.14-3.08.92-4.58.72-.26,1.03.7.23.78.72-.19.27-.5.36-.93.26.05-.56-.18-.88-.75-.92-.31.41.34.81-.12.79-.45-.44-.5-.4-1.19-.38-.76.66-.29,1.81-1.35,1.81.56-.47-.23-.22-.26-.64.39.12.66.05.76-.29-.72-.39-1.02-.14-1.49.38-.27-.06-.06-.52-.46-.47-.41.35-.37.13-.09.59-.66-.02-.99-.03-1.95-.09.04,1.09-.65,1.03-1.17.63-.42.98-1.29,1.23-2.04.5-.05.64-.87.6-1.11.23-.33.79.68.46.75.92-1.3-.41-1.4-.01-3.41.09-.46.53-.2.92-1.34.6-.12.33.18.54-.09.59-.23-.04-.11-.37-.29-.45-.41.5-.89.89-1.58.97.13.04.01.79-.12.79-.12-.36-.41-.58-.99-.55-.03,1.07-.63.16-1.2.82.13.23.64.16.43.67-.66-.29-.54.62-1.28.21,0-.24.11-.55-.09-.62-.1.74-.79.57-1.34.6-.05.49-.21.8-.5.93-.87-.61-1.64,1.02-2.65,1.01-.12.45-.09.76.03,1.01-.21-.35-.75-.34-.76.29-.01.42.52-.22.46.47-.23-.03-.21.32-.41.34-.16-.32-.02-.9-.58-.89-.3.74-.61.76-1.31.41.16.81-.52.34-.64.71.5-.01-.3,1.05.2,1.04,0-.36,1.03-.2.67.3-.48-.25-.56-.34-.9.06-.05-.64-.59-.75-1.02-.36.74.03-.17.58-.29.76.01-.3-.4-.24-.67-.3-.62.62-.89,2.14-1.85,1.74-.57.45-.26,1.66-.89,1.52.2.21-.15.71-.18.72-.45-.05-.85-.02-1.11.23.19.07.24.26.29.45-.5-.12-.9-.08-1.11.23.36.7-.07,1.06.26,1.85-.71-.34-.7-.07-1.28.21.44.04.85.09.81.53-.48.33-.79-.47-1.25.01.15.22.29.44.43.67-.5.68-.19-.26-.73.09-.23.65.59.42.58.89-.55.4-.85-.08-1.49.38.29.6,1.01-.22.99.55-.8.04-.72.35-.5.93-.26.24-.84,0-1.11.23-.23.65.59.42.58.89-1.16.34-.62,1.28-.74,2.5-.24-.14-.4-.36-.64-.5-.24,1.21,1.06.47,1.07,1.17-.18.37-.97-.2-1.11.23.38.63.99,1.5,1.57,1.45-.33.13-.66.27-.67.9.35.37,1.47.71.87,1.34.4.33.66-.69.73-.09-.5.51.53.84.43,1.88,1.36-.06.95.86,1.72.46l-.09.59c1.46.19,1.39,1.08,2.91.84-.03.27-.15.42-.26.56.81.27,1.23-.04,1.95.1-.03.27-.15.42-.26.56,1.33.17,2.35.36,3.03.06-.18,1.26.99.73.32.25l.7.11c-.05.25-.27.24-.26.56,1.13-.39,3.28.9,3.76-.03.94,1.45,2.99,1.15,4.16.83.34.34-.29.45.09.62.53-.11.21-.64.47-.73.24,1.45,3.32.4,4.37.66.08.02-.1.41.12.42.44.01.9-.42,1.31-.4,1.66.05,5.49.08,5.85.28,1.1.62,2.02-.45,3.12-.53.67-.05,1.85.55,2.07.51ZM103.84,69.94c.53-.36-.52.3-.09.59.25.05.49.11.55-.12.16.16.11.48.46.47-.31.25-.81.2-1.28.21.26-.67-.3-1.08.35-1.15ZM102.83,69.58c.54,0,.27.7.37,1.06-.25-.05-.49-.11-.55.12-.41-.49.56-.5.18-1.18ZM101.31,71.36c.27-.24.79-.08,1.25-.01.15.66-1.21.21-.64.71-.28.5-.93-.12-.61-.7ZM99.82,71.74l.87.13c-.12.15-.23.29-.26.56-.47-.01-.74-.19-.61-.7ZM93,71.91c-.17.06-.34.13-.41.34-.57-.15.59-.79-.03-1.01.28-.55.53.34.43.67ZM93.53,69.58c-.42.71-.58-.42-1.43-.02.31-.51,1-.25,1.43.02ZM88.26,70.19c-.06.28-.11.55.09.62-.4.55-.49-1.14-1.19-.38-.14-.31.59-.61,1.11-.23ZM72.4,74.63c-.63.06-.7-.33-.99-.55.45-.43,1.11-.27.99.55ZM63.94,76.16c-.03.53-.44.45-.79.48.12-.32-.08-.39-.29-.45.39-.51.49-.11,1.08-.04ZM57.93,79.28l.52.08c.01.51.18.81-.47.73,0-.17.1-.18.2-.17-.08-.22-.37-.26-.26-.64Z"/>
          <path class="cls-3" d="M134.87,86.91c-.38-.22-.74-.91-.35-1.26-.46-.22-.41.34-.76.29.38-.32.09-.49.15-.98l.52.08c.02-.47-.22-.86.18-1.18-.3-.45-.36.04-.73.09-.02-.7.13-1.16-.67-1.51,1.16-1.04-1.41-1.7-1.83-2.09.57.12.74.28,1.11-.23-1.02-.76-2.07-.84-3.04-1.68.39,0,.63-.22.72-.68-.43-.04-.69.17-.8.61-.05-.05-.11-.1-.16-.16.08-.27.34-.29.44-.54-.27-.06-.61-.07-.46-.47-.57-.44-1,.52-1.08.04,0-.39.3-.35.44-.54-.88-.89-1.66-.55-2.56-.79-.41-.11-.33-.73-.78-.72-.28,0-.59.55-.79.48-.07-.02-.27-.77-.4-.87-.44-.31-1.1.37-1.19-.38.36-.32.5.35.76-.29-.89-.49-2.68-.65-3.2-1.29-.49-.11-.5.53-.96.46l.09-.59c-1.16.09-1.26-.19-1.81.13.12-.44.07-.75-.23-.84-.06.23-.05.56-.26.56-.33-.59-.89-.98-1.39-1.42.2.74-.19.47-.35,1.15.53.33.23-.62.76-.29.09.28.18,1.43-.03,1.4-.25-.08-.09-.5-.06-.81-.5-.26-1.4.07-1.4-.21.08-.37.6-.05.61-.51-.98-.08-1.55.43-2.27-.34.64.16,2.06.28,1.66-.35-.85.56-1.47-.37-1.51-.63-.53.09-.24.26-.29.76-.66.38-1.2-.57-1.63.16.03-.27.15-.42.26-.56-.48-.15-1.18.59-1.43-.02.36-.25,1.01-.06,1.31-.4-.59-.48-1.06.43-1.02-.36-.44.14-.63,1.38-1.17.63.05.46.51.95-.03,1.4.24.15.94-.09.84.33-.8.59-.08,1.14.08,1.82,1.27-.44,1.6,1.31,2.13.12.12.53.69.69,1.31.8.25-.26.28-.86.82-.68,0,.49-.38.38-.32.96.3.06.55.04.73-.09.11-.38-.18-.43-.26-.64.36.33.73-.41.7.11-.28.22-.66.86-.15.98.33-1.53,2.05,1.71,2.68,0-.61.05-.51-.49-.78-.72.89.23,1.42.76,1.74,1.47.06-.31.08-.69.44-.54-.61.76.45-.06.46.47-.06.31-.47.09-.44.54.59.03.98-.55,1.22.19-.27,0-.63-.17-.73.09,1.03.85,2.29-1.3,2.62.4-.24-.09-.25-.37-.46-.47-.01.46-.14.75-.32.96.77,0,.99.09,1.43.01.22-.59-.57-.33-.2-1.04l.52.08c-.32.52.29.8-.38,1.35.43.53,1.5.62,1.1.97l.87.13c.01-.79.52-.81,1.02-.85-.2.26-.25.74-.79.48-.1.37.13.46.06.81.7.45,1.96.81,3.09.87-.24.52-.58-.48-.76.29.24.97,1.21.28,1.83.88-.27.07-.87-.37-.9.06.46.24.89,1.06,1.51.63-.05.25-.27.24-.26.56.21.05.4.12.29.45.51.22.67-.1,1.08-.04-.44,1.13,1.39,2.86,1.94,3.71-.43.26-.15,1.37.11,1.63-1.61,6.89-6.76,8.35-10.99,11.21.13.06.34.06.32.25-.42,0-.78.28-1.05-.16-2.24,1.99-6.18,2.31-7.97,4.23-.09-.22-2.19.07-1.34.6-1.72-.39-2.39.86-3.88.82-.31.46.6.72.06.81-1.24-1.07-1.02.75-2.74.39-.58.27.38.68-.12.79-.51-.93-2.21.37-2.28.86-.61-.64-1.11.61-2.01.3-.19.59-.52.97-.76,1.49-.11-.37-.48-.52-.99-.55-.83,1.22-2.33,1.97-3.65,1.66-.24.52-.4,1.16-.76,1.49.04-.26-.28-.23-.29-.45.06-.31.47-.09.44-.54-.73-.02-.98.96-1.08,1.24-.41,0-.11-.6-.44-.67-.53,1.18-1.45.31-1.99,1.31.83.19,2.05-.12,1.31.8-.17-.26-.58-.32-1.02-.36-.07.4-.53,1.42-.82.68.79-.18-.41-.83-.84-.33.23.66-.29.86-.61.51-.05.83.68,1.23-.09,1.8.2-.68,0-1.04-.35-1.26-.2.59-.58-.4-1.25.01.06,1.12-.65.3-1.05,1.05.63.38,1.35-.32,1.57.24-.62-.31-.63.33-.96.46-.02-.16.05-.39-.12-.42-.11.27-.26.3-.09.59-.18-.3-.78-.39-1.05-.16.09.61-.08,1.45.26,1.85-.32-.09-.42.16-.73.09.24-.72-.6-.53-.55-1.09.03-.52.7-.05.64-.71-.85-.26-.82.83-1.26,1.22-1.18-.27-1.31.6-1.9.72.27.06.61.07.46.47-.56-.27-1.26.45-.85.88.12-.22.25-.42.44-.54.28.23.94.14.78.72-.75-.1-1.27.14-2.13-.12.01.75-.69.4-.99.65-.21.52.29.45.23.84-.5-.03-.33,1.31-1.02.85.32-.25.25-.78-.03-1.01-.22.88-.63,1.4-1.17.63.09.66.39,1.78-.38,1.35.79.1-.1-.79-.2-1.04-.57.12-.92,1.49-1.55.77-.17.83-1.79,1.06-1,1.86-.97-.44-2.1.53-2.71,1.4.55-.35,2.4-.51,1.78-1.14,2.92,0,5.01-2.4,7.2-2.73.01-.91.36-.41.76-.29-.06-.74.81-.05.82-.68-.13-.23-.64-.16-.43-.67.4.12.22.73.78.72,2.76-1.94,6.94-2.8,9.72-5.17,1.22.05,3.7-1.19,4.12-2.39.93.99,1.33-.62,2.36-.25.11-.38-.18-.43-.26-.64l1.22.19c.12-.78.8-.7,1.37-.8.3-.71-.61-.41-.38-1.06.41.17.26.82.96.75-.02-.67.41-.26.55-.12.68-1.54,6.29-2.38,5.61-3.98.38.8.71-.03,1.57.24.78-.93,2.26-1.52,3.5-1.88.31-.46-.6-.72-.06-.81.18.25.23.61.81.53.03-.3.09-.47.26-.56,1.54-.82,3.07-1.33,4.61-2.12.43-.22-.15-.51.26-.56,1.02-.69,2.44-.78,3.15-1.94-.02.24-.02.47.29.45.22-.34-.42-.74.12-.79.37.43.47-.44,1.05.16.44-1.2.73-.9,1.14-1.64.27.06.06.52.46.47.11-1.44,1.52-.89,2.34-1.26-.21-.11-.32-.31-.26-.64.1.07.6.59.7.11-.06-.35-.48-.4-.61-.7,1.02.47,1.72-.02,2.57-.42-.66.09-.05-.88-.38-1.06.79.32,1.04-.17,1.49-.38.02.16-.05.39.12.42.37-.82-.61-.52-.35-1.26.52-.01.86-.29,1.02-.85-.24-.15-.94.09-.84-.33.35-.21.86.31,1.43.02-.08-1.53,1.3-2.75.57-3.74.32-.15.26-.89.67-.9-.72-1.15.51-1.87.48-3.15ZM112.8,74.51c-.57-.2.34-1.12.88-1.07-.19.52-.8.38-.88,1.07ZM117.03,73.74c.62.06.62.77-.44.54.19-.84.87-.92,1.43-1.19.39.39-.68.55-.99.65ZM125.92,79.92c.13-.36.55-.28.5-.93l.52.08c-.59.33-.01,1.06-1.02.85ZM127.26,79.32c.74-.21-.07.86.4.87-.53.52-.8-.48-.4-.87ZM75.92,125.66c-.11-.77,1.06-.6,1.17-.62,0,0,0,0,0-.01.01,0,0,0,0,.01-.05.15.05.18.15.21-.35.27-.73.5-1.31.4ZM81.9,122.74c-.2-.06-.32,0-.38.14-.48-.25-.15-.32-.06-.81l.35.05c-.06.16.04.2.15.22l-.06.39ZM84.03,121.66c-.5-.21.23-.39.12-.79.2.23.61.29.81.52,0,.56-.93-.3-.93.26Z"/>
        </g>
        <g>
          <path class="cls-2" d="M0,52.93c0-.89.15-1.92.41-2.78.3-1.04,1.18-1.48,2.07-1.48,1.04,0,2.04.63,2.04,1.7,0,.15-.04.33-.07.52-.15.56-.22,1.3-.22,1.85,0,2.33,1.26,3.59,8.18,3.59,3.59,0,7.03-.44,10.1-1.07.22-.04.41-.07.59-.07,1.22,0,1.96,1,1.96,2.04,0,.89-.55,1.81-1.81,2.11-3.26.74-6.85,1.15-10.84,1.15-8.92,0-12.4-2.52-12.4-7.55ZM12.62,34.54c2.7,0,5.18-.19,6.99-.48,1.52-.19,2.33.93,2.33,2.04,0,.89-.52,1.78-1.67,2-2.22.33-4.81.52-7.62.52s-5.7-.22-8.07-.7c-1.11-.26-1.63-1.15-1.63-2.04,0-1.18.89-2.37,2.44-2.07,1.96.41,4.48.74,7.22.74Z"/>
          <path class="cls-2" d="M33.63,49.15c0-8.44,6.99-15.36,17.17-15.36,9.03,0,14.25,5.66,14.25,13.02,0,6.7-3.96,11.62-10.32,13.65-.3.11-.59.15-.85.15-1.26,0-2.07-1.04-2.07-2.11,0-.81.44-1.63,1.55-2.04,5.25-1.89,7.36-5.07,7.36-9.66,0-4.85-3.29-8.84-8.92-9.25-.37,6.14-1.89,11.69-4.18,15.73-2.04,3.59-4.22,4.66-7.07,4.66-3.77,0-6.92-3.03-6.92-8.81ZM37.89,49.15c0,3.4,1.33,4.66,2.66,4.66,1.15,0,2.15-.59,3.22-2.48,1.89-3.29,3.26-8.07,3.7-13.51-5.51,1.07-9.58,5.85-9.58,11.32Z"/>
          <path class="cls-2" d="M87.84,34.39c0,1.3,0,2.55.04,3.77,2.55-.19,5.11-.52,7.29-1,1.48-.3,2.37.85,2.37,2,0,.85-.48,1.7-1.63,1.96-2.33.52-5.11.89-7.92,1.04.18,2.96.33,5.96.7,8.88,3.29,1,6.55,2.55,9.44,4.48.78.52,1.07,1.22,1.07,1.89,0,1.15-.89,2.22-2.15,2.22-.48,0-1-.15-1.55-.55-2.04-1.41-4.33-2.7-6.66-3.66-.44,3.7-3.37,6.25-8.44,6.25-4.62,0-7.88-2.11-7.88-5.88,0-3.26,3-5.99,7.99-5.99,1.26,0,2.55.11,3.88.3-.44-4.33-.81-9.44-.81-15.8v-2.29c0-1.18,1.07-1.74,2.15-1.74s2.11.55,2.11,1.74v2.41ZM84.66,54.11c-1.41-.33-2.81-.52-4.14-.52-2.41,0-3.59.89-3.59,2.18s1.04,2,3.48,2,4.26-1.41,4.26-3.66Z"/>
          <path class="cls-2" d="M113.78,45.27c-1.18,0-2.04-1.04-2.04-2.07,0-.7.41-1.44,1.37-1.85,3.52-1.55,7.77-2.44,10.66-2.44,5.81,0,8.55,2.63,8.55,7.59,0,5.7-2.59,11.62-8.18,15.54-.48.33-.96.48-1.41.48-1.18,0-2.11-.96-2.11-2.04,0-.63.3-1.3,1.07-1.85,4.62-3.4,6.33-7.51,6.33-12.1,0-2.41-1-3.66-4.18-3.66-2.22,0-5.66.7-9.1,2.18-.33.15-.67.22-.96.22ZM129.13,32.43c.92.37,1.33,1.15,1.33,1.92,0,1.07-.78,2.18-1.92,2.18-.22,0-.48-.07-.74-.15-2.33-.81-5.59-1.74-8.07-2.22-1.07-.22-1.55-1.04-1.55-1.89,0-1.18.89-2.41,2.41-2.18,2.66.37,6.11,1.33,8.55,2.33Z"/>
          <path class="cls-2" d="M153.66,31.39c.22-1.11,1.11-1.59,2-1.59,1.15,0,2.26.81,1.96,2.29-.3,1.41-.67,2.89-1.07,4.37,1.11-.19,2.22-.37,3.26-.56,1.41-.26,2.33.81,2.33,1.92,0,.81-.48,1.63-1.67,1.89-1.59.33-3.4.63-5.22.89-1.55,4.48-3.55,8.92-5.7,12.47-.55.92-1.33,1.33-2.07,1.33-1.11,0-2.07-.85-2.07-1.96,0-.41.11-.85.41-1.3,1.89-2.96,3.59-6.4,5-10.06-1.37.15-2.7.22-3.85.26-1.26.04-1.92-1-1.92-2.04,0-.96.59-1.89,1.78-1.92,1.67-.07,3.52-.19,5.4-.37.56-1.89,1.07-3.77,1.44-5.62ZM160.29,62.4c-4.4,0-7.07-1.92-7.07-5.37,0-2.96,2.52-5.4,7.25-5.4.59,0,1.18.04,1.85.11-.26-1.7-.37-2.96-.37-3.92,0-1.59.07-2.41.26-3.59.18-1.04,1.04-1.48,1.92-1.48,1.11,0,2.22.7,2.04,2-.18,1.07-.26,2-.26,3.03s.11,2.48.52,4.81c2.37.7,4.81,1.78,6.96,3.22.7.48,1,1.11,1,1.74,0,1.04-.85,2.04-1.96,2.04-.37,0-.81-.15-1.26-.44-1.37-.96-2.81-1.78-4.22-2.37-.07,4.14-3.11,5.62-6.66,5.62ZM162.91,56.37c0-.33,0-.63-.04-.92-.81-.15-1.59-.22-2.33-.22-2.59,0-3.4.81-3.4,1.81,0,1.07.74,1.7,3.15,1.7,1.7,0,2.63-.74,2.63-2.37ZM174.31,39.09c.85.52,1.22,1.26,1.22,1.92,0,1.07-.89,2.04-1.96,2.04-.37,0-.74-.11-1.11-.33-1.74-1-3.66-1.96-5.29-2.55-.92-.33-1.33-1-1.33-1.67,0-1,.85-2.04,2.11-2.04.22,0,.44.04.7.11,1.78.48,4.07,1.52,5.66,2.52Z"/>
          <path class="cls-2" d="M195.14,30.65c0-1.11,1.04-1.67,2.04-1.67s2.04.56,2.04,1.67v4.85h13.06c1.07,0,1.63.93,1.63,1.85s-.56,1.85-1.63,1.85h-14.17c-.07,1.37-.26,2.74-.48,4.11h6.7c3.7,0,5.33,1.22,5.18,4.44-.15,3.26-.63,6.7-1.33,9.62-.92,3.89-2.92,5.37-6.47,5.37-1.41,0-2.55-.11-3.85-.41-1.11-.26-1.63-1.11-1.63-1.92,0-1.04.7-2.04,1.92-2.04.15,0,.33.04.52.07,1.18.26,1.96.37,2.85.37,1.41,0,2.29-.59,2.74-2.37.63-2.48,1.07-5.55,1.18-8.36.04-.85-.22-1.15-1.18-1.15h-7.44c-2,7.25-6.07,12.4-12.03,15.91-.44.26-.85.37-1.22.37-1.18,0-2.04-1-2.04-2.04,0-.67.33-1.33,1.18-1.81,2.15-1.33,4.11-2.81,5.77-4.77,3.63-4.26,5.07-9.92,5.4-15.39h-11.36c-1.04,0-1.59-.93-1.59-1.85s.55-1.85,1.59-1.85h12.62v-4.85Z"/>
          <path class="cls-2" d="M223.15,60.07c-.52.81-1.26,1.18-2,1.18-1.07,0-2.04-.74-2.04-1.85,0-.33.11-.74.33-1.15,2.33-4.11,4.25-9.18,5.66-14.47-1.52.19-3,.44-4.4.74-1.44.3-2.26-.78-2.26-1.85,0-.85.52-1.7,1.67-1.92,1.89-.37,3.92-.63,5.88-.85.44-2.26.81-4.55,1.07-6.81.15-1.18,1.07-1.74,2.04-1.74,1.11,0,2.22.74,2.07,2.11-.22,2-.56,4.07-.96,6.11.74-.04,1.41-.04,2-.04,4.74,0,6.48,2.15,6.48,7.96,0,3.48-.33,6.59-1,8.84-1.15,4.26-2.85,5.77-6.59,5.77-.89,0-1.81-.07-2.52-.19-1.26-.19-1.81-1.11-1.81-2,0-1.11.78-2.18,2.18-2,.7.07,1.26.15,2.04.15,1.3,0,1.96-.41,2.59-2.59.63-2.11.96-5,.96-8.03,0-3.33-.63-4.22-2.41-4.22-.81,0-1.74.04-2.74.11-1.48,6.11-3.66,12.06-6.25,16.73ZM250.01,45.12c.22.44.3.89.3,1.26,0,1.29-1.04,2.15-2.15,2.15-.74,0-1.55-.41-2.04-1.41-1.37-2.66-3.29-5.51-5.25-7.62-.41-.44-.59-.93-.59-1.33,0-1.04,1.04-1.85,2.15-1.85.59,0,1.18.22,1.7.7,2.33,2.22,4.62,5.62,5.88,8.1ZM243.24,32.35c0-.74.74-1.41,1.55-1.41.33,0,.7.11,1.04.41,1,.89,2.11,2.07,2.89,3.22.26.33.33.67.33,1,0,.81-.7,1.48-1.48,1.48-.44,0-.89-.22-1.22-.7-.89-1.22-1.89-2.29-2.74-3.15-.26-.3-.37-.59-.37-.85ZM246.9,29.39c0-.74.7-1.37,1.55-1.37.37,0,.74.15,1.11.44.96.81,2.07,1.96,2.85,3.03.3.37.41.74.41,1.11,0,.81-.7,1.41-1.48,1.41-.44,0-.92-.19-1.29-.67-.85-1.07-1.89-2.18-2.74-3.07-.3-.3-.41-.59-.41-.89Z"/>
          <path class="cls-2" d="M57.57,75.24c0-1.11,1-1.67,2-1.67s2,.56,2,1.67v5.11h4.81c1.04,0,1.55.89,1.55,1.81s-.52,1.81-1.55,1.81h-1.37c-.26,3.59-1.04,7.1-2.37,10.43,1.33,1.78,2.59,3.55,3.55,5.11.3.48.44.96.44,1.41,0,1.15-.92,1.96-1.96,1.96-.63,0-1.33-.33-1.81-1.15-.59-1-1.33-2.11-2.15-3.26-1.78,3.11-3.96,5.77-6.48,7.81-.44.37-.92.52-1.41.52-1.04,0-1.92-.81-1.92-1.81,0-.56.26-1.15.92-1.7,2.63-2.18,4.81-4.92,6.36-8.14-1.48-1.85-3.03-3.63-4.4-5.03-.48-.48-.67-.96-.67-1.44,0-1,.92-1.85,2-1.85.52,0,1.07.22,1.59.7,1.11,1.07,2.15,2.22,3.14,3.4.7-2.26,1.04-4.63,1.22-6.96h-8.29c-1,0-1.52-.93-1.52-1.81s.52-1.81,1.52-1.81h4.77v-5.11ZM76.67,75.17c0-1.15,1-1.7,1.96-1.7s1.96.55,1.96,1.7v8.33h3.26c1,0,1.52.89,1.52,1.78s-.52,1.81-1.52,1.81h-3.26v15.36c0,3.11-1.15,4.7-4.7,4.7-1,0-1.78-.04-2.89-.26-1-.22-1.44-1.04-1.44-1.85,0-1.11.81-2.22,2.41-1.96.41.07,1.04.15,1.52.15.92,0,1.18-.3,1.18-1.41v-14.73h-7.36c-.96,0-1.48-.89-1.48-1.81s.52-1.78,1.48-1.78h7.36v-8.33ZM74.08,93.74c.22.41.33.81.33,1.18,0,1.15-1,1.96-2.04,1.96-.67,0-1.33-.33-1.74-1.11-.59-1.04-1.29-2.11-2.11-3.18-.3-.41-.44-.81-.44-1.18,0-.96.92-1.74,2-1.74.55,0,1.18.26,1.7.81.89,1.07,1.74,2.22,2.29,3.26Z"/>
          <path class="cls-2" d="M110.74,89.01c.52,1.44,1.18,2.81,1.96,4.14,1.63-1,3-2.04,4.44-3.33.41-.37.85-.52,1.26-.52.96,0,1.85.81,1.85,1.78,0,.44-.22.93-.7,1.33-1.55,1.26-3.22,2.37-5.03,3.4,1.81,2.33,3.96,4.26,6.33,5.74.78.48,1.07,1.15,1.07,1.74,0,.96-.78,1.85-1.85,1.85-.44,0-.93-.11-1.41-.44-4.7-3.11-9.18-8.99-11.36-15.69h-1.07c-.7.48-1.41.96-2.11,1.44,3.66,2.96,5.44,6.77,5.44,10.62,0,4.85-1.78,6.66-4.96,6.66-.92,0-1.96-.11-2.74-.26-1.07-.22-1.52-.96-1.52-1.7,0-1,.81-2,2.15-1.74.63.15,1.26.22,1.92.22.96,0,1.52-.67,1.52-3.18,0-.37-.04-.78-.07-1.15-4.4,3-9.88,5.33-15.17,6.62-.22.07-.41.07-.59.07-1,0-1.59-.81-1.59-1.59,0-.7.41-1.37,1.29-1.59,5.18-1.26,10.51-3.48,15.21-6.59-.18-.48-.44-.96-.7-1.41-4.07,2.48-8.84,4.48-13.25,5.62-.18.04-.37.07-.55.07-1.04,0-1.63-.78-1.63-1.59,0-.63.41-1.3,1.33-1.55,4.11-1,8.44-2.59,12.25-4.88-.33-.37-.7-.74-1.11-1.07-3.18,1.67-6.59,2.89-9.88,3.7-.18.04-.37.07-.52.07-1.04,0-1.63-.81-1.63-1.59,0-.67.41-1.29,1.37-1.52,3.66-.81,7.14-2,10.21-3.7h-3.88c-3.07,0-4.22-1-4.22-3.18v-2.11c0-.15,0-.33.04-.48-.63.44-1.22.85-1.85,1.22-.37.22-.74.33-1.11.33-1,0-1.78-.85-1.78-1.78,0-.59.3-1.18,1.07-1.63,3.37-2,6.7-5.14,8.88-8.1.44-.56,1.04-.81,1.59-.81,1.07,0,2.07.78,2.07,1.7,0,.3-.11.59-.37.93-.18.22-.37.44-.55.67h5.14c2.15,0,3.37.89,3.37,2.15,0,.48-.15,1.04-.52,1.59-.22.37-.41.7-.63,1.04h5.37c3.07,0,4.22,1,4.22,3.18v2.11c-.07,2.74-1.85,3.15-4.22,3.18h-2.78ZM98.2,78.65c-.67.67-1.33,1.3-2.04,1.92.26-.04.56-.04.85-.04h6.85c.33-.41.59-.81.81-1.22.11-.18.15-.3.15-.41,0-.18-.15-.26-.48-.26h-6.14ZM97.64,83.42c-.89,0-1.07.19-1.07.78v1.15c0,.59.19.78,1.07.78h5.33v-2.7h-5.33ZM112.89,86.12c.63,0,1.07-.04,1.07-.78v-1.15c0-.59-.19-.78-1.07-.78h-6.22v2.7h6.22Z"/>
          <path class="cls-2" d="M143.82,82.12c-4.44.59-10.32,1.48-15.65,2.26-1.55.22-2.44-.92-2.44-2.07,0-.96.59-1.89,1.92-2.04,7.7-1,17.24-2.04,24.94-2.74,1.44-.11,2.22.92,2.22,1.96,0,.89-.56,1.78-1.7,2-1.3.22-2.7.7-4.07,1.48-5.77,3.29-6.99,7.14-6.99,10.66,0,4.11,2.85,6.62,8.03,7.25,1.37.19,2,1.18,2,2.18,0,1.15-.85,2.29-2.41,2.18-6.99-.52-11.92-5.22-11.92-11.51,0-3.89,1.89-8.25,6.07-11.54v-.07ZM149.26,88.08c0-.74.74-1.41,1.55-1.41.33,0,.7.11,1.04.41,1,.89,2.11,2.07,2.89,3.22.26.33.33.67.33,1,0,.81-.7,1.48-1.48,1.48-.44,0-.89-.22-1.22-.7-.89-1.22-1.89-2.29-2.74-3.15-.26-.3-.37-.59-.37-.85ZM152.92,85.12c0-.74.7-1.37,1.55-1.37.37,0,.74.15,1.11.44.96.81,2.07,1.96,2.85,3.03.3.37.41.74.41,1.11,0,.81-.7,1.41-1.48,1.41-.44,0-.92-.19-1.29-.67-.85-1.07-1.89-2.18-2.74-3.07-.3-.3-.41-.59-.41-.89Z"/>
          <path class="cls-2" d="M180.01,98.04c-.67.59-1.63.93-2.74.93-3.63,0-6.29-2.44-6.29-6.66,0-3.63,2.29-6.14,5.74-6.14.78,0,1.52.11,2.22.3-.04-1-.07-1.96-.11-2.96-5,.22-10.03.48-14.36.78-1.33.07-2.07-1.04-2.07-2.11,0-.96.59-1.92,1.89-2,4.37-.26,9.44-.52,14.5-.7-.04-1.33-.04-2.85-.04-4.51,0-1.18,1.04-1.81,2.07-1.81s2,.59,2,1.78v4.4c3.85-.11,7.55-.18,10.84-.18,1.29,0,1.92,1,1.92,2.03,0,.96-.63,1.96-1.78,1.96-3.29,0-7.07.11-10.92.22.04,2.15.11,4.26.26,6.4.81,1.33,1.26,3.03,1.26,4.92,0,5.85-3,9.88-8.33,12.32-.37.15-.7.22-1,.22-1.22,0-2.11-1-2.11-2.07,0-.7.41-1.44,1.44-1.89,3-1.29,5.03-3.4,5.7-5.18l-.11-.04ZM174.9,92.41c0,1.81,1.33,2.92,2.55,2.92s2.18-.89,2.18-2.59-1-2.96-2.59-2.96c-1.26,0-2.15,1-2.15,2.63Z"/>
        </g>
      </g>
      <g>
        <path class="cls-1" d="M91.21.3h7.02v2.92h-3.52v14.65h-3.5V3.22h-3.52V.3h3.52Z"/>
        <path class="cls-1" d="M107.01,17.87l-.33-2.2h-2.85l-.33,2.2h-3.52L103.08.3h4.25l3.2,17.57h-3.52ZM104.28,12.75h1.95l-.97-6.42-.98,6.42Z"/>
        <path class="cls-1" d="M118.81,11.17l2.9,6.7h-3.5l-2.4-5.87v5.87h-3.52V.3h3.57c4.4,0,5.62,2.92,5.62,5.75,0,2.05-.67,4.12-2.67,5.12ZM115.81,3.22v5.6h.27c1.6,0,2.15-.82,2.15-2.82,0-2.27-.6-2.77-2.15-2.77h-.27Z"/>
        <path class="cls-1" d="M134.5,8.87c0,2.9.47,9.27-5.3,9.27-5.02,0-5.75-6.82-5.75-9.07,0-2.7.62-9.07,6-9.07,1.95,0,3.47,1.1,4.42,1.97l-1.88,3.4c-.27-1.3-1.22-2.7-2.5-2.7-1.82,0-2.52,3.8-2.52,6.4,0,1.57.25,6.42,2.22,6.42,1.57,0,1.92-1.75,2-3.7h-1.75v-2.92h5.05Z"/>
        <path class="cls-1" d="M145.05.3v2.92h-5.25v4.4h3.75v2.92h-3.75v4.4h5.25v2.92h-8.77V.3h8.77Z"/>
        <path class="cls-1" d="M150.33.3h7.02v2.92h-3.52v14.65h-3.5V3.22h-3.52V.3h3.52Z"/>
      </g>
    </g>
  </g>
</svg>