<?xml version="1.0" encoding="UTF-8"?>
<svg id="Layer_2" xmlns="http://www.w3.org/2000/svg" viewBox="0 0 70 78">
  <defs>
    <style>
      .cls-1 {
        fill: #eaac81;
      }

      .cls-2 {
        fill: #fff;
      }
    </style>
  </defs>
  <g id="content">
    <g>
      <rect class="cls-2" width="70" height="78"/>
      <g>
        <path class="cls-1" d="M33.42,38.51c0,16.66-6.18,25.86-17.04,25.86C6.8,64.37.32,55.4.17,39.19.17,22.75,7.26,13.71,17.21,13.71s16.21,9.2,16.21,24.8ZM6.8,39.26c0,12.74,3.92,19.98,9.95,19.98,6.79,0,10.03-7.92,10.03-20.43s-3.09-19.98-9.95-19.98c-5.81,0-10.03,7.09-10.03,20.43Z"/>
        <path class="cls-1" d="M51.66,20.72h-.15l-8.52,4.6-1.28-5.05,10.71-5.73h5.65v49.01h-6.41V20.72Z"/>
      </g>
    </g>
  </g>
</svg>