<?xml version="1.0" encoding="UTF-8"?>
<svg id="Layer_2" xmlns="http://www.w3.org/2000/svg" viewBox="0 0 70 78">
  <defs>
    <style>
      .cls-1 {
        fill: #eaac81;
      }

      .cls-2 {
        fill: #fff;
      }
    </style>
  </defs>
  <g id="content">
    <g>
      <rect class="cls-2" width="70" height="78"/>
      <g>
        <path class="cls-1" d="M33.42,38.51c0,16.66-6.18,25.86-17.04,25.86C6.8,64.37.32,55.4.17,39.19.17,22.75,7.26,13.71,17.21,13.71s16.21,9.2,16.21,24.8ZM6.8,39.26c0,12.74,3.92,19.98,9.95,19.98,6.79,0,10.03-7.92,10.03-20.43s-3.09-19.98-9.95-19.98c-5.81,0-10.03,7.09-10.03,20.43Z"/>
        <path class="cls-1" d="M37.26,63.54v-4.07l5.2-5.05c12.52-11.91,18.17-18.25,18.25-25.63,0-4.98-2.41-9.57-9.73-9.57-4.45,0-8.14,2.26-10.4,4.15l-2.11-4.67c3.39-2.86,8.22-4.98,13.87-4.98,10.55,0,15,7.24,15,14.25,0,9.05-6.56,16.36-16.89,26.31l-3.92,3.62v.15h22.02v5.5h-31.29Z"/>
      </g>
    </g>
  </g>
</svg>