<?xml version="1.0" encoding="UTF-8"?>
<svg id="Layer_2" xmlns="http://www.w3.org/2000/svg" viewBox="0 0 1162 129.8">
  <defs>
    <style>
      .cls-1 {
        fill: none;
        stroke: #f2decc;
        stroke-linecap: round;
        stroke-linejoin: round;
        stroke-width: 2px;
      }
    </style>
  </defs>
  <g id="main_x5F_bg">
    <g>
      <g>
        <polygon class="cls-1" points="83.16 117.61 51.54 117.61 51.54 95.23 67.35 95.23 83.16 95.23 83.16 117.61"/>
        <line class="cls-1" x1="67.35" y1="117.61" x2="67.35" y2="95.23"/>
        <line class="cls-1" x1="51.54" y1="106.42" x2="83.16" y2="106.42"/>
      </g>
      <rect class="cls-1" x="224.73" y="92.56" width="17.42" height="33.57"/>
      <rect class="cls-1" x="248.18" y="90.02" width="13.07" height="13.07"/>
      <rect class="cls-1" x="265.12" y="90.02" width="13.07" height="13.07"/>
      <rect class="cls-1" x="282.41" y="90.02" width="13.07" height="13.07"/>
      <circle class="cls-1" cx="227.57" cy="109.35" r="1.42"/>
      <g>
        <rect class="cls-1" x="871.35" y="91.38" width="17.42" height="33.57"/>
        <circle class="cls-1" cx="874.19" cy="108.16" r="1.42"/>
      </g>
      <path class="cls-1" d="M394.24,127.82c7.59.01,8.84-16.96-3.49-14.71,7-9.18-7.21-24.54-17.69-12.02,2.13-11.07-21.49-15.99-22.83-.88-3.11-8.36-20.69-3.65-16.95,10.57-4.18-.48-8.43,2.81-9.01,6.98-.58,4.16,2.25,10.37,6.4,11.04h-29.86v-52.76h18.92l-18.92-27.71h-87.93l-18.92,27.71h18.92v52.76h-51.97v-20.53c3.63-.94,6.83-4.73,6.83-11.38,0-17.83-4.61-41.63-8.44-41.63s-8.63,24.17-8.63,42c0,6.54,3.2,10.22,6.83,11.05v20.12l-20.43.36v-15.56c5.58-.71,10.51-3.58,10.51-8.63,0-13.51-7.1-31.55-12.99-31.55s-13.29,18.32-13.29,31.83c0,4.95,4.92,7.74,10.51,8.37v15.25l-33.09.28-.27-37.53h15.06l-46.15-36-46.15,36h16.84v37.53H1"/>
      <g>
        <rect class="cls-1" x="464.76" y="29.07" width="14.65" height="17.05"/>
        <line class="cls-1" x1="472.08" y1="29.07" x2="472.08" y2="46.12"/>
      </g>
      <g>
        <rect class="cls-1" x="464.89" y="53.05" width="14.65" height="17.05"/>
        <line class="cls-1" x1="472.22" y1="53.05" x2="472.22" y2="70.1"/>
      </g>
      <g>
        <rect class="cls-1" x="464.76" y="76.49" width="14.65" height="17.05"/>
        <line class="cls-1" x1="472.08" y1="76.49" x2="472.08" y2="93.55"/>
      </g>
      <g>
        <polygon class="cls-1" points="543.14 116.93 526.34 116.93 526.34 101.59 534.74 101.59 543.14 101.59 543.14 116.93"/>
        <line class="cls-1" x1="534.74" y1="116.93" x2="534.74" y2="101.59"/>
        <line class="cls-1" x1="526.34" y1="109.26" x2="543.14" y2="109.26"/>
      </g>
      <rect class="cls-1" x="526.34" y="85.46" width="16.8" height="5.15"/>
      <rect class="cls-1" x="692.86" y="41.14" width="7.23" height="15.1"/>
      <rect class="cls-1" x="706.91" y="41.14" width="7.23" height="15.1"/>
      <rect class="cls-1" x="720.46" y="41.14" width="7.23" height="15.1"/>
      <rect class="cls-1" x="648.05" y="78.93" width="12.43" height="12.66"/>
      <rect class="cls-1" x="690.26" y="78.69" width="12.43" height="12.66"/>
      <rect class="cls-1" x="711.64" y="78.69" width="12.43" height="12.66"/>
      <rect class="cls-1" x="648.05" y="102.81" width="12.43" height="12.66"/>
      <rect class="cls-1" x="669.19" y="102.57" width="12.43" height="12.66"/>
      <rect class="cls-1" x="711.64" y="102.57" width="12.43" height="12.66"/>
      <g>
        <g>
          <rect class="cls-1" x="968.39" y="105.68" width="14.65" height="17.05"/>
          <line class="cls-1" x1="975.71" y1="105.68" x2="975.71" y2="122.73"/>
        </g>
        <rect class="cls-1" x="944.96" y="102.54" width="7.23" height="15.1"/>
        <rect class="cls-1" x="997.43" y="102.54" width="7.23" height="15.1"/>
        <path class="cls-1" d="M365.6,98.07c-3.74-14.22,13.85-18.93,16.95-10.57,1.34-15.11,24.96-10.19,22.83.88,10.48-12.52,24.69,2.84,17.69,12.02,12.33-2.25,11.8,11.88,3.49,14.71,12.04-1.23,11.9,10.85,5.75,13.69h20.72V21.33h-9.59l10.48-20.15,37.3-.18,9.77,20.33h-9.59v107.47h18.81l.2-68.21,48.67,23.45v44.76h18.01v-25.11c-4.48-.53-12.08-.56-12.08-8.37l6.22-41.74c4.26-25.76,14.21-15.45,16.7-.18l5.33,42.63c0,4.8-6.37,7.43-11.1,7.72v25.06h50.8v-61.37h51.16V29.06h51.16v99.74h16.75c-4.15-.67-7.15-5.89-6.57-10.06.58-4.16,4.83-7.46,9.01-6.98-3.74-14.22,13.85-18.93,16.95-10.57,1.34-15.11,24.96-10.19,22.83.88,10.48-12.52,24.69,2.84,17.69,12.02,12.33-2.25,11.09,14.72,3.49,14.71h44.19v-48.05h-11.75l32.2-46.09,32.2,46.09h-10.51l.19,48.05h23.77V58.99h100.02v69.81"/>
        <rect class="cls-1" x="940.11" y="70.18" width="71.2" height="5.33"/>
        <rect class="cls-1" x="940.11" y="87.71" width="71.2" height="5.33"/>
      </g>
      <path class="cls-1" d="M1025.73,101.2c1.34-15.11,24.96-10.19,22.83.88,10.48-12.52,24.69,2.84,17.69,12.02,12.33-2.25,11.09,14.72,3.49,14.71h26.23v-19.13c-5.86-2.44-10.24-12.4-10.24-24.3,0-13.74,5.84-24.88,13.04-24.88s13.04,11.13,13.04,24.88c0,11.91-4.38,21.87-10.24,24.3v19.13h22.54v-14.99c-7.98-.63-7.04-6.6-5.78-11.78.7-2.88-3.45-5.1-3.45-8.6,0-5.87,1.97-4.77,4.12-8.35.76-1.26-.47-3.2.58-5.03,1.44-2.51,1.25-7.95,6.74-7.95,5.8,0,5.76,5.71,7.05,7.95,1.29,2.24-.63,4.16.27,5.65,2.15,3.57,4.43,1.85,4.43,7.72,0,4.32-5.33,8.6-3.53,12.87,1.56,3.71-3.36,8.58-6.05,7.51v14.99h32.51"/>
    </g>
  </g>
</svg>