<?xml version="1.0" encoding="UTF-8"?>
<svg id="Layer_2" xmlns="http://www.w3.org/2000/svg" xmlns:xlink="http://www.w3.org/1999/xlink" viewBox="0 0 375 145">
  <defs>
    <style>
      .cls-1, .cls-2 {
        fill: none;
      }

      .cls-2 {
        stroke: #f2decc;
        stroke-linecap: round;
        stroke-linejoin: round;
        stroke-width: 2px;
      }

      .cls-3 {
        clip-path: url(#clippath);
      }
    </style>
    <clipPath id="clippath">
      <rect class="cls-1" width="375" height="145"/>
    </clipPath>
  </defs>
  <g id="header">
    <g class="cls-3">
      <g>
        <path class="cls-2" d="M.74,134.02c7.59.01,8.84-16.96-3.49-14.71,7-9.18-7.21-24.54-17.69-12.02,2.13-11.07-21.49-15.99-22.83-.88-3.11-8.36-20.69-3.65-16.95,10.57-4.18-.48-8.43,2.81-9.01,6.98-.58,4.16,2.25,10.37,6.4,11.04h-29.86v-52.76h18.92l-18.92-27.71h-87.93l-18.92,27.71h18.92v52.76h-51.97v-20.53c3.63-.94,6.83-4.73,6.83-11.38,0-17.83-4.61-41.63-8.44-41.63s-8.63,24.17-8.63,42c0,6.54,3.2,10.22,6.83,11.05v20.12l-20.43.36v-15.56c5.58-.71,10.51-3.58,10.51-8.63,0-13.51-7.1-31.55-12.99-31.55s-13.29,18.32-13.29,31.83c0,4.95,4.92,7.74,10.51,8.37v15.25l-33.09.28-.27-37.53h15.06l-46.15-36-46.15,36h16.84v37.53h-37.04"/>
        <g>
          <rect class="cls-2" x="71.26" y="35.27" width="14.65" height="17.05"/>
          <line class="cls-2" x1="78.58" y1="35.27" x2="78.58" y2="52.32"/>
        </g>
        <g>
          <rect class="cls-2" x="71.39" y="59.25" width="14.65" height="17.05"/>
          <line class="cls-2" x1="78.72" y1="59.25" x2="78.72" y2="76.3"/>
        </g>
        <g>
          <rect class="cls-2" x="71.26" y="82.69" width="14.65" height="17.05"/>
          <line class="cls-2" x1="78.58" y1="82.69" x2="78.58" y2="99.75"/>
        </g>
        <g>
          <polygon class="cls-2" points="149.64 123.13 132.84 123.13 132.84 107.79 141.24 107.79 149.64 107.79 149.64 123.13"/>
          <line class="cls-2" x1="141.24" y1="123.13" x2="141.24" y2="107.79"/>
          <line class="cls-2" x1="132.84" y1="115.46" x2="149.64" y2="115.46"/>
        </g>
        <rect class="cls-2" x="132.84" y="91.66" width="16.8" height="5.15"/>
        <rect class="cls-2" x="299.36" y="47.34" width="7.23" height="15.1"/>
        <rect class="cls-2" x="313.41" y="47.34" width="7.23" height="15.1"/>
        <rect class="cls-2" x="326.96" y="47.34" width="7.23" height="15.1"/>
        <rect class="cls-2" x="254.55" y="85.13" width="12.43" height="12.66"/>
        <rect class="cls-2" x="296.76" y="84.89" width="12.43" height="12.66"/>
        <rect class="cls-2" x="318.14" y="84.89" width="12.43" height="12.66"/>
        <rect class="cls-2" x="254.55" y="109.01" width="12.43" height="12.66"/>
        <rect class="cls-2" x="275.69" y="108.77" width="12.43" height="12.66"/>
        <rect class="cls-2" x="318.14" y="108.77" width="12.43" height="12.66"/>
        <path class="cls-2" d="M-27.9,104.27c-3.74-14.22,13.85-18.93,16.95-10.57,1.34-15.11,24.96-10.19,22.83.88,10.48-12.52,24.69,2.84,17.69,12.02,12.33-2.25,11.8,11.88,3.49,14.71,12.04-1.23,11.9,10.85,5.75,13.69h20.72V27.53h-9.59l10.48-20.15,37.3-.18,9.77,20.33h-9.59v107.47h18.81l.2-68.21,48.67,23.45v44.76h18.01v-25.11c-4.48-.53-12.08-.56-12.08-8.37l6.22-41.74c4.26-25.76,14.21-15.45,16.7-.18l5.33,42.63c0,4.8-6.37,7.43-11.1,7.72v25.06h50.8v-61.37h51.16v-38.37h51.16v99.74h16.75c-4.15-.67-7.15-5.89-6.57-10.06.58-4.16,4.83-7.46,9.01-6.98-3.74-14.22,13.85-18.93,16.95-10.57,1.34-15.11,24.96-10.19,22.83.88,10.48-12.52,24.69,2.84,17.69,12.02,12.33-2.25,11.09,14.72,3.49,14.71h44.19v-48.05h-11.75l32.2-46.09,32.2,46.09h-10.51l.19,48.05h23.77v-69.81h100.02v69.81"/>
      </g>
    </g>
  </g>
</svg>